<svg viewBox="0 0 731.18 155.31" xmlns="http://www.w3.org/2000/svg"><g fill="#1c1b1a" transform="translate(-173.1 -497.87)"><path d="m392.91 500.08.25-1.75 6.42.15 5.87-.15.25 1.75-4.26.65v20.48c0 6.52-2.66 10.89-12.65 13.2-9.89 0-13.4-5.32-13.4-13.3v-20.38l-4.52-.65.25-1.75 6.93.15 6.88-.15.25 1.75-4.27.65v21.13c0 6.23 2.66 9.79 8.38 9.79 5.22 0 8.13-3.51 8.13-9.94v-21z"/><path d="m413.21 533.41-5.77.15-.25-1.76 3.51-.5v-18.3l-3.51.3-.25-1.76 6-1.55 2.16-.15.25 4.21 7.43-4.86c6.42 0 7.48 2.15 7.48 8.18v13.93l3.81.5-.25 1.76-5.77-.15-4.82.15-.23-1.76 2.51-.5v-14.36c0-2.61-1.16-3.76-3.31-3.76-1.76 0-3.52 1.1-5.22 2.26l-1.51 1v14.86l2.76.5-.25 1.76z"/><path d="m443.68 533.41-5.77.15-.25-1.76 3.51-.5v-18.3l-3.51.3-.25-1.76 6-1.55 2.51-.2v21.51l3.76.5-.25 1.76zm-2.51-34.53 3.62-.25 1.4.25.25 2.81-.55 2.41-3.56.3-1.36-.3-.3-2.81z"/><path d="m464.67 530.29 6.07-18.16-2.31-.51.25-1.75 4.42.15 4.16-.15.25 1.75-3.21.51-8.23 20.62-3.66 1.51-8.74-22.13-3.11-.51.25-1.75 5.78.15 5.27-.15.25 1.75-3.32.51 5.47 14.7z"/><path d="m483.64 520.71c0 5.72 3.06 9.78 8.33 9.78a13 13 0 0 0 6.28-2.1l.8 1.9a30.44 30.44 0 0 1 -8.78 4c-6.08 0-11.55-4.32-11.55-12.2 0-7.42 4.47-11.39 11.35-12.89 6.62 0 8.88 4.16 8.88 9.43v2.11zm10.09-2.51c0-3.87-.75-6.53-4.62-6.53-3.06 0-5 2.87-5.42 7z"/><path d="m510.47 516.44 5.72-7h4v5h-3.71c-1.2.25-3.41 1.9-4.77 3.56l-1 1.2v11.95l5.27.5-.25 1.91-7.28-.15-5.62.15-.25-1.76 3.51-.5v-18.3l-3.51.3-.25-1.76 6-1.55 2-.15z"/><path d="m536.44 512.73a7.8 7.8 0 0 0 -3.81-1.11c-2 0-3.82 1.06-3.82 3 0 1.6 1.26 2.61 3.51 3.76l3.87 2c3.36 1.7 4.72 3.61 4.72 6.47 0 4.52-3.67 6.22-9.44 7.48a17.26 17.26 0 0 1 -7.63-2.26l-1-5.67h3.21l1.71 4.16a7.47 7.47 0 0 0 4.11 1.26 3.67 3.67 0 0 0 4-3.81c0-2-1.06-2.82-3.67-4.17l-4-2.06c-2.16-1.1-4.22-3-4.22-5.82 0-3.51 3.27-5.47 9.09-6.72a13.43 13.43 0 0 1 7.07 2.25v5h-2.66z"/><path d="m550.7 533.41-5.77.15-.25-1.76 3.51-.5v-18.3l-3.51.3-.25-1.76 6-1.55 2.51-.2v21.51l3.77.5-.26 1.76zm-2.51-34.53 3.62-.25 1.4.25.25 2.81-.55 2.41-3.56.3-1.36-.3-.3-2.81z"/><path d="m557.58 512.78v-.85l1.76-1.76h3.26v-3.26l3.27-3.27h1.3v6.88h7.58v2.26h-7.53v14.7c0 1.46.55 3 2.66 3a8.5 8.5 0 0 0 4-1.2l.85 1.71-5.87 3.26c-5.62 0-6.38-2-6.38-6.53v-15z"/><path d="m581.34 545.3v-5h4.32l5-7.58-2 .61-8.18-21.18-3.11-.51.25-1.75 5.77.15 5.27-.15.25 1.75-3.31.51 5.32 14.7.4 3.46 6-18.16-2.31-.51.26-1.75 4.41.15 4.17-.15.25 1.75-3.21.51-7.88 20.52-5.62 12.65z"/><path d="m643.12 521.21c0 7.48-4.56 11.79-12.34 13-6.68 0-11.19-5.17-11.19-12 0-7.52 4.56-11.79 12.34-13.09 6.68.05 11.19 5.26 11.19 12.09zm-11.12 10.59c4 0 6.08-4.12 6.08-9.54 0-6.37-3.07-10.64-7.43-10.64-4.07 0-6.07 4.12-6.07 9.59.03 5.72 2.99 10.59 7.42 10.59z"/><path d="m654.79 510.42h6.27v2.36h-6.27v18.52l5.77.35-.25 1.91-7.78-.15-5.77.15-.25-1.76 3.51-.5v-18.52h-4.41v-.85l1.5-1.76h2.89v-.5a9.77 9.77 0 0 1 2.76-7l4.22-4.77h6.32v4h-6.5l-1 1.35c-.7 1-1.05 2.41-1.05 5.67z"/><path d="m371.08 593.44c0-21.78 15.26-36.64 37.54-36.64a40.06 40.06 0 0 1 24.69 7.83l-5.52 7.83a33.07 33.07 0 0 0 -19.47-6.46c-16.16 0-27.4 11.14-27.4 27.4s11.24 27.4 27.4 27.4a33.07 33.07 0 0 0 19.47-6.42l5.52 7.83a40.06 40.06 0 0 1 -24.69 7.83c-22.28.04-37.54-14.82-37.54-36.6z"/><path d="m452.28 628.57h-9v-70.26h9z"/><path d="m511.92 602.77a27.71 27.71 0 0 1 5.52 7.83l.4-.1a61.64 61.64 0 0 1 -1-12.64v-39.55h9v71.26h-.8l-42.86-45.46a32.22 32.22 0 0 1 -5.52-7.83l-.3.1a62.88 62.88 0 0 1 .9 12.54v39.65h-9v-71.26h.91z"/><path d="m538 593.44c0-21.78 15.25-36.64 37.54-36.64a40.06 40.06 0 0 1 24.69 7.83l-5.52 7.83a33.08 33.08 0 0 0 -19.44-6.46c-16.15 0-27.4 11.14-27.4 27.4s11.25 27.4 27.4 27.4a33.08 33.08 0 0 0 19.48-6.42l5.52 7.83a40.06 40.06 0 0 1 -24.69 7.83c-22.29.04-37.58-14.82-37.58-36.6z"/><path d="m619.24 628.57h-9v-70.26h9z"/><path d="m678.87 602.77a27.51 27.51 0 0 1 5.52 7.83l.4-.1a61.64 61.64 0 0 1 -1-12.64v-39.55h9v71.26h-.79l-42.86-45.46a32.5 32.5 0 0 1 -5.52-7.83l-.3.1a62.88 62.88 0 0 1 .9 12.54v39.65h-9v-71.26h.9z"/><path d="m752.67 602.77a27.51 27.51 0 0 1 5.52 7.83l.4-.1a61.64 61.64 0 0 1 -1-12.64v-39.55h9v71.26h-.8l-42.79-45.46a32.22 32.22 0 0 1 -5.52-7.83l-.3.1a62.88 62.88 0 0 1 .9 12.54v39.65h-9v-71.26h.9z"/><path d="m808.32 556.8h1l32.83 71.77h-10.15l-8.73-19.67h-28.9l-8.73 19.67h-10.14zm-5.82 44.37h12.65a54.13 54.13 0 0 1 5.62.2l.1-.1a23.45 23.45 0 0 1 -3.12-5.72l-6.22-14.66a38.46 38.46 0 0 1 -2.51-8.23h-.4a37.88 37.88 0 0 1 -2.51 8.23l-6.22 14.66a23.89 23.89 0 0 1 -3.11 5.72l.1.1a54 54 0 0 1 5.62-.2z"/><path d="m886.52 566.94h-18a6.41 6.41 0 0 1 -2.61-.3l-.1.2a7 7 0 0 1 .3 2.41v59.32h-9v-59.32a7 7 0 0 1 .3-2.41l-.2-.2a5.9 5.9 0 0 1 -2.51.3h-18.06v-8.63h49.88z"/><path d="m904.28 628.57h-9v-70.26h9z"/></g><g fill="#cc112c"><path d="m85.39.62h29.56v8.63h-29.56z"/><path d="m236.64 582.26c0-23.54 13.77-42.58 34.09-53.25v-11.57c-29.21 9.57-50.16 34.27-50.16 64.82 0 15.1 3.94 26.91 10.8 37.48-18.07-3.18-25.85-15.78-25.85-37.48v-83.82h-32.42v8.63h15.49v75.19c0 30.12 19.64 45.77 49.53 46.26a76.22 76.22 0 0 0 46 24.2c1.45.21 2.83.36 4 .46v-8.57c-1.47-.25-2.5-.49-2.5-.49-28.21-7.12-48.98-31.12-48.98-61.86z" transform="translate(-173.1 -497.87)"/><path d="m305 582.26v-60.66c20 0 32 11.9 32.64 25.53l7.43 1.46 5.21-30.34-8.85-1.73-1.09 6.48c-16-8-29.37-9.49-42.69-9.49a80.76 80.76 0 0 0 -9.64.57l.06 68.18c0 13.26-1.91 21.08-8.7 29.43-7.46-8.24-8.64-17.6-8.64-29.43 0-6.31 0-36.3 0-36.3-9.91 9.58-16.11 21.49-16.11 36.3 0 31 23.93 55.19 53.13 55.19 10 0 21.59-2.45 30-8.19l-2.13-3.18c-11.38 5.81-34.49 7.17-48.62-6.05 12-8.81 18-20.09 18-37.77z" transform="translate(-173.1 -497.87)"/></g></svg>