<svg viewBox="0 0 199.29 70.45" xmlns="http://www.w3.org/2000/svg"><path d="m49.32 50a25.36 25.36 0 0 1 -10.09 2.37 11.62 11.62 0 0 1 -12.09-11.86c0-5.65 4-12.73 13.15-12.73 4 0 6.7 1.28 7.49 1.28a1.33 1.33 0 0 0 .87-.27h.52v6.1h-.75c-1-4.7-4.22-6.17-7.72-6.17-6.63 0-10 5.49-10 11.56 0 7.72 5.43 11.15 9.76 11.15a12.76 12.76 0 0 0 5.74-1.43v-4.75c0-2.15-.75-2.86-3-2.86h-1.4v-.68h10.2v.68c-1.88.11-2.64.75-2.64 2.37v5.24" fill="#0069aa" transform="translate(-26.35 -27.78)"/><path d="m68.45 52.37c-7.38 0-13.59-4.75-13.59-11.79 0-7.49 5.76-12.8 13.78-12.8 7.12 0 13.22 4.85 13.22 11.63 0 7.61-6.1 13-13.41 13m-.78-23.65c-6.64 0-9.27 6.17-9.27 10.69 0 7.05 4.78 12 10.85 12s9.07-5.45 9.07-10.8c0-7-4.44-11.93-10.65-11.93z" fill="#0069aa" transform="translate(-26.35 -27.78)"/><path d="m112.56 28.34v.72c-2.53 0-3.43 1.05-3.43 3.46v10.17c0 4.67-3 9.68-11.15 9.68-7.19 0-10.88-4.1-10.88-9.49v-11c0-2.41-.68-2.79-3.24-2.82v-.72h9.68v.72h-.34c-2.07 0-3 .56-3 2.75v10.47c0 5.08 3 8.13 8.59 8.13 4.25 0 8.59-1.77 8.59-8.17v-8.78c0-3.61-.57-4.25-3.69-4.4v-.72h8.85" fill="#0069aa" transform="translate(-26.35 -27.78)"/><path d="m137.3 34.52a8.79 8.79 0 0 0 -8.59-5.8c-6.29 0-10.21 4.55-10.21 10.88 0 6.82 4.9 11.83 10.62 11.83a10 10 0 0 0 9.19-5.57h.69a25.7 25.7 0 0 1 -2.41 5.49c-2.41-.34-4.07 1-8.51 1-7.65 0-13.15-5-13.15-12 0-7.31 5.65-12.58 13.52-12.58 4.75 0 6.78 1.5 8 1.5.42 0 .6-.11.68-.22h.56l.34 5.46h-.71" fill="#0069aa" transform="translate(-26.35 -27.78)"/><path d="m147.91 40.58v7.15c0 2.46.5 3.32 3 3.32h.09v.72h-9.45v-.72h.22c2.22 0 3-.6 3-2.75v-16.57c0-2-.64-2.52-2.71-2.67v-.72h9v.72c-2.67 0-3.13.71-3.13 3.61v6.56h14.77v-7.42c0-2-.64-2.75-3-2.75h-.7v-.72h9.68v.72c-2.26.07-2.86.75-2.86 3.08v15.64c0 2.67.75 3.27 3 3.27h.37v.72h-10.65v-.72h1.16c2.45 0 3-.86 3-2.83v-7.64z" fill="#0069aa" transform="translate(-26.35 -27.78)"/><path d="m189.83 43.29h-.71c-.31-2.67-1-3-2.57-3h-6.36v8c0 1.73.64 2.07 2 2.07h5.81c2.64 0 3.43-1 4.37-4.26h.68l-.61 5.62h-20v-.72h1.05c3 0 3.54-.83 3.54-3.09v-15.84c0-2.11-.49-3-3-3h-.83v-.72h18.1l.3 5.24h-.68c-.49-3.21-1.43-3.88-2.78-3.88h-7.95v9.29h6.74c1.36 0 2-.64 2.19-2.82h.71v7.15" fill="#0069aa" transform="translate(-26.35 -27.78)"/><path d="m203.16 48.22c0 2.27.9 2.83 3 2.83h.84v.72h-10.62v-.72h.62c2.23 0 3-.6 3-3.13v-15.85c0-2.34-.64-3-2.82-3h-.83v-.72c.9 0 3.21-.15 4.75-.22s2.3-.12 4.74-.12c7 0 10.1 2.86 10.1 6.71 0 2.82-1.93 5.19-5 6.1a44.12 44.12 0 0 1 4.29 3.92l3 3c2.22 2.22 4.51 3.62 7.42 3.8v.68c-6.6.3-8.29-1.13-11.64-4.48l-2.49-2.49a27.28 27.28 0 0 0 -3.88-3.35c-.94 0-1.54.07-2.56.07-.83 0-1.32 0-1.92-.07v6.36m0-7.07a16.67 16.67 0 0 0 2.33.07c4.19 0 6.94-1.77 6.94-6.29 0-3.5-1.59-6.21-7.39-6.21a16.61 16.61 0 0 0 -1.88.07z" fill="#0069aa" transform="translate(-26.35 -27.78)"/><g fill="#5c6f7b"><path d="m0 54.23h33.28v.56h-33.28z"/><path d="m161.77 54.23h33.28v.56h-33.28z"/><path d="m65.58 84.31a6.79 6.79 0 0 1 6.74-6.93 6.16 6.16 0 0 1 5.05 2.25l-.91.74a4.89 4.89 0 0 0 -4.14-1.85c-3.26 0-5.4 2.51-5.4 5.79s2.14 5.77 5.4 5.77a5.22 5.22 0 0 0 4.4-2l.91.75a6.33 6.33 0 0 1 -5.31 2.38 6.77 6.77 0 0 1 -6.74-6.91" transform="translate(-26.35 -27.78)"/><path d="m84.92 84.28a6.91 6.91 0 1 1 6.94 6.94 6.9 6.9 0 0 1 -6.94-6.94m12.51 0a5.6 5.6 0 1 0 -11.2 0 5.6 5.6 0 1 0 11.2 0z" transform="translate(-26.35 -27.78)"/><path d="m81.24 39.67h1.27v23.51h-1.27z"/><path d="m92.61 39.67h1.27v23.51h-1.27z"/><path d="m136 90.08a5.67 5.67 0 0 0 4.69-2.08l.85.75a6.82 6.82 0 0 1 -5.54 2.47 6.92 6.92 0 0 1 -.26-13.84c4 0 6.58 3.15 6.51 7.2h-11.86a5.34 5.34 0 0 0 5.64 5.5m4.97-6.55c-.19-2.73-1.89-5-5.21-5a5.27 5.27 0 0 0 -5.34 5z" transform="translate(-26.35 -27.78)"/><path d="m162.15 77.67v1.07h-3a4.26 4.26 0 0 1 1.44 3.26 4.64 4.64 0 0 1 -5 4.66 5.25 5.25 0 0 1 -2.59-.66 1.63 1.63 0 0 0 -1.57 1.6c0 1 .72 1.49 1.92 1.59l3.46.33c3.84.36 5.57 1.53 5.57 4 0 2.93-3 4.62-6.94 4.62s-6.65-1.59-6.65-4.36c0-2 1.44-3.13 3.46-3.71a2.4 2.4 0 0 1 -2-2.38 2.47 2.47 0 0 1 1.83-2.35 4.36 4.36 0 0 1 -1.56-3.34c0-2.7 2.15-4.62 5.08-4.62a5.57 5.57 0 0 1 1.83.29zm-12.09 16.16c0 2.12 1.86 3.29 5.35 3.29 3.22 0 5.67-1.21 5.67-3.52 0-1.83-1-2.64-4.46-2.9l-2.81-.19c-2.15.42-3.75 1.43-3.75 3.32zm9.29-11.83a3.41 3.41 0 0 0 -3.75-3.55c-2.37 0-3.81 1.4-3.81 3.55s1.44 3.58 3.81 3.58a3.43 3.43 0 0 0 3.75-3.58z" transform="translate(-26.35 -27.78)"/><path d="m176 90.08a5.63 5.63 0 0 0 4.68-2.08l.85.75a6.79 6.79 0 0 1 -5.5 2.48 6.92 6.92 0 0 1 -.27-13.84c4.05 0 6.59 3.15 6.52 7.2h-11.89a5.34 5.34 0 0 0 5.64 5.5m4.97-6.56c-.2-2.73-1.89-5-5.22-5a5.27 5.27 0 0 0 -5.33 5z" transform="translate(-26.35 -27.78)"/></g></svg>