<svg viewBox="0 0 514.08 152.08" xmlns="http://www.w3.org/2000/svg"><g fill="#002b5c" transform="translate(-17.96 -11.46)"><path d="m170 49c-2.22 0-4.54.22-6.76.22-3.69 0-7.49-.11-11.18-.22v2.89c3.48 0 5.8.44 7.28 1.78s2 3.77 2 7.66c0 15.22-.74 30.33-1.16 45.55-.42 14.88-5.06 16.77-12.56 16.77v2.89c4.65-.11 9.4-.22 14-.22 4.33 0 8.76.22 13.09.22v-2.89c-4.23 0-6.86-.33-8.55-1.89s-2.22-4.55-2.22-10c0-1.56.11-5.56.11-7l.84-40.22h.21c10 21 20.16 41.77 29.13 63h2.11c.84-2.89 2.95-8.33 4.12-11l24.9-54.43h.21l.74 53c0 4.33-.84 6.44-2.74 7.55s-4.43 1-8.13 1v2.89c5.17-.11 10.24-.22 15.41-.22 5.8 0 11.61.22 17.41.22v-2.89c-10.55 0-11.29-2.44-11.5-10.77-.42-16.78-1.37-35.44-1.37-53 0-3.67.63-5.56 2-6.67s3.8-1.33 7.39-1.33v-2.89c-3.06 0-6.23.22-9.29.22-2.85 0-5.8-.11-8.65-.22-8.76 21.11-19 41.55-28.49 62.32z"/><path d="m295.75 45.86h-1.75c-1.48 2.56-3.91 3.78-6.12 4.89a12.42 12.42 0 0 1 .21 2.89c0 3.33-1.37 7.44-2.22 10l-13.51 39.66c-1.37 4.11-2.64 8.45-4.32 12.45-2.64 6.22-3.8 7.11-10.24 7.88v2.89c4.22-.11 8.55-.22 12.77-.22s8.34.22 12.45.22v-2.89h-2.43c-3.69-.22-7.17 0-7.17-5.22 0-3.44 1.48-8.55 2.85-13.22l2.32-7.77h24.8l5.28 16.1a28.69 28.69 0 0 1 1.58 6.45c0 3.11-3.17 3.66-5.8 3.66h-1.9v2.89c5.17-.11 10.23-.22 15.4-.22 4 0 8.13.22 12.14.22v-2.89c-3.38 0-6.54-.77-8.13-3-1.68-2.44-4.53-11.88-6-16.21zm-5.49 14.33h.22l11.29 32.66h-21.77l10.23-32.66z" fill-rule="evenodd"/><path d="m349.18 115.63c0 7.77-4 7.88-9.61 8v2.89c5.28-.11 10.24-.22 15.3-.22 4.65 0 9.19.22 14.25.22v-2.89c-5.59-.11-9.6-.22-9.6-8v-55.77c0-7.78 4-7.89 9.6-8v-2.86c-5.28.11-10.13.22-15 .22s-9.61-.11-14.57-.22v2.89c5.6.11 9.61.22 9.61 8v55.77z"/><path d="m452.79 63.3c0-10.89 3.48-11.44 9.92-11.44v-2.86c-4.12 0-8.13.22-12.24.22-4.86 0-9.82-.11-14.67-.22v2.89c10.55.11 12.77 3.22 12.77 13.44v44.22c-7.18-8.23-17.1-19.22-26.07-29.67-12-14-21.84-24.1-26.17-30.88-2.85 0-5.81.22-8.66.22-3.27 0-6.43-.11-9.7-.22v2.89c9.07 0 13 3.44 13 13v44.66c0 14.1-4.86 14.1-11.3 14.1v2.89c4.65-.11 9.4-.22 14-.22s9.39.22 14 .22v-2.89c-11.4 0-12.56-3.11-12.56-18.44v-41.46l55.19 63.76h2.43v-64.21z"/><path d="m493 52.53h12.34c10.56 0 15.31 3.11 16.89 13.55l2.11-.56v-16.52c-10.24.22-20.26.22-30.39.22-7.08 0-14.25 0-21.32-.22v2.89c8.33.33 10 .78 10 9.89v49.32c0 10.78-.84 12.55-10 12.55v2.89c7.81-.22 15.62-.22 23.42-.22 10.56 0 21.11.22 31.67.22a151.45 151.45 0 0 1 4.32-17l-2.53-.45c-4.12 11.89-8.76 13.33-19.1 13.89h-6.55c-10.44 0-10.86-3.11-10.86-15.44v-18.91h11.29c8.12 0 11.5 0 11.5 10.66h2.11c.11-3.55-.42-8.77-.42-12.33 0-4 .21-10 .42-12.44h-2.11c-.32 2.56-.32 9.56-8.86 9.56h-13.93z"/><path d="m158.71 29.92c0 2.81-.18 3-1.54 3.23l-1.36.15a.87.87 0 0 0 0 1.06c2.11-.07 3.68-.1 5.13-.1s2.86 0 4.82.1a1 1 0 0 0 0-1.06l-1.2-.15c-1.36-.21-1.54-.42-1.54-3.23v-13.29c0-.79.09-.88.81-.88h1.81c2.26 0 2.69 1.42 3.2 3.35.15.24 1 .18 1.11-.09a21.46 21.46 0 0 1 .46-5.19.64.64 0 0 0 -.46-.21.75.75 0 0 0 -.39.09c-.27.63-.72.66-2.71.66h-11.22c-2.29 0-2.38-.12-2.53-.63a.69.69 0 0 0 -.42-.12.72.72 0 0 0 -.42.15 38.84 38.84 0 0 1 -1 5.13.85.85 0 0 0 1.12.27c.9-2.2 1.53-3.41 3.73-3.41h1.89c.73 0 .73.15.73.88v13.29z"/><path d="m190.88 24.71c1.27 0 1.27 0 1.27.87v4.34c0 2.81-.15 3-1.54 3.29l-.66.09a.87.87 0 0 0 0 1.06c1.44-.07 2.92-.1 4.43-.1s2.86 0 4.37.1a.87.87 0 0 0 0-1.06l-.72-.12c-1.39-.24-1.57-.45-1.57-3.26v-11.21c0-2.81.18-3 1.57-3.29l.6-.09a.87.87 0 0 0 0-1.06c-1.39.06-2.77.09-4.25.09s-2.93 0-4.58-.09a.84.84 0 0 0 0 1.06l.81.12c1.39.24 1.54.45 1.54 3.26v3.49c0 .88 0 .91-1.27.91h-6.27c-1.24 0-1.27 0-1.27-.91v-3.49c0-2.81.18-3 1.48-3.29l.63-.09a.84.84 0 0 0 0-1.06c-1.32.06-2.83.09-4.19.09s-3 0-4.49-.09a.87.87 0 0 0 0 1.06l.72.09c1.36.27 1.54.48 1.54 3.29v11.21c0 2.81-.18 3-1.54 3.29l-.72.09a.87.87 0 0 0 0 1.06c1.54-.07 3-.1 4.49-.1s2.87 0 4.59.1a.87.87 0 0 0 0-1.06l-1-.12c-1.36-.24-1.54-.45-1.54-3.26v-4.34c0-.84 0-.87 1.27-.87z"/><path d="m212.82 16.93c0-1.12 0-1.18 1-1.18h2.41a3.94 3.94 0 0 1 3 .94 6.91 6.91 0 0 1 1.14 2.38c.31.27 1 .21 1.12-.12-.15-2-.36-4.19-.39-4.68-.39.06-2.11.09-4 .09h-6.39c-1.45 0-2.93 0-4.35-.09a.77.77 0 0 0 -.06 1.06l.76.15c1.35.24 1.54.45 1.54 3.2v11.24c0 2.78-.19 3-1.54 3.17l-1.42.21a.87.87 0 0 0 0 1.06c2.26-.07 3.74-.1 5.19-.1h3.92c2.47 0 5.36 0 7 .1a17.22 17.22 0 0 0 1.27-4.83.74.74 0 0 0 -1.12-.15c-1.66 3.41-2.68 3.5-5.31 3.5-2.2 0-2.77-.24-3.16-.79a5.46 5.46 0 0 1 -.48-2.86v-3.59c0-.9 0-.93.84-.93h2.08c1.57 0 1.9.24 2.23 1.68l.15.76a.87.87 0 0 0 1.12 0c-.06-1-.09-2.05-.09-3.2s0-2.23.09-3.19c-.15-.27-.91-.27-1.12 0l-.15.75c-.33 1.45-.66 1.66-2.23 1.66h-2.08c-.81 0-.84-.06-.84-.91v-5.33z"/><path d="m244.23 26.24c0 3.29.67 5.52 2.23 6.82a9.07 9.07 0 0 0 6 1.69 8.18 8.18 0 0 0 6-2.17c1.65-1.84 1.93-4.44 1.93-7.27v-3.38a21.12 21.12 0 0 1 .45-5.52c.27-.63.84-.81 1.63-1l.54-.12a.92.92 0 0 0 0-1c-1.15.06-2.26.09-3.38.09s-2.41 0-4-.09a.92.92 0 0 0 0 1l.82.15c.81.15 1.47.33 1.74 1a20.56 20.56 0 0 1 .46 5.52v3.65c0 4.13-1.18 7.51-5 7.51-4.58 0-5-3.89-5-7.42v-7c0-2.81.18-3 1.53-3.29l.73-.12a.83.83 0 0 0 0-1c-1.45.06-2.93.09-4.41.09s-3 0-4.4-.09a.73.73 0 0 0 -.06 1l.76.15c1.35.24 1.53.45 1.53 3.26v7.53z"/><path d="m288.08 21.93a21.27 21.27 0 0 1 .45-5.52c.27-.63.85-.81 1.63-1l.54-.09a.93.93 0 0 0 0-1.06c-1.17.06-2.26.09-3.37.09s-2.41 0-4-.09a1 1 0 0 0 0 1.06l.81.12c.82.15 1.48.33 1.75 1a21.27 21.27 0 0 1 .45 5.52v4.16a4.34 4.34 0 0 1 -.12 1.36c-.69-.69-1.54-1.75-2.89-3.32l-2.54-3c-2.71-3.23-4.67-5.52-5-6.88-.63.06-1.51.09-2.53.09-1.24 0-2.75 0-4.17-.09-.3.09-.33.82-.12 1.06l.85.12c1.05.21 1.51.51 1.72 1a6.35 6.35 0 0 1 .21 2.57v7.67a23 23 0 0 1 -.42 5.51c-.27.64-.85.82-1.66 1l-.51.09a.93.93 0 0 0 0 1.06c1.14-.07 2.26-.1 3.37-.1s2.41 0 4 .1a1 1 0 0 0 0-1.06l-.84-.12c-.79-.15-1.48-.33-1.75-1a21.13 21.13 0 0 1 -.45-5.51v-5.82a5.34 5.34 0 0 1 .15-1.93 35.73 35.73 0 0 1 3.36 3.86l7 8.62c1.42 1.75 2.41 3.29 2.44 3.29a2.34 2.34 0 0 0 1.78-.7c-.06-1-.06-2.89-.06-4.85v-7.21z"/><path d="m303.88 18.77c0-2.84.18-3 1.57-3.29l.84-.15a.84.84 0 0 0 0-1.06c-1.62.06-3.13.09-4.55.09s-2.95 0-4.58-.09a.87.87 0 0 0 0 1.06l.84.15c1.39.24 1.57.45 1.57 3.29v11.09c0 2.84-.18 3-1.57 3.29l-.84.15a.87.87 0 0 0 0 1.06c1.63-.07 3.13-.1 4.58-.1s2.9 0 4.52.1a.84.84 0 0 0 0-1.06l-.84-.15c-1.39-.24-1.57-.45-1.57-3.29v-11.09z"/><path d="m328.28 21.57a35.76 35.76 0 0 1 2.5-5.07 2.17 2.17 0 0 1 1.66-1.05l.78-.15c.21-.18.18-.91-.06-1-.87.06-1.78.09-2.8.09s-2.29 0-3.71-.09c-.36.15-.36.79-.12 1l.87.21c.73.15.82.3.82.51a3.85 3.85 0 0 1 -.31 1.09c-.36 1-1.59 4.4-2.38 6.3l-1.11 2.83c-.37.91-.73 1.72-1 2.24-.21-.52-.51-1.21-.93-2.33l-2.66-6.78a25.12 25.12 0 0 1 -1.2-3.32c0-.27.21-.45.75-.57l.91-.18c.18-.27.21-.85 0-1-1.84.06-3.14.09-4.53.09-1.56 0-2.56-.06-4.1-.09a.77.77 0 0 0 -.12 1l.85.21c1.44.36 1.38.24 2.62 3.29l4.88 12.27c.43 1 .94 2.62 1.27 3.44a1.25 1.25 0 0 0 .82.24 2 2 0 0 0 1-.24c.69-1.69 1.51-4.07 3.05-7.72l2.2-5.22z"/><path d="m344.62 16.93c0-1.12 0-1.18 1-1.18h2.38a3.91 3.91 0 0 1 3 .94 6.72 6.72 0 0 1 1.15 2.38c.3.27 1 .21 1.12-.12-.15-2-.37-4.19-.4-4.68-.39.06-2.11.09-4 .09h-6.39c-1.45 0-2.92 0-4.34-.09a.77.77 0 0 0 -.06 1.06l.75.15c1.36.24 1.54.45 1.54 3.2v11.24c0 2.78-.18 3-1.54 3.17l-1.41.21a.84.84 0 0 0 0 1.06c2.26-.07 3.73-.1 5.18-.1h3.92c2.47 0 5.37 0 7 .1a17.24 17.24 0 0 0 1.26-4.83.73.73 0 0 0 -1.11-.15c-1.66 3.41-2.69 3.5-5.31 3.5-2.2 0-2.77-.24-3.17-.79a5.46 5.46 0 0 1 -.48-2.86v-3.59c0-.9 0-.93.85-.93h2.08c1.56 0 1.9.24 2.23 1.68l.15.76a.86.86 0 0 0 1.11 0c-.06-1-.09-2.05-.09-3.2s0-2.23.09-3.19c-.15-.27-.9-.27-1.11 0l-.15.75c-.33 1.45-.67 1.66-2.23 1.66h-2.08c-.82 0-.85-.06-.85-.91v-5.33z"/><path d="m363.31 29.92c0 2.78-.18 3-1.54 3.23l-.81.15a.87.87 0 0 0 0 1.06c1.57-.07 2.89-.1 4.4-.1s2.84 0 4.43.1a.93.93 0 0 0 0-1.06l-.81-.15c-1.36-.24-1.54-.45-1.54-3.23v-3.71c0-.6.06-.66 1.12-.66a1.54 1.54 0 0 1 1.6 1.06 37.12 37.12 0 0 0 2.35 4.67 6.16 6.16 0 0 0 5.85 3.17 7 7 0 0 0 2.38-.28.57.57 0 0 0 -.12-.78 3.69 3.69 0 0 1 -2-.84c-1.45-1.24-2.68-3.5-4.68-7.54-.15-.33-.15-.51.16-.67 1.38-.69 3.19-1.84 3.19-4.52a4.92 4.92 0 0 0 -2.65-4.46 12.62 12.62 0 0 0 -5.91-1.09c-2.87 0-5.22.12-7.48.27a.69.69 0 0 0 -.06 1.06l.82.12c1.26.18 1.32.51 1.32 3.53v10.67zm4.13-12.72c.06-1.45.06-1.54 1.3-1.54 2.35 0 3.95 1.75 3.95 4.46a4.36 4.36 0 0 1 -1.09 3.26 2.89 2.89 0 0 1 -2.29.84c-1.78 0-1.87-.09-1.87-1.14z" fill-rule="evenodd"/><path d="m399.42 28.63c0-3.32-2.39-5.07-4.25-6.06l-2-1.06c-1.5-.78-2.74-2.05-2.74-3.44a2.81 2.81 0 0 1 3.08-2.8c2.17 0 3.46 2.2 4 3.74.27.3 1 .27 1.17-.09a14.87 14.87 0 0 0 -.54-4.32 7.55 7.55 0 0 1 -1-.24 12.24 12.24 0 0 0 -3.43-.48c-4.37 0-7 2.35-7 5.76 0 3 2.38 4.79 4.55 5.88 1.81.9 4.1 2.35 4.1 4.79a3 3 0 0 1 -3.25 3.05c-2.56 0-4.58-2.77-5.19-4.73a.73.73 0 0 0 -1.14.09c0 2.05.39 4.22 1 4.88a10.5 10.5 0 0 0 5.13 1.15c4.55 0 7.6-2.42 7.6-6.12z"/><path d="m413.14 18.77c0-2.84.18-3 1.57-3.29l.84-.15a.84.84 0 0 0 0-1.06c-1.62.06-3.13.09-4.55.09s-2.95 0-4.58-.09a.87.87 0 0 0 0 1.06l.84.15c1.39.24 1.57.45 1.57 3.29v11.09c0 2.84-.18 3-1.57 3.29l-.84.15a.87.87 0 0 0 0 1.06c1.63-.07 3.13-.1 4.58-.1s2.9 0 4.52.1a.86.86 0 0 0 0-1.06l-.84-.15c-1.39-.24-1.57-.45-1.57-3.29v-11.09z"/><path d="m429.33 29.92c0 2.81-.18 3-1.53 3.23l-1.36.15a.87.87 0 0 0 0 1.06c2.11-.07 3.68-.1 5.13-.1s2.86 0 4.82.1a1 1 0 0 0 0-1.06l-1.21-.15c-1.35-.21-1.53-.42-1.53-3.23v-13.29c0-.79.09-.88.81-.88h1.81c2.26 0 2.68 1.42 3.2 3.35.15.24 1 .18 1.11-.09a21.52 21.52 0 0 1 .45-5.19.64.64 0 0 0 -.45-.21.75.75 0 0 0 -.39.09c-.27.63-.72.66-2.71.66h-11.22c-2.29 0-2.38-.12-2.53-.63a.74.74 0 0 0 -.85 0 37 37 0 0 1 -1 5.13.84.84 0 0 0 1.11.27c.91-2.2 1.54-3.41 3.74-3.41h1.87c.72 0 .72.15.72.88v13.32z"/><path d="m457.83 27.81a6.69 6.69 0 0 1 1.09-3.89l1.9-3.44a33.53 33.53 0 0 1 2.65-4.28 2.48 2.48 0 0 1 1.45-.72l.78-.15c.25-.21.25-.94-.12-1.06-.87.06-1.81.09-2.95.09s-2.17 0-3.38-.09c-.3.15-.27.91 0 1.06l.69.12c.73.12 1 .24 1 .42a12.81 12.81 0 0 1 -1.57 3.5c-.81 1.54-1.66 3.29-2.53 4.76-.36-.75-.94-2-1.39-2.95l-1.45-3.18a7.52 7.52 0 0 1 -.78-2.11s.18-.15.72-.27l1-.24c.27-.24.21-.94-.06-1.06-1 .06-2.56.09-4.4.09s-2.9 0-4.26-.09c-.36.09-.39.82-.12 1.06l1 .18c1.05.21 1.33.66 1.93 1.9l3.59 7.42a6.18 6.18 0 0 1 .81 3.58v1.51c0 2.81-.18 3-1.54 3.23l-1 .15a.87.87 0 0 0 0 1.06c1.78-.07 3.28-.1 4.73-.1s2.93 0 4.89.1a1 1 0 0 0 0-1.06l-1.21-.15c-1.35-.21-1.54-.42-1.54-3.23v-2.16z"/><path d="m494.07 13.88a10.38 10.38 0 0 0 -10.76 10.58c0 6.31 4.4 10.29 10.46 10.29 6.48 0 10.89-3.95 10.89-10.53 0-6.12-4.31-10.34-10.59-10.34zm5.76 10.74c0 4.88-1.53 8.74-5.48 8.74-4.92 0-6.22-5.91-6.22-9.59 0-5 2-8.5 5.7-8.5s6 4.19 6 9.35z" fill-rule="evenodd"/><path d="m518.78 17c0-1.18 0-1.24 1-1.24h2.35c1.54 0 2.44.36 3 1a7.14 7.14 0 0 1 .87 2.34c.36.24 1 .21 1.14-.12-.06-2-.06-4.19-.06-4.71-.42.06-2.14.09-4.07.09h-6.33c-1.45 0-2.95 0-4.25-.09-.33.12-.33.88-.06 1.06l.6.09c1.36.27 1.54.48 1.54 3.29v11.21c0 2.81-.18 3-1.54 3.23l-1 .15a.87.87 0 0 0 0 1.06c1.81-.07 3.31-.1 4.7-.1s2.93 0 4.79.1a.93.93 0 0 0 0-1.06l-1.11-.15c-1.36-.21-1.54-.42-1.54-3.23v-4.07c0-.81 0-.9.84-.9h2.35c1.6 0 1.9.24 2.23 1.69l.15.72a.9.9 0 0 0 1.14 0c-.05-.91-.08-2-.08-3.14s0-2.26.08-3.22a.9.9 0 0 0 -1.14 0l-.15.72c-.33 1.48-.63 1.69-2.23 1.69h-2.33c-.81 0-.84-.09-.84-.9v-5.51z"/><path d="m73.26 130.57h-55s36.82 12.35 55 32.93a.4.4 0 0 0 .34 0c18.19-20.58 55-32.93 55-32.93z"/></g><path d="m.29 29.32h110.37v85.07h-110.37z" fill="#79bde8"/><path d="m0 0h110.37v25.01h-110.37z" fill="#002b5c"/><g fill="#fff" transform="translate(-17.96 -11.46)"><path d="m95.27 123.55v-52.62c4.09 0 20.07-10.81 25.3-25.64v50.63c0 4.56-2.3 6.82-5.31 10.55-6.27 7.78-11.41 11.17-20 17.08z"/><path d="m26.29 123.55v-52.62c4.09 0 20.07-10.81 25.3-25.63v50.62c0 4.56-2.3 6.82-5.31 10.55-6.27 7.78-11.41 11.17-20 17.08z"/><path d="m55 142v-68.48c5.94 0 29.19-14 36.79-33.32v65.8c0 5.93-3.34 8.87-7.72 13.72-9.07 10.13-16.56 14.54-29.07 22.28z" stroke="#fff" stroke-miterlimit="3.86" stroke-width=".56"/><path d="m34.75 32.87c-2.73 0-3-.74-3-2.59v-15.73h-.45l-6.95 3v.72a9.91 9.91 0 0 1 2.26-.69c1.08 0 1.08 1.21 1.08 1.9v10.63c0 1.71-.09 2.79-3.29 2.76v.66h10.35z"/><path d="m55.61 17.59a2.25 2.25 0 0 1 2.26-2.24c2.05 0 2.46 2 2.46 3.37a4.48 4.48 0 0 1 -1.13 3.17c-.28-.14-3.59-1.74-3.59-4.3zm2.71-3c-4.42 0-6.27 2.35-6.27 4.91 0 2.29 1.77 4 3.84 5.13-1.85.58-4.14 1.66-4.14 4.67s2.79 4.63 5.77 4.63c3.94 0 6.48-2.15 6.48-5.6 0-2.56-1.77-4.49-4.14-5.9 1.52-.5 3.75-1.49 3.75-3.84 0-1.57-1.1-4-5.29-4zm-3.23 14.61a6.29 6.29 0 0 1 1.4-4.11c1.88 1.24 3.67 2.43 3.67 4.69 0 .72 0 3.23-2.45 3.23-1.79 0-2.62-1.82-2.62-3.81z" fill-rule="evenodd"/><path d="m92.36 14.55c-8.27.83-12.19 6.13-12.19 11.15 0 6.62 3.84 8.19 6.32 8.19 5 0 6-4.69 6-6.18 0-4.74-3.09-5.79-5-5.79a5.22 5.22 0 0 0 -2.48.47 8.71 8.71 0 0 1 7.33-7.12v-.72zm-4 14.68c0 2.18 0 3.92-1.68 3.92s-2.18-1.71-2.18-7.15a16.35 16.35 0 0 1 .25-2.48 1.56 1.56 0 0 1 1.25-.36c1.91 0 2.35 2.1 2.35 6.07z" fill-rule="evenodd"/><path d="m111.93 18.39h7.67l1.19-3.51h-8.89l-2.67 9.52a17.64 17.64 0 0 1 5.93 1.1c1.46.64 3 2 3 3.7a2.72 2.72 0 0 1 -2.76 2.87c-1.74 0-3.31-2.4-5.21-2.4a1.61 1.61 0 0 0 -1.71 1.66c0 1.57 1.82 2.42 3.94 2.42 5 0 7.89-3 7.89-6.65a5.86 5.86 0 0 0 -2.92-5.1c-1.85-1-3.56-1.21-6.07-1.35l.61-2.23z"/></g></svg>