<svg viewBox="0 0 54 25.87" xmlns="http://www.w3.org/2000/svg"><g fill="#cb2027"><path d="m7.55 6.74h.02l2.11 5.66h2.13v-7.74h-1.51v5.36h-.02l-2.06-5.36h-2.19v7.74h1.52z"/><path d="m15.78 11.51c-.92 0-1-.86-1-2.85s.11-2.84 1-2.84c.48 0 .66.39.66 1.42h1.56c.06-1.66-.6-2.58-2.25-2.58-2.67 0-2.67 2-2.67 4s0 4 2.67 4c1.51 0 2.33-.66 2.33-2.73h-1.56c0 .61 0 1.58-.74 1.58" transform="translate(0 -.13)"/><path d="m26.33 10.42c0-2.43-3.26-2.3-3.26-3.77a.76.76 0 0 1 .84-.83c.65 0 .75.59.75 1.17h1.57c.11-1.62-.67-2.33-2.25-2.33-2 0-2.55 1-2.55 2.18 0 2.31 3.26 2.39 3.26 3.79a.78.78 0 0 1 -.82.88c-.89 0-.92-.63-.92-1.37h-1.62c-.08 1.34.29 2.52 2.3 2.52 1.23 0 2.7-.23 2.7-2.24" transform="translate(0 -.13)"/><path d="m28.68 12.4h1.62v-6.45h1.8v-1.29h-5.22v1.29h1.8z"/><path d="m33.76 4.79-2.14 7.74h1.59l.44-1.71h2.21l.43 1.71h1.71l-2.1-7.74zm.24 4.84.74-3.35.78 3.35z" transform="translate(0 -.13)"/><path d="m40.91 12.4v-6.45h1.81v-1.29h-5.23v1.29h1.81v6.45z"/><path d="m47.78 11.21h-2.69v-2.26h2.4v-1.19h-2.4v-1.91h2.61v-1.19h-4.23v7.74h4.31z"/><path d="m9.18 19c0 .83 0 2-1.29 2s-1.29-1.18-1.29-2v-4h-.6v4.4c0 1.64.86 2.07 1.86 2.07s1.87-.47 1.87-2.07v-4.4h-.55z" transform="translate(0 -.13)"/><path d="m14.84 20.42-.02.02-2.56-5.56h-.87v6.33h.57v-5.6l.01-.02 2.58 5.62h.85v-6.33h-.56z"/><path d="m17.17 14.88h.56v6.33h-.56z"/><path d="m21.01 20.55h-.02l-1.5-5.67h-.6l1.77 6.33h.7l1.75-6.33h-.54z"/><path d="m24.82 18.2h2.2v-.48h-2.2v-2.37h2.3v-.47h-2.87v6.33h2.93v-.47h-2.36z"/><path d="m30.77 18.05c.85-.2 1-.73 1-1.51 0-1.12-.3-1.52-1.52-1.52h-1.76v6.33h.56v-3.08h1.06c1.21 0 1 1.22 1 1.49a14.08 14.08 0 0 0 .09 1.58h.53c0-.24-.06-.49-.06-.73 0-2.27-.05-2.37-.94-2.56m-.73-.25h-.91v-2.32h1.14c.66 0 1 .17 1 1-.04 1.1-.43 1.32-1.23 1.32z" transform="translate(0 -.13)"/><path d="m35 17.82c-.72-.51-1.19-.54-1.19-1.48 0-.74.43-1 1.11-1 .86 0 1.06.48 1.08 1.25h.56c0-.91-.28-1.72-1.59-1.72-1 0-1.73.45-1.72 1.55 0 .63.06 1 1.29 1.76.91.56 1.48.81 1.48 1.67a1 1 0 0 1 -1.12 1.15c-1.13 0-1.18-.73-1.18-1.43h-.58c0 1.24.5 1.91 1.74 1.91a1.5 1.5 0 0 0 1.68-1.69c0-1.23-.8-1.39-1.58-2" transform="translate(0 -.13)"/><path d="m38.14 14.88h.56v6.33h-.56z"/><path d="m39.91 15.35h1.55v5.86h.56v-5.86h1.54v-.47h-3.65z"/><path d="m47.79 14.88-1.52 3.15-1.44-3.15h-.64l1.79 3.7v2.63h.57v-2.63l1.8-3.7z"/></g></svg>