<svg viewBox="0 0 436.95 281.97" xmlns="http://www.w3.org/2000/svg"><g transform="translate(-63.31 -64.51)"><path d="m106.12 222.63c-.92 6-.91 17.18-.91 17.18 25.46 0 36.43-19.57 60.09-19.57 18.5 0 43.43 20 58.93 20 21.94 0 36.78-20 61.73-20 18.29 0 38.5 19.78 58.72 19.78 23.23 0 39.15-18.71 61.94-18.49 14.2.13 36.39 14.54 48.9 18.28.1-8.18-.82-17.39-.82-17.39-9.19-2.47-33.45-18.75-49.58-18.32-21.72.58-39.37 18.11-60 18.5-22.58.43-40.65-20.22-59.15-20-22.15.26-45.6 20-61.73 20.43-20 .53-37.85-20.18-58.71-20-25.18.21-38.28 19.45-59.41 19.6z" fill="#00afdb"/><g fill="#00457c"><path d="m104 305.54a26.06 26.06 0 0 1 -4.56 7.51 19.56 19.56 0 0 1 -7.11 5.29 19.84 19.84 0 0 1 -7.85 1.54q-9.85 0-15.74-7.17-5.41-6.61-5.42-16.46a24.61 24.61 0 0 1 8-18.49 18.77 18.77 0 0 1 6.17-3.89 19.83 19.83 0 0 1 7.38-1.4q7.72 0 12.62 4.55a24.79 24.79 0 0 1 8.32 18.89 25.74 25.74 0 0 1 -1.76 9.63zm-19.47-29.92q-7.11 0-10.21 7.51a34.76 34.76 0 0 0 -2.18 13.24q0 20.29 12.39 20.3a10 10 0 0 0 9.22-5q3.1-5.12 3.11-16.29 0-19.77-12.33-19.77z" fill-rule="evenodd"/><path d="m130.55 315.79a13.25 13.25 0 0 1 -9.17 4 12.19 12.19 0 0 1 -7.73-2.56 13.08 13.08 0 0 1 -4.4-6.49 20 20 0 0 1 -.87-6.24 18.32 18.32 0 0 1 3.67-11.64 13 13 0 0 1 10.77-5 11.58 11.58 0 0 1 6.84 2.09c2.05 1.45 3.08 3.13 3.08 5a3.45 3.45 0 0 1 -1 2.48 3.35 3.35 0 0 1 -2.52 1q-3.19 0-4.28-4.45a4.69 4.69 0 0 0 -1.3-2.31c-.26-.2-.48-.35-.64-.46a4.06 4.06 0 0 0 -1.61-.27q-3.51 0-5 4.14a19.26 19.26 0 0 0 -1.05 6.79q0 6.09 2.47 9.62a7.11 7.11 0 0 0 6.1 3.41c2.8 0 5.29-1.3 7.49-3.91l2.16 1.48a26.75 26.75 0 0 1 -3 3.38z"/><path d="m154.91 318a13 13 0 0 1 -6.54 1.72 12.57 12.57 0 0 1 -9.85-4.4 16.14 16.14 0 0 1 -3.88-11.08q0-7.54 3.51-12a11.45 11.45 0 0 1 9.51-4.47 10.73 10.73 0 0 1 7 2.46 12.86 12.86 0 0 1 4 6 21.81 21.81 0 0 1 .83 6.69h-17.85a15.19 15.19 0 0 0 2.71 8.76 7.75 7.75 0 0 0 6.5 3.29c2.7 0 5.14-1.36 7.34-4.07l2.47 1.44a18.53 18.53 0 0 1 -5.75 5.7zm-13.27-18.46h8.48a9.08 9.08 0 0 0 2.35-.15 1.1 1.1 0 0 0 .15-.56q0-8.12-5.27-8.12-5.57 0-5.71 8.83z" fill-rule="evenodd"/><path d="m186.58 318.88a6.2 6.2 0 0 1 -3.2.88q-4 0-4.62-3.56-5.14 3.56-9.17 3.56a7.47 7.47 0 0 1 -5.41-2 6.92 6.92 0 0 1 -2.08-5.18 8.86 8.86 0 0 1 3.56-6.92q3.27-2.72 13-6.43v-3.83q0-4.65-3.15-4.65a3.31 3.31 0 0 0 -2.17.65 6.51 6.51 0 0 0 -1.42 2.71 6.62 6.62 0 0 1 -1.85 3.09 4 4 0 0 1 -2.66 1 3.51 3.51 0 0 1 -2.58-1 3.42 3.42 0 0 1 -1-2.53q0-2.89 3.51-4.92a16.07 16.07 0 0 1 8.23-1.94c3.37 0 5.85.65 7.43 2s2.56 3.67 2.56 6.83v17.23a5.6 5.6 0 0 0 .21 1.73.52.52 0 0 0 .4.18q.5 0 1.41-1.5l2.14 1.62a11.23 11.23 0 0 1 -3.14 3zm-7.89-16.45a35.84 35.84 0 0 0 -6.09 3c-2.25 1.59-3.37 3.4-3.37 5.46a5.08 5.08 0 0 0 .9 3.08 3.35 3.35 0 0 0 2.87 1.42q2.72 0 5.69-3.39v-9.59z" fill-rule="evenodd"/><path d="m199.84 292.55q7.77-4.76 10.75-4.76a4.67 4.67 0 0 1 4.1 2 7.21 7.21 0 0 1 1.23 4.36v19a6.18 6.18 0 0 0 .4 2.58c.27.35.91.53 1.93.53v2.64h-11.66v-2.64c1.07 0 1.72-.18 1.95-.53a5.31 5.31 0 0 0 .44-2.58v-16.45a5.61 5.61 0 0 0 -.46-2.8 1.93 1.93 0 0 0 -1.61-.52q-2.16 0-7.07 2.65v17.09a6.36 6.36 0 0 0 .13 1.72 2.23 2.23 0 0 0 .24.83 2.52 2.52 0 0 0 2 .56v2.64h-11.64v-2.64c1 0 1.63-.19 1.87-.56a5.05 5.05 0 0 0 .47-2.55v-16.12a4 4 0 0 0 -.47-2.27c-.18-.35-.85-.6-2-.74v-2.16a13.27 13.27 0 0 0 5.55-2.42 15.63 15.63 0 0 0 1.72-1.6h2.12v4.76z"/><path d="m260.63 332.61h-32v-2.61q1.81 0 2.31-.93a8.57 8.57 0 0 0 .59-3.69v-30.85a8.7 8.7 0 0 0 -.59-3.78q-.46-.9-2.31-.9v-2.64h13.93v2.64c-1.25 0-2 .28-2.34.83a8.44 8.44 0 0 0 -.62 3.85v31c0 1.6.21 2.56.64 2.86s1.73.59 3.76.59q7.65 0 11.07-1.78 2.43-1.26 5.6-5.83l2.62.83-2.61 10.44z"/><path d="m284.22 331.77a13 13 0 0 1 -6.55 1.72 12.57 12.57 0 0 1 -9.85-4.4 16.19 16.19 0 0 1 -3.88-11.09q0-7.54 3.51-12a11.44 11.44 0 0 1 9.52-4.48 10.75 10.75 0 0 1 7 2.46 12.82 12.82 0 0 1 4 6 21.7 21.7 0 0 1 .83 6.68h-17.86a15.17 15.17 0 0 0 2.71 8.76 7.77 7.77 0 0 0 6.51 3.29q4 0 7.33-4.07l2.47 1.45a18.57 18.57 0 0 1 -5.74 5.69zm-13.28-18.46h8.49a9 9 0 0 0 2.34-.15c.06 0 .11-.23.15-.56q0-8.12-5.27-8.12-5.55 0-5.71 8.83z" fill-rule="evenodd"/><path d="m315.88 332.61a6.2 6.2 0 0 1 -3.2.88q-4 0-4.62-3.56-5.13 3.56-9.17 3.56a7.39 7.39 0 0 1 -5.4-2 6.88 6.88 0 0 1 -2.08-5.18 8.84 8.84 0 0 1 3.55-6.92q3.27-2.72 13-6.43v-3.81q0-4.65-3.15-4.65a3.26 3.26 0 0 0 -2.16.65 6.38 6.38 0 0 0 -1.42 2.72 6.72 6.72 0 0 1 -1.86 3.08 4 4 0 0 1 -2.65 1 3.51 3.51 0 0 1 -2.58-1 3.42 3.42 0 0 1 -1-2.53q0-2.89 3.52-4.92a16 16 0 0 1 8.23-1.94c3.37 0 5.84.66 7.43 2s2.56 3.67 2.56 6.83v17.24a5.53 5.53 0 0 0 .21 1.72.5.5 0 0 0 .4.19c.32 0 .79-.51 1.4-1.51l2.15 1.62a11.25 11.25 0 0 1 -3.15 3zm-7.88-16.45a37.46 37.46 0 0 0 -6.09 3c-2.24 1.59-3.37 3.4-3.37 5.46a5.08 5.08 0 0 0 .9 3.08 3.35 3.35 0 0 0 2.87 1.42c1.82 0 3.71-1.13 5.69-3.39v-9.59z" fill-rule="evenodd"/><path d="m339.93 332.61v-2.71a11.91 11.91 0 0 1 -8.52 3.59 9.9 9.9 0 0 1 -8.76-4.75 17.76 17.76 0 0 1 -2.65-10 22 22 0 0 1 3.09-11.92 11.37 11.37 0 0 1 10.2-5.83 9.54 9.54 0 0 1 6.64 2.35v-7.81a4.24 4.24 0 0 0 -.43-2.3 3.26 3.26 0 0 0 -2.1-.78v-2.12a13.49 13.49 0 0 0 7.25-4.15h2.15v40.59a4.91 4.91 0 0 0 .49 2.55c.21.41.82.62 1.84.62v2.65zm0-18.44q0-10.12-6.82-10.13-6 0-6 11.73c0 4.31.64 7.63 1.94 10s2.84 3.29 4.87 3.29c2.33 0 4.32-1.3 6-3.91v-10.98z" fill-rule="evenodd"/><path d="m371.58 331.77a13 13 0 0 1 -6.54 1.72 12.58 12.58 0 0 1 -9.86-4.4 16.19 16.19 0 0 1 -3.88-11.09q0-7.54 3.51-12a11.45 11.45 0 0 1 9.52-4.48 10.75 10.75 0 0 1 7 2.46 12.82 12.82 0 0 1 4 6 21.7 21.7 0 0 1 .83 6.68h-17.86a15.17 15.17 0 0 0 2.72 8.76 7.74 7.74 0 0 0 6.5 3.29c2.69 0 5.14-1.36 7.33-4.07l2.47 1.45a18.57 18.57 0 0 1 -5.74 5.69zm-13.28-18.46h8.49a9 9 0 0 0 2.34-.15c.06 0 .11-.23.16-.56q0-8.12-5.28-8.12-5.55 0-5.71 8.83z" fill-rule="evenodd"/><path d="m399.11 308.67a4.58 4.58 0 0 1 -3 1.11c-.12 0-1.17-.28-3.16-.84l-1.07-.2a3.13 3.13 0 0 0 -1.32.4 9.77 9.77 0 0 0 -1.47 1.48v16.23a5.2 5.2 0 0 0 .46 2.52c.22.39.85.59 1.87.59v2.65h-11.83v-2.61c1 0 1.66-.18 1.86-.52a5.09 5.09 0 0 0 .47-2.59v-16.18a4.22 4.22 0 0 0 -.42-2.3c-.19-.33-.84-.57-2-.71v-2.12a15.24 15.24 0 0 0 7.3-4h2.22v4.52q4.29-4.52 7.39-4.52a3.63 3.63 0 0 1 2.88 1.19 4.31 4.31 0 0 1 1.05 3 4.16 4.16 0 0 1 -1.26 2.93z"/><path d="m413 333.49q-5.57 0-11.6-4.44l2.43-7 2.25.5a12.39 12.39 0 0 0 2.59 5.36 6.8 6.8 0 0 0 5.36 2.59 4.83 4.83 0 0 0 3.28-1.2 3.86 3.86 0 0 0 1.37-3 4 4 0 0 0 -1-2.55 24.87 24.87 0 0 0 -5.57-3.11l-.19-.13q-9.3-4.15-9.3-9.6a8.59 8.59 0 0 1 3-6.9 11.28 11.28 0 0 1 7.51-2.43q4.74 0 9.76 3.75l-2.4 6.4-2.16-.49c-1-4.42-3.08-6.63-6.09-6.63a4.71 4.71 0 0 0 -3.13 1.06 3.44 3.44 0 0 0 -1.28 2.78q0 2.87 6.65 5.42 10 3.82 10 9.92a8.78 8.78 0 0 1 -3.51 7.33 12.79 12.79 0 0 1 -8 2.43z"/><path d="m436.06 305.88q7.77-4.86 10.75-4.87a4.66 4.66 0 0 1 4.1 2 7.42 7.42 0 0 1 1.23 4.43v19.34a6.28 6.28 0 0 0 .4 2.61c.26.37.91.56 1.93.56v2.65h-11.66v-2.6c1.07 0 1.72-.19 1.95-.56a5.4 5.4 0 0 0 .44-2.61v-16.76a5.72 5.72 0 0 0 -.46-2.84 1.93 1.93 0 0 0 -1.61-.52c-1.44 0-3.79.9-7.07 2.68v17.4a6.59 6.59 0 0 0 .13 1.75 2.13 2.13 0 0 0 .25.83c.28.39.94.59 1.95.59v2.65h-11.6v-2.61c1 0 1.63-.19 1.88-.56a5.48 5.48 0 0 0 .45-2.61v-31.28a5 5 0 0 0 -.4-2.37c-.22-.33-.91-.56-2.05-.7v-2.13a13.35 13.35 0 0 0 7.24-4.15h2.15z"/><path d="m466.07 295.15a4.8 4.8 0 0 1 -3.19 1.26 4.43 4.43 0 0 1 -3.19-1.3 4.19 4.19 0 0 1 -1.35-3.1 4.1 4.1 0 0 1 1.35-3.07 4.73 4.73 0 0 1 6.44-.05 4.16 4.16 0 0 1 1.29 3.12 4.45 4.45 0 0 1 -1.35 3.14zm-9.07 37.46v-2.61c1 0 1.66-.19 1.86-.56a5.11 5.11 0 0 0 .47-2.61v-17.53a5.09 5.09 0 0 0 -.39-2.4c-.18-.35-.85-.6-2-.74v-2.16a15.2 15.2 0 0 0 7.32-4.12h2.21v26.91a5.47 5.47 0 0 0 .46 2.58c.22.39.85.59 1.87.59v2.65z" fill-rule="evenodd"/><path d="m496.63 329.06a11.24 11.24 0 0 1 -9.29 4.87 10.66 10.66 0 0 1 -7-2.59v9.32a5.36 5.36 0 0 0 .43 2.65c.25.34.88.52 1.9.52v2.65h-11.54v-2.65q1.5 0 1.92-.66a5.15 5.15 0 0 0 .42-2.51v-29.79a4.45 4.45 0 0 0 -.4-2.32 3.28 3.28 0 0 0 -2.12-.75v-2.19a13.12 13.12 0 0 0 5.55-2.46 16.47 16.47 0 0 0 1.75-1.63h2.09v4.05a11.72 11.72 0 0 1 8.92-4.05 9.35 9.35 0 0 1 8.6 5.11 20.45 20.45 0 0 1 2.41 10.29q0 7.36-3.64 12.14zm-5.47-19.64a5.41 5.41 0 0 0 -4.87-2.86c-2.09 0-4.08 1.2-6 3.6v9.69q0 10.93 6.2 10.93 6.48 0 6.47-12.53c0-3.87-.61-6.82-1.85-8.83z" fill-rule="evenodd"/></g><path d="m125.37 264.14 2.77.65a8.65 8.65 0 0 1 -3.12 4.86 8.94 8.94 0 0 1 -5.5 1.67 10.48 10.48 0 0 1 -5.52-1.32 8.18 8.18 0 0 1 -3.21-3.73 12.65 12.65 0 0 1 -1.1-5.24 10.93 10.93 0 0 1 1.24-5.33 8.3 8.3 0 0 1 3.54-3.45 10.83 10.83 0 0 1 5-1.18 9 9 0 0 1 5.26 1.49 7.79 7.79 0 0 1 3 4.2l-2.71.6a6 6 0 0 0 -2.1-3.11 6 6 0 0 0 -3.47-1 7.06 7.06 0 0 0 -4 1.08 5.74 5.74 0 0 0 -2.26 2.9 11 11 0 0 0 -.66 3.76 11.19 11.19 0 0 0 .78 4.35 5.44 5.44 0 0 0 2.4 2.78 7 7 0 0 0 3.53.92 6.18 6.18 0 0 0 3.91-1.25 6.35 6.35 0 0 0 2.17-3.72z" fill="#00937f"/><path d="m136.54 261.48a10.2 10.2 0 0 1 2.79-7.62 9.83 9.83 0 0 1 7.2-2.75 10.51 10.51 0 0 1 5.21 1.29 8.67 8.67 0 0 1 3.54 3.61 11.1 11.1 0 0 1 1.22 5.24 11 11 0 0 1 -1.28 5.32 8.57 8.57 0 0 1 -3.63 3.55 11 11 0 0 1 -5.07 1.2 10.4 10.4 0 0 1 -5.27-1.33 8.85 8.85 0 0 1 -3.51-3.64 10.38 10.38 0 0 1 -1.2-4.87zm2.86 0a7.49 7.49 0 0 0 2 5.56 7.4 7.4 0 0 0 10.2 0 7.94 7.94 0 0 0 2-5.82 9.37 9.37 0 0 0 -.86-4.16 6.27 6.27 0 0 0 -2.52-2.75 7.07 7.07 0 0 0 -3.71-1 7.35 7.35 0 0 0 -5 1.88q-2.12 1.89-2.11 6.29z" fill="#00937f" fill-rule="evenodd"/></g><g fill="#00937f"><path d="m102.51 206.49v-19.56h2.84l10.94 15.35v-15.35h2.65v19.56h-2.84l-10.94-15.36v15.36z"/><path d="m191.82 264.71 2.6-.22a5.09 5.09 0 0 0 .86 2.43 4.59 4.59 0 0 0 2.09 1.53 8.37 8.37 0 0 0 3.2.58 8.25 8.25 0 0 0 2.79-.44 3.85 3.85 0 0 0 1.79-1.22 2.64 2.64 0 0 0 .59-1.67 2.36 2.36 0 0 0 -.57-1.6 4.29 4.29 0 0 0 -1.87-1.16c-.56-.2-1.8-.52-3.72-.95a20 20 0 0 1 -4-1.22 5.62 5.62 0 0 1 -2.22-1.82 4.27 4.27 0 0 1 -.73-2.44 4.78 4.78 0 0 1 .89-2.77 5.41 5.41 0 0 1 2.62-2 10.4 10.4 0 0 1 3.83-.67 11 11 0 0 1 4.09.7 5.85 5.85 0 0 1 2.72 2.06 5.67 5.67 0 0 1 1 3.09l-2.65.19a3.89 3.89 0 0 0 -1.44-2.8 5.9 5.9 0 0 0 -3.64-.95 6.17 6.17 0 0 0 -3.65.86 2.55 2.55 0 0 0 -1.14 2.08 2.16 2.16 0 0 0 .81 1.73c.53.46 1.92.92 4.16 1.4a29.75 29.75 0 0 1 4.61 1.24 6.32 6.32 0 0 1 2.69 2 4.64 4.64 0 0 1 .87 2.78 5.06 5.06 0 0 1 -1 2.94 6.19 6.19 0 0 1 -2.73 2.14 10.1 10.1 0 0 1 -4 .76 12.61 12.61 0 0 1 -4.74-.77 6.47 6.47 0 0 1 -3-2.33 6.26 6.26 0 0 1 -1.15-3.51z" transform="translate(-63.31 -64.51)"/><path d="m217.1 261.48a10.2 10.2 0 0 1 2.79-7.62 9.83 9.83 0 0 1 7.2-2.75 10.54 10.54 0 0 1 5.21 1.29 8.65 8.65 0 0 1 3.53 3.61 11.78 11.78 0 0 1 -.06 10.56 8.46 8.46 0 0 1 -3.63 3.55 10.94 10.94 0 0 1 -5.06 1.2 10.37 10.37 0 0 1 -5.27-1.33 8.72 8.72 0 0 1 -3.51-3.64 10.38 10.38 0 0 1 -1.2-4.87zm2.85 0a7.53 7.53 0 0 0 2 5.56 7.4 7.4 0 0 0 10.2 0 7.91 7.91 0 0 0 2-5.82 9.51 9.51 0 0 0 -.86-4.16 6.39 6.39 0 0 0 -2.52-2.75 7.08 7.08 0 0 0 -3.72-1 7.3 7.3 0 0 0 -5 1.88q-2.12 1.89-2.12 6.29z" fill-rule="evenodd" transform="translate(-63.31 -64.51)"/><path d="m246.47 271v-19.56h9.24a13 13 0 0 1 4.23.52 4.66 4.66 0 0 1 2.32 1.86 5.27 5.27 0 0 1 .86 2.95 4.74 4.74 0 0 1 -1.43 3.51 7.5 7.5 0 0 1 -4.43 1.81 7.24 7.24 0 0 1 1.66 1 13.06 13.06 0 0 1 2.28 2.6l3.61 5.33h-3.45l-2.75-4.08c-.81-1.17-1.47-2.07-2-2.69a6 6 0 0 0 -1.4-1.31 4.26 4.26 0 0 0 -1.26-.52 9.05 9.05 0 0 0 -1.53-.09h-3.2v8.67zm2.76-10.93h5.93a9.21 9.21 0 0 0 3-.37 3.1 3.1 0 0 0 1.61-1.17 3.05 3.05 0 0 0 .55-1.76 2.86 2.86 0 0 0 -1.07-2.28 5.2 5.2 0 0 0 -3.38-.9h-6.59v6.48z" fill-rule="evenodd" transform="translate(-63.31 -64.51)"/><path d="m214.81 206.49v-17.27h-6.88v-2.29h16.51v2.29h-6.87v17.27z"/><path d="m233.6 206.49v-19.56h2.77v19.56z"/><path d="m324 251.44h2.76v11.29a12.53 12.53 0 0 1 -.71 4.69 5.87 5.87 0 0 1 -2.56 2.82 9.59 9.59 0 0 1 -4.86 1.08 10.58 10.58 0 0 1 -4.79-.94 5.55 5.55 0 0 1 -2.65-2.74 12.39 12.39 0 0 1 -.79-4.91v-11.29h2.76v11.29a10.58 10.58 0 0 0 .5 3.76 3.76 3.76 0 0 0 1.73 1.86 6.39 6.39 0 0 0 3 .65q3 0 4.32-1.29c.86-.87 1.29-2.52 1.29-5z" transform="translate(-63.31 -64.51)"/><path d="m337.16 271v-19.56h4.14l4.93 13.84c.45 1.29.79 2.26 1 2.9.24-.71.62-1.76 1.12-3.14l5-13.6h3.69v19.56h-2.64v-16.37l-6.08 16.37h-2.49l-6-16.67v16.67z" transform="translate(-63.31 -64.51)"/><path d="m318.07 206.49v-19.56h14.07v2.29h-11.3v6.09h9.78v2.3h-9.78v8.88z"/><path d="m404 261.48a10.2 10.2 0 0 1 2.79-7.62 9.83 9.83 0 0 1 7.2-2.75 10.54 10.54 0 0 1 5.21 1.29 8.71 8.71 0 0 1 3.53 3.61 11.78 11.78 0 0 1 -.06 10.56 8.46 8.46 0 0 1 -3.63 3.55 10.94 10.94 0 0 1 -5.06 1.2 10.37 10.37 0 0 1 -5.27-1.33 8.79 8.79 0 0 1 -3.51-3.64 10.38 10.38 0 0 1 -1.2-4.87zm2.86 0a7.52 7.52 0 0 0 2 5.56 7.41 7.41 0 0 0 10.21 0 7.94 7.94 0 0 0 2-5.82 9.51 9.51 0 0 0 -.86-4.16 6.27 6.27 0 0 0 -2.52-2.75 7.08 7.08 0 0 0 -3.72-1 7.3 7.3 0 0 0 -5 1.88q-2.12 1.89-2.11 6.29z" fill-rule="evenodd" transform="translate(-63.31 -64.51)"/><path d="m433.39 271v-19.56h9.24a13.15 13.15 0 0 1 4.24.52 4.68 4.68 0 0 1 2.31 1.86 5.28 5.28 0 0 1 .87 2.95 4.74 4.74 0 0 1 -1.44 3.51 7.48 7.48 0 0 1 -4.43 1.81 7.24 7.24 0 0 1 1.66 1 13.42 13.42 0 0 1 2.29 2.6l3.6 5.33h-3.45l-2.75-4.08c-.81-1.17-1.47-2.07-2-2.69a6 6 0 0 0 -1.4-1.31 4.32 4.32 0 0 0 -1.25-.52 9.28 9.28 0 0 0 -1.54-.09h-3.2v8.67zm2.76-10.93h5.93a9.21 9.21 0 0 0 2.95-.37 3 3 0 0 0 2.16-2.93 2.83 2.83 0 0 0 -1.07-2.28 5.2 5.2 0 0 0 -3.38-.9h-6.59z" fill-rule="evenodd" transform="translate(-63.31 -64.51)"/></g><path d="m138.14 176.63c29.25-21.65 54.78-37.79 86.32-53 44.77-21.53 64.53-24.43 92-18.53 29.95 6.45 35.56 42.25 36.4 45-7.92-12.53-23.2-23.34-31.47-26.41-20.09-7.45-51.73-5.64-94.26 18.4-25.56 14.46-82.31 53.76-96.56 59.3-6.79 3.46-12.66 6.61-18.51 7.92-1.43.3-2.85.54-4.24.73 14.5-82.67 86.59-146.04 173.4-145.53 72.67.45 134.72 45.25 160.93 108.38l-1.53-.62c-1.2-.39-21.33-9.86-25.52-11.44-27-45.91-76.23-76.8-133.36-77.15-64.27-.39-119.09 37.75-143.6 92.95z" fill="#00457c" transform="translate(-63.31 -64.51)"/><path d="m447.92 189c-12.47-6.59-30.24-16.53-45.81-16.7-20.22-.21-34.59 18-60.47 17.3-48.63-1.31-42.51-47.22 5-34.82-32.58-41.68-96.94-6.84-153.13 45.51 5.62 3 11.19 6 16.84 8.14 35.07-31.81 66.1-52.41 85.2-55.34-26 26.89 12 54.35 44.22 54s36.73-17 63.86-17.37c14.19-.21 41.55 16.38 49.33 20.27a174.77 174.77 0 0 0 -5.04-20.99z" fill="#00937f" transform="translate(-63.31 -64.51)"/></svg>