<svg enable-background="new 0 0 249.7 45.3" viewBox="0 0 249.7 45.3" xmlns="http://www.w3.org/2000/svg"><path d="m97.4 3.8-2.8-.8v-2h10.9c7.1 0 9.7 2.3 9.7 7.6 0 5-2.9 7.6-8.5 7.6h-4.4v8l2.8.8v2h-10.6v-1.9l2.9-.8zm4.9 0v10.1l5.2-.4c1.3-.6 2.6-1.4 2.6-4.6 0-2.5-.1-5.1-4.9-5.1z"/><path d="m155.8 16h-3.5v8.4l2.8.8v1.8h-10.7v-1.9l2.9-.8v-20.5l-2.8-.8v-2h11.4c6.8 0 9.2 2.4 9.2 7 0 3.6-1.4 5.4-4.6 6.7l4.8 9.4 3.1 1v1.9h-7.2zm-3.5-12.2v9.9l5.3-.4c1.7-.8 2.5-2.2 2.5-4.9 0-2.9-.9-4.7-3.9-4.7z"/><path d="m170.6 25.2 2.8-.8v-20.6l-2.8-.8v-2h12.6c7.1 0 11.3 4.3 11.3 12.7 0 9.5-4.3 13.3-11.8 13.3h-12.1zm7.8-21.4v20.6h3.7c2.6 0 7-.4 7-9.8 0-7.4-1.3-10.8-7-10.8z"/><path d="m105.5 40.6c0 3.2-1.8 4.3-4.8 4.3s-4.8-1.8-4.8-4.3v-6.3l-1.4-.4v-1.2h5.5v1.2l-1.3.4v6.3c0 1.6.6 2.5 2.4 2.5.9 0 2.4-.3 2.4-2.6v-6.3l-1.4-.4v-1.2h4.8v1.2l-1.4.4z"/><path d="m115.1 37.3v5.8l1.3.4v1.2h-4.7v-1.2l1.4-.4v-8.3l-.6-.7-.8-.3v-1.3h3.1l5.9 7.4v-5.8l-1.4-.4v-1.2h4.7v1.2l-1.4.4v10.5h-1.6z"/><path d="m134.1 43.2 1.4.4v1.2h-5.6v-1.2l1.4-.4v-8.9l-1.4-.4v-1.2h5.6v1.2l-1.4.4z"/><path d="m209 43.2 1.4.4v1.2h-5.6v-1.2l1.4-.4v-8.9l-1.4-.4v-1.2h5.6v1.2l-1.4.4z"/><path d="m148.2 44.7h-2.6l-3.8-10.5-1.4-.4v-1.2h5.9v1.2l-1.4.4 2.6 7.5 2.6-7.5-1.4-.4v-1.2h4.8v1.2l-1.4.4z"/><path d="m159.2 34.3-1.4-.4v-1.2h9.5l.1 3.7h-1.4l-.7-2.1h-3.2v3.4h3.1v1.7h-3.1v3.8h3.2l1-2.1h1.5l-.2 3.7h-9.7v-1.2l1.4-.3v-9z"/><path d="m179.1 39.8h-1v3.4l1.4.4v1.2h-5.6v-1.2l1.4-.4v-8.9l-1.4-.4v-1.2h5.5c3.4 0 4.4 1.3 4.4 3.4 0 1.3-.3 2.6-2 3.2l2 3.9 1.7.5v1.1h-4.1zm-1-5.5v4.2l1.9-.2c.6-.5 1-1.3 1-2.1 0-1.2-.3-2-1.6-2h-1.3z"/><path d="m190.4 41h1.7l.4 1.7c.8.5 1.7.7 2.6.7h.4c.5-.3.7-.9.8-1.5 0-2.8-5.8-1.6-5.8-5.7 0-1.9 1.7-3.7 4.6-3.7 1.1 0 2.3.3 3.3.8v3.2h-1.6l-.6-2c-.6-.2-1.3-.4-2-.4-.1 0-.2 0-.3 0-.5.3-.8.8-.8 1.4 0 2.4 5.7 1.6 5.7 5.6 0 2.2-2 3.8-4.6 3.8-1.3 0-2.6-.4-3.7-1.1z"/><path d="m220 34.3h-1.6l-.7 2.1h-1.5v-3.8h10.6v3.8h-1.5l-.7-2.1h-1.7v8.9l1.4.4v1.2h-5.6v-1.2l1.4-.4v-8.9z"/><path d="m236.2 40.1-3.2-5.8-1.4-.4v-1.2h5.9v1.2l-1.4.4 2 3.9 2-3.9-1.4-.4v-1.2h4.8v1.2l-1.4.4-3.2 5.8v3.1l1.4.4v1.2h-5.6v-1.2l1.4-.4v-3.1z"/><path d="m241.4 19.5-1.9 4.8h-8.1v-9.3h4.6l.6 2.6h2v-7.9h-2l-.6 2.6h-4.6v-8.5h7.8l1.4 5h2.9l-.2-7.8h-19.7v2l2.8.8v20.6l-2.9.8v1.8h20.2l.4-7.5z"/><path d="m139.5 18.1c0 6.6-3.2 9.3-9.6 9.3-5.9 0-10.2-2.4-10.2-8.7v-14.9l-2.9-.8v-2h10.6v2l-2.8.8v14.9c0 3.8 1.7 5.4 5.9 5.4 2.9 0 5.5-1.7 5.5-5.7v-14.6l-2.9-.8v-2h9.2v2l-2.8.8z"/><path d="m218.5 18.1c0 6.6-3.2 9.3-9.6 9.3-5.9 0-10.3-2.4-10.3-8.7v-14.9l-2.8-.8v-2h10.6v2l-2.8.8v14.9c0 3.8 1.7 5.4 5.9 5.4 2.9 0 5.5-1.7 5.5-5.7v-14.6l-2.8-.8v-2h9.2v2l-2.8.8v14.3z"/><path d="m44.4 44.8 5.6-13.2h9.3c13.4 0 18.5-5.5 22.1-13.8 1.3-3.1 3.5-8.2.6-12.6s-9-4.8-13.3-4.8h-49.4l-7 16.3h8.9l-5 11.7h-9l-7 16.4z"/><path d="m79.4 6.9c-1.6-2.4-5-3.5-10.8-3.5h-47.3l-4.3 10.3h8.9l-7.5 17.7h-9l-4.4 10.3h37.4l4.4-10.3h-9.1l1.2-2.9h20.4c13.1 0 16.6-5.6 19.3-12 1.4-3.3 2.7-6.8.8-9.6m-34.1 6.8h15c2.1 0 1.8 1 1.5 1.7-.8 1.8-2.6 2.9-4.8 2.9h-13.7z" fill="#9d9795"/><path d="m68.7 5h-46.3l-3 7.1h8.9l-8.9 20.9h-9l-3 7.1h34l3-7.1h-9.1l2.6-6h21.4c12.3 0 15.4-5.2 17.8-11s3.9-11-8.4-11m-11.7 14.9h-16l3.3-7.7h16c2.8 0 4 1.5 2.9 3.9-1 2.3-3.4 3.8-6.2 3.8" fill="#cfb991"/><g fill="#fff"><path d="m246.9 44.7c-1.4 0-2.6-1.2-2.6-2.6s1.2-2.6 2.6-2.6 2.6 1.2 2.6 2.6-1.2 2.6-2.6 2.6zm0-4.6c-1.1 0-2.1.9-2.1 2.1 0 1.1.9 2.1 2.1 2.1 1.1 0 2.1-.9 2.1-2.1s-1-2.1-2.1-2.1z"/><path d="m246.6 42.3v1h-.5v-2.4h1.1c.5 0 .8.3.8.7 0 .2-.1.5-.4.6.1 0 .3.2.3.6v.1.5h-.5c0-.2-.1-.4 0-.5 0-.3-.1-.4-.5-.4zm0-.4h.4c.3 0 .4-.1.4-.3s-.1-.3-.4-.3h-.4z"/></g></svg>