<svg viewBox="0 0 576 41.12" xmlns="http://www.w3.org/2000/svg"><g fill="#003660" transform="translate(-108 -285.44)"><path d="m579.17 286.44h7.19l17.19 39.5h-9.82l-3.4-8.37h-15.33l-3.29 8.37h-9.61zm3.35 11.5-4.8 12.27h9.65z"/><path d="m529 286.44h14.73a37.53 37.53 0 0 1 5.16.37 14 14 0 0 1 4.66 1.45 9 9 0 0 1 3.35 3 9.36 9.36 0 0 1 1.28 5.19 8.27 8.27 0 0 1 -1.87 5.55 10.26 10.26 0 0 1 -4.94 3.15v.11a11.42 11.42 0 0 1 3.55 1.09 9.53 9.53 0 0 1 2.73 2.06 9 9 0 0 1 1.76 2.93 10.3 10.3 0 0 1 .59 3.66 9.53 9.53 0 0 1 -1.34 5.22 10.42 10.42 0 0 1 -3.46 3.37 15 15 0 0 1 -4.77 1.84 24.91 24.91 0 0 1 -5.27.56h-16.16zm8.71 15.79h6.29a8.77 8.77 0 0 0 2-.22 5.41 5.41 0 0 0 1.76-.73 3.71 3.71 0 0 0 1.24-1.28 4 4 0 0 0 .48-2 3.48 3.48 0 0 0 -1.9-3.29 6.45 6.45 0 0 0 -1.9-.65 11.28 11.28 0 0 0 -2.06-.19h-5.91zm0 16.35h7.81a10.17 10.17 0 0 0 2-.22 5.28 5.28 0 0 0 1.87-.79 4.43 4.43 0 0 0 1.37-1.45 4.2 4.2 0 0 0 .53-2.17 3.47 3.47 0 0 0 -.7-2.26 4.43 4.43 0 0 0 -1.76-1.31 9.22 9.22 0 0 0 -2.28-.62 17.32 17.32 0 0 0 -2.29-.16h-6.58z"/><path d="m607.69 286.44h15.31a27 27 0 0 1 5.72.59 13.62 13.62 0 0 1 4.74 2 9.71 9.71 0 0 1 3.23 3.68 12.5 12.5 0 0 1 1.2 5.78 11.58 11.58 0 0 1 -2.17 7.11 9.8 9.8 0 0 1 -6.36 3.71l10 16.68h-10.36l-8.26-15.79h-4.34v15.79h-8.71zm8.71 16.35h5.13c.78 0 1.61 0 2.48-.08a7.91 7.91 0 0 0 2.37-.51 4.09 4.09 0 0 0 1.76-1.31 4 4 0 0 0 .7-2.51 4.18 4.18 0 0 0 -.62-2.4 4.08 4.08 0 0 0 -1.56-1.36 7 7 0 0 0 -2.18-.65 17.77 17.77 0 0 0 -2.39-.16h-5.69z"/><path d="m461.61 286.45h7.2l17.19 39.49h-9.82l-3.4-8.37h-15.35l-3.3 8.37h-9.59zm3.39 11.49-4.8 12.27h9.65z"/><path d="m659.62 286.44h7.2l17.18 39.5h-9.82l-3.4-8.37h-15.34l-3.29 8.37h-9.6zm3.35 11.5-4.8 12.27h9.65z"/><path d="m411.45 286.44h14.73a37.51 37.51 0 0 1 5.16.36 14.14 14.14 0 0 1 4.66 1.45 9 9 0 0 1 3.35 3 9.36 9.36 0 0 1 1.28 5.19 8.27 8.27 0 0 1 -1.87 5.55 10.23 10.23 0 0 1 -4.93 3.15v.11a11.36 11.36 0 0 1 3.54 1.09 9.39 9.39 0 0 1 2.73 2.07 8.75 8.75 0 0 1 1.76 2.93 10.22 10.22 0 0 1 .61 3.57 9.41 9.41 0 0 1 -1.34 5.21 10.51 10.51 0 0 1 -3.45 3.38 15.38 15.38 0 0 1 -4.77 1.84 25.75 25.75 0 0 1 -5.28.56h-16.18zm8.71 15.79h6.3a8.78 8.78 0 0 0 2-.23 5.62 5.62 0 0 0 1.76-.72 3.74 3.74 0 0 0 1.25-1.34 4 4 0 0 0 .48-2 3.68 3.68 0 0 0 -.53-2 3.74 3.74 0 0 0 -1.37-1.25 6.48 6.48 0 0 0 -1.89-.64 11.5 11.5 0 0 0 -2.07-.2h-5.91zm0 16.34h7.84a9.41 9.41 0 0 0 2-.22 5.37 5.37 0 0 0 1.87-.78 4.42 4.42 0 0 0 1.37-1.45 4.24 4.24 0 0 0 .53-2.18 3.47 3.47 0 0 0 -.7-2.26 4.49 4.49 0 0 0 -1.75-1.31 8.87 8.87 0 0 0 -2.29-.61 17.3 17.3 0 0 0 -2.29-.17h-6.58z"/><path d="m490.13 286.44h15.29a27.06 27.06 0 0 1 5.72.58 13.63 13.63 0 0 1 4.74 2 9.73 9.73 0 0 1 3.24 3.68 12.45 12.45 0 0 1 1.2 5.77 11.58 11.58 0 0 1 -2.18 7.11 9.72 9.72 0 0 1 -6.36 3.71l10 16.69h-10.39l-8.26-15.79h-4.29v15.79h-8.71zm8.71 16.34h5.16c.78 0 1.61 0 2.48-.08a7.78 7.78 0 0 0 2.37-.5 4.11 4.11 0 0 0 1.76-1.31 4 4 0 0 0 .7-2.51 3.87 3.87 0 0 0 -2.18-3.77 7.06 7.06 0 0 0 -2.17-.64 18.07 18.07 0 0 0 -2.4-.17h-5.69z"/><path d="m253.21 286.45h7.19l17.19 39.49h-9.82l-3.41-8.37h-15.36l-3.29 8.37h-9.59zm3.34 11.49-4.79 12.27h9.65z"/><path d="m370.46 286.45h7.2l17.18 39.49h-9.84l-3.4-8.37h-15.32l-3.28 8.37h-9.6zm3.35 11.49-4.81 12.27h9.65z"/><path d="m282.41 286.44h11.82l16.77 27.45h.11v-27.45h8.7v39.5h-11.35l-17.24-28.12h-.11v28.12h-8.7z"/><path d="m336.82 294.14h-10.9v-7.7h31.24v7.7h-11.64v31.8h-8.7z"/><path d="m126.84 326.56c-9.17 0-14.38-5.37-14.38-15.1v-21.21h-4.46v-3.81h14.38v3.81h-5v20.65c0 8.39 3 11.63 9.62 11.63 6.38 0 10.18-2.57 10.18-12.36v-19.92h-5v-3.81h14.38v3.81h-4.56v20.59c0 9.73-4.87 15.72-15.16 15.72z"/><path d="m181.13 312.8c-1 6.49-5.53 9.79-12.08 9.79-8.62 0-13.76-6.16-13.76-16.34v-.44c0-10.07 5.54-16.51 13.82-16.51 6.09 0 10.23 2.58 11.86 9.23h4.08v-12.08h-4.36v4.36c-2.06-3.69-6.43-5.37-11.46-5.37-11 0-19 8.56-19 20.42v.45c0 12.31 7.11 20.25 18.69 20.25 8.8 0 15.09-4.39 16.64-13.3z"/><path d="m233.8 313.79c0 7.52-6.37 12.77-15.47 12.77-7.3 0-12.53-2.45-15.56-7.29l6-5.11a12.63 12.63 0 0 0 10.32 5.38c3.78 0 6.12-1.64 6.12-4.28 0-3.34-2.18-4.08-7.68-5.62-6.5-1.82-13.11-4.63-13.11-11.86s6.13-12.34 14.92-12.34c3.52 0 9.95.82 13.47 6.31l-5.54 4.83a10.45 10.45 0 0 0 -8.91-4.12c-3.91 0-5.33 2.71-5.33 4.53 0 2.88 3.85 4.13 8.49 5.37 5.92 1.56 12.28 3.86 12.28 11.43z"/></g></svg>