<svg height="27.392" viewBox="0 0 150 27.39192" width="150" xmlns="http://www.w3.org/2000/svg"><g transform="matrix(2.8505 0 0 -2.8505 -894.9475 1386.0225)"><path d="m.046875-.017578v2.998h1.7129v5.1387h-1.7129v2.998h7.709v-2.998h-1.7129v-5.1387h1.7129v-2.998h-7.709zm49.094 1.3789c-2.51 0-4.334 1.8945-4.334 4.207v.023437c0 2.3125 1.8005 4.1836 4.3105 4.1836s4.3359-1.8945 4.3359-4.207v-.023437c0-2.3125-1.8012-4.1836-4.3125-4.1836zm12.541.023437c-1.6612 0-2.8457.97812-2.8457 2.4531v.021484c0 1.6162 1.0566 2.0695 2.6953 2.4883 1.36.34875 1.6367.5807 1.6367 1.0332v.023437c0 .47625-.43938.76562-1.1719.76562-.92875 0-1.6965-.38383-2.4277-.98633l-1.0586 1.2676c.97625.87125 2.2187 1.3008 3.4512 1.3008 1.755 0 2.9863-.90523 2.9863-2.5215v-.023438c0-1.4175-.93008-2.0095-2.5801-2.4395-1.4062-.36125-1.7539-.53531-1.7539-1.0703v-.023437c0-.395.35867-.70898 1.0449-.70898.685 0 1.3952.30273 2.1152.80273l.92969-1.3477c-.82375-.6625-1.8352-1.0352-3.0215-1.0352zm-47.979.11719v8.1328h1.791v-8.1328zm3.916 0v8.1328h5.8457v-1.625h-4.0566v-6.5078zm7.1562 0v8.1328h5.8438v-1.625h-4.0547v-6.5078zm7.1953 0v8.1328h1.7891v-8.1328zm3.916 0v8.1328h1.7656v-5.1699l3.9395 5.1699h1.5215v-8.1328h-1.7656v5.0078l-3.8125-5.0078h-1.6484zm19.299 0v8.1328h1.7891v-8.1328zm-6.0684 1.5098c1.4412 0 2.4648 1.1616 2.4648 2.5566v.023437c0 1.395-.99891 2.5332-2.4414 2.5332-1.44 0-2.4629-1.1616-2.4629-2.5566v-.023437c0-1.3938.9982-2.5332 2.4395-2.5332z" fill="#13294b" transform="matrix(.8 0 0 -.8 314.25 485.85)"/><path d="m319.08 483.81h1.0278v1.7129h-5.4821v-1.7129h1.028c.18905 0 .3426-.15336.3426-.34259v-4.1113c0-.18923-.15355-.34259-.3426-.34259h-1.028v-1.7131h5.4821v1.7131h-1.0278c-.18923 0-.3426.15336-.3426.34259v4.1113c0 .18923.15337.34259.3426.34259" fill="#e84a27" stroke="#e04e39" stroke-width=".030369"/></g></svg>