<svg viewBox="0 0 364.95 134.8" xmlns="http://www.w3.org/2000/svg"><g fill="#007150" transform="translate(-67.92 -179.52)"><path d="m237.76 181v66c0 13.9-7.9 28.6-31.6 28.6-21.4 0-31.7-11.1-31.7-28.6v-66h19.54v64.7c0 11.5 4.9 16 12 16 8.5 0 12.4-5.7 12.4-16v-64.7h19.4m31.7 94.7c-24.1 0-28.6-14.2-27.6-30.3h19.5c0 8.9.4 16.4 11.1 16.4 6.6 0 9.8-4.3 9.8-10.6 0-16.8-39.2-17.8-39.2-45.5 0-14.6 7-26.2 30.7-26.2 19 0 28.4 8.5 27.1 28h-19c0-7-1.2-14.1-9-14.1-6.3 0-10.1 3.5-10.1 9.9 0 17.7 39.2 16.1 39.2 45.4 0 24.2-17.7 27-32.5 27m130.9 0c-24.1 0-28.6-14.2-27.6-30.3h19.5c0 8.9.4 16.4 11.1 16.4 6.6 0 9.8-4.3 9.8-10.6 0-16.8-39.2-17.8-39.2-45.5 0-14.6 7-26.2 30.7-26.2 19 0 28.4 8.5 27.1 28h-19c0-7-1.2-14.1-9-14.1-6.3 0-10.1 3.5-10.1 9.9 0 17.7 39.2 16.1 39.2 45.4 0 24.2-17.7 27-32.5 27m-62-36.2h11.5v20.5l-1 .4a31.45 31.45 0 0 1 -9.7 1.8c-11.1 0-13.9-5.2-13.9-34.3 0-18.1 0-34.4 12.1-34.4 9.4 0 11.4 6.4 11.6 14.1h19.4c.2-18.1-11.5-28-29.8-28-31.9 0-33 23.9-33 47.3 0 35.3 3.8 49 36.6 49a124.63 124.63 0 0 0 25.3-3.2c.3-.1.9-.5.9-.9v-46.3h-30z"/><path d="m93.16 212.22.3.3c9.1 7.6 19 6.9 26.5 1.9 4.7-3.1 26.1-17.4 38.2-25.4v-8h-90.1v21.2c5.5-.9 14.4 0 25.1 10m33.9 35.3-10.6-10.2c-1.5-1.4-2.8-2.4-3-2.6a21.64 21.64 0 0 0 -20.3-3 12.13 12.13 0 0 0 -2.8 1.5l-22.2 14.9v26.88h90.1v-19.4c-2.1 1.3-14.3 7.9-31.2-8.1m-34.7-32.9c-.5-.4-1-.9-1.5-1.3-10.6-8.2-20.7-4.2-22.8-3.2v9.3l5.2-3.5s8-6 20.5.2zm12.5 12a16.61 16.61 0 0 1 -1.4-1.3c-9.4-8-18.6-6-22.3-4.6a12.13 12.13 0 0 0 -2.8 1.5l-10.2 6.8v9.5l17-11.5s7.9-5.9 20.3 0zm53.3 10c-3.5 2.4-7.1 4.8-8.6 5.8-3.2 2.1-10.6 7.5-23 1.6l1.5 1.4a16 16 0 0 0 1.94 1.6c8.9 6.6 18.3 5.7 25.4 1 1-.7 1.9-1.2 2.7-1.8l.1-9.6m0-19.1c-7.8 5.2-18.3 12.3-20.3 13.6-3.2 2.1-10.7 7.5-22.8 1.8l1.4 1.3c.2.1.3.3.5.4 9.4 7.9 19.7 6.7 26.8 2 4-2.7 9.7-6.5 14.4-9.7zm0-19c-11.2 7.5-29.6 19.9-31.9 21.3-3.2 2.2-10.9 7.6-22.8 1.9l1.4 1.4a23.74 23.74 0 0 0 3.3 2.6c8.3 5.3 16.9 4.3 23.9-.4 5.1-3.4 17.5-11.6 26-17.3v-9.5"/><path d="m72.66 302.72a4.85 4.85 0 0 0 -.2 2c.2.5.6.8 1.5.8a2.2 2.2 0 0 0 2.1-1.7c.7-3.5-7.5-2.7-6.4-7.9.8-3.5 4.5-4.6 7.5-4.6s5.6 1.5 4.6 5h-4.5c.2-1.1.3-1.8 0-2.1a1.25 1.25 0 0 0 -1.1-.4 1.94 1.94 0 0 0 -1.9 1.8c-.6 2.6 7.5 2.5 6.4 7.7-.6 2.9-3.4 5-7.2 5-4 0-6.5-1-5.2-5.6zm19.6-5.3c.5-2.4.1-3.3-1.4-3.3-2 0-2.5 1.7-3.2 5.1-1.1 5-.9 6.1.8 6.1 1.4 0 2.4-1.3 2.8-3.4h4.6c-.9 4.5-3.8 6.4-8.1 6.4-5.9 0-5.9-3.6-4.8-8.8 1-4.5 2.4-8.3 8.5-8.3 4.2 0 6.2 1.9 5.3 6.2zm14.3-12.2-.8 3.6h-4.6l.8-3.6zm-4.8 22.8h-4.6l3.5-16.4h4.6zm219.6-22.8-.8 3.6h-4.56l.8-3.6h4.6m-4.9 22.8h-4.6l3.5-16.4h4.6zm-201.1-10.1c.3-1.6.9-3.9-1.3-3.9s-2.6 2.5-2.9 3.9zm-4.8 2.6c-.4 2-1 4.9 1 4.9 1.6 0 2.3-1.6 2.6-2.9h4.7a7 7 0 0 1 -2.7 4.3 8.27 8.27 0 0 1 -5.2 1.6c-5.9 0-5.9-3.6-4.8-8.8 1-4.5 2.4-8.3 8.5-8.3s6 4 4.7 9.3zm17.5-7.3a5.24 5.24 0 0 1 4.4-2c2.2 0 3.8 1.3 3.3 3.6l-2.8 13.18h-4.6l2.4-11.3c.3-1.5.3-2.6-1.2-2.6s-2 1.1-2.3 2.6l-2.4 11.3h-4.6l3.5-16.4h4.6l-.3 1.6m18.2 4.2c.5-2.4.1-3.3-1.4-3.3-2 0-2.5 1.7-3.2 5.1-1.1 5-.9 6.1.8 6.1 1.4 0 2.4-1.3 2.8-3.4h4.6c-.9 4.5-3.8 6.4-8.1 6.4-5.9 0-5.9-3.6-4.8-8.8 1-4.5 2.4-8.3 8.5-8.3 4.2 0 6.2 1.9 5.3 6.2zm15.2.5c.3-1.6.9-3.9-1.3-3.9s-2.6 2.5-2.9 3.9zm-4.7 2.6c-.4 2-1 4.9 1 4.9 1.6 0 2.3-1.6 2.6-2.9h4.7a7 7 0 0 1 -2.7 4.3 8.27 8.27 0 0 1 -5.2 1.6c-5.9 0-5.9-3.6-4.8-8.8 1-4.5 2.4-8.3 8.5-8.3s6 4 4.7 9.3zm28-12.4c-1.8-.1-2.4.6-2.7 2.2l-.3 1.2h2.2l-.6 2.8h-2.1l-2.9 13.6h-4.6l2.9-13.6h-2l.6-2.8h2.1c.9-4.1 1.7-6.4 6.6-6.4a8.08 8.08 0 0 1 1.6.1zm7.5 11.2c.7-3.4.9-5.1-1-5.1s-2.5 1.7-3.2 5.1c-1.1 5-.9 6.1.8 6.1s2.3-1.1 3.4-6.1m-8.9.3c1-4.5 2.4-8.3 8.5-8.3s5.9 3.8 4.9 8.3c-1.1 5.1-2.6 8.8-8.6 8.8s-5.9-3.7-4.8-8.8zm21.6-8.1-.4 2.1h.1a5.14 5.14 0 0 1 4.8-2.4l-.9 4.1c-4-.3-4.5 2.1-4.9 3.7l-1.9 8.9h-4.6l3.5-16.4zm13.9 11.4c-.2 1.2-.4 2.6 1.1 2.6 2.7 0 3.1-3.6 3.4-5.4-2.3 0-3.9-.2-4.5 2.8m8 2c-.2 1-.3 2.1-.4 3.1h-4.3l.3-2.2h-.1a5.67 5.67 0 0 1 -4.8 2.5c-3.2 0-3.9-2.4-3.2-5.2 1.2-5.4 5.4-5.7 9.7-5.6l.3-1.3c.3-1.4.3-2.4-1.3-2.4s-2 1.2-2.3 2.5h-4.5a5.62 5.62 0 0 1 2.5-4 8.14 8.14 0 0 1 4.5-1.1c5.8 0 6 2.5 5.4 5.5zm18.2-7.5c.5-2.4.1-3.3-1.4-3.3-2 0-2.5 1.7-3.2 5.1-1.1 5-.9 6.1.8 6.1 1.4 0 2.4-1.3 2.8-3.4h4.6c-.9 4.5-3.8 6.4-8.1 6.4-5.9 0-5.9-3.6-4.8-8.8 1-4.5 2.4-8.3 8.5-8.3 4.2 0 6.2 1.9 5.3 6.2zm25.2 5.5c-.3 1.2-.4 2.6 1.1 2.6 2.7 0 3.1-3.6 3.4-5.4-2.3 0-3.9-.2-4.5 2.8m8 2c-.2 1-.3 2.1-.4 3.1h-4.3l.3-2.2h-.1a5.67 5.67 0 0 1 -4.8 2.5c-3.2 0-3.9-2.4-3.2-5.2 1.2-5.4 5.4-5.7 9.7-5.6l.3-1.3c.3-1.4.3-2.4-1.3-2.4s-2 1.2-2.3 2.5h-4.5a5.62 5.62 0 0 1 2.5-4 8.14 8.14 0 0 1 4.5-1.1c5.8 0 6 2.5 5.4 5.5zm10.1-11.7a5.24 5.24 0 0 1 4.4-2c2.2 0 3.8 1.3 3.3 3.6l-2.8 13.2h-4.6l2.4-11.3c.3-1.5.3-2.6-1.2-2.6s-2 1.1-2.3 2.6l-2.4 11.3h-4.6l3.5-16.4h4.6zm14.4 11.7c1.7 0 2.3-1.7 3-5.2s1-5.7-.7-5.7-2.3 1.2-3.3 6.2c-.3 1.6-1.2 4.7 1 4.7m9.3-13.3-3.6 17.1c-.2 1.1-1.1 5.6-7.4 5.6-3.4 0-6.2-.9-5.4-4.9h4.5a3.21 3.21 0 0 0 0 1.7 1.49 1.49 0 0 0 1.4.7c1.1 0 1.9-1.1 2.3-2.7l.7-3.2h-.2a4.78 4.78 0 0 1 -3.9 1.9c-5 0-3.8-4.6-3.1-8.3s1.8-8.2 6.6-8.2c1.6 0 2.9.7 3.2 2.2h.1l.4-1.9zm15.4 1.6a5.24 5.24 0 0 1 4.4-2c2.2 0 3.8 1.3 3.3 3.6l-2.8 13.2h-4.6l2.4-11.3c.3-1.5.3-2.6-1.2-2.6s-2 1.1-2.3 2.6l-2.4 11.3h-4.6l3.5-16.4h4.6zm14.5 11.7c1.7 0 2.3-1.7 3-5.2s1-5.7-.6-5.7-2.3 1.2-3.3 6.2c-.4 1.6-1.3 4.7.9 4.7m9.3-13.3-3.6 17.1c-.2 1.1-1.1 5.6-7.4 5.6-3.4 0-6.2-.9-5.4-4.9h4.5a3.21 3.21 0 0 0 0 1.7 1.49 1.49 0 0 0 1.4.7c1.1 0 1.9-1.1 2.3-2.7l.7-3.2h-.1a4.78 4.78 0 0 1 -3.9 1.9c-5 0-3.8-4.6-3.1-8.3s1.8-8.2 6.6-8.2c1.6 0 2.9.7 3.2 2.2h.1l.4-1.9zm7.2 0h4.6l-.4 12.4h.1l5.5-12.4h4.9l.1 12.4h.1l5-12.4h4.4l-7.8 16.4h-4.8l-.5-10.9h-.3l-5.5 10.9h-4.9l-.5-16.4m32 7.7c.7-3.4.9-5.1-1-5.1s-2.5 1.7-3.2 5.1c-1.1 5-.9 6.1.8 6.1s2.3-1.1 3.4-6.1m-8.9.3c1-4.5 2.4-8.3 8.5-8.3s5.9 3.8 4.9 8.3c-1.1 5.1-2.6 8.8-8.6 8.8s-5.9-3.7-4.8-8.8zm21.9-8-.5 2.1h.1a5.14 5.14 0 0 1 4.8-2.4l-.9 4.1c-4-.3-4.5 2.1-4.9 3.7l-1.9 8.9h-4.6l3.5-16.4zm-141.6-.4a5.06 5.06 0 0 0 -4.3 2h-.1l1.7-8h-4.6l-4.8 22.8h4.6l2.4-11.3c.3-1.5.8-2.6 2.3-2.6s1.5 1.1 1.2 2.6l-2.4 11.3h4.6l2.8-13.2c.4-2.3-1.2-3.6-3.4-3.6m149.3-6-4.8 22.8h4.6l4.8-22.8zm12.2 14.4c-.9 4.1-1.5 5.9-3.1 5.9s-1.6-1.7-.7-5.9c.7-3.3 1.1-5.6 3.1-5.6s1.4 2.3.7 5.6m3.1-14.4-1.7 7.9h-.1a3.14 3.14 0 0 0 -3.3-1.9c-4.6 0-5.6 5.1-6.3 8.4s-2 8.7 2.7 8.7a5 5 0 0 0 4.3-2.1h.1l-.4 1.8h4.4l4.8-22.8z"/></g></svg>