<svg viewBox="0 0 303.6 91.8" xmlns="http://www.w3.org/2000/svg"><g fill="#0f2439"><path d="m12.6 1.1v1 26.1c0 1.5.1 2.9.5 4.3 1 3.3 4 5.6 7.4 5.8 1.9.2 3.9 0 5.6-.8 2.7-1.3 3.9-3.7 4.3-6.4.2-1.3.3-2.6.3-3.9 0-8.4 0-16.7 0-25v-1c.3 0 .5-.1.7-.1h10.7c.5 0 .8.1.8.7 0 9.3 0 18.7-.1 28-.1 2-.4 4-.9 6-1.1 4.6-4.1 7.6-8.4 9.4-4.2 1.6-8.7 2.4-13.2 2.1-3.4 0-6.8-.5-10-1.6-6.1-2.2-9.3-6.7-10-13-.2-2.2-.3-4.4-.3-6.6 0-8 0-16 0-24 0-1 0-1 1-1z"/><path d="m180.5 14.2h-12.5c-.1-.7-.2-1.4-.3-2-.3-2.2-2.1-3.9-4.3-4.1-1.6-.3-3.3-.1-4.8.6-1.7.8-2.7 2.5-2.6 4.4 0 1.7 1.2 3.2 2.8 3.7 2.4.8 4.8 1.3 7.3 2 2.8.8 5.6 1.5 8.3 2.5 1.3.5 2.5 1.2 3.6 2 2.7 1.9 3.8 4.8 4.1 8 .2 1.8 0 3.6-.5 5.3-1.4 4.7-4.8 7.4-9.2 9-3.5 1.1-7.2 1.6-10.9 1.4-3.5 0-7-.6-10.2-1.8-5.5-2.1-8.3-6.2-8.8-12 0-.5 0-1 0-1.5h12.4c0 .5.1 1 .1 1.4.2 2.6 2.1 4.7 4.7 5.2 2.4.7 4.9.5 7.2-.6 2.2-1.2 3.1-3.9 2.1-6.1-.5-1.2-1.6-2-2.8-2.2-2.3-.7-4.7-1.2-7-1.9s-4.7-1.1-6.9-1.9c-1.6-.5-3.1-1.3-4.5-2.3-4.7-3.3-5.3-9.5-3.6-14.1 1.5-3.9 4.4-6.2 8.1-7.7 3.2-1.2 6.7-1.7 10.1-1.6 3-.1 5.9.3 8.8 1.1 3.9 1.1 7 3.2 8.5 7.1.5 2 .8 4.1.8 6.1z"/><path d="m105.3 1.2h11.8v17c.3-.2.4-.3.5-.4 2.8-2.6 6.5-3.9 10.3-3.6 3 .1 5.8 1.3 8 3.3 1.8 1.7 2.8 4.1 2.8 6.6.1 5.9.1 11.8.1 17.6v3.8c0 .4-.1.5-.5.5h-10.8c-.1 0-.2 0-.3-.1v-.8c0-5.4 0-10.8 0-16.2 0-1.5-.2-3-.6-4.5-.4-1.7-1.8-2.9-3.5-3-1.9-.4-3.8.4-4.8 2-1 1.7-1.4 3.6-1.3 5.5v16.1.9h-11.7z"/><path d="m229.5 25.9c.2-1.6-.1-3.3-.7-4.8-.8-1.5-2.9-2.1-4.8-1.4-1.5.6-2.6 2-2.5 3.6v.8h-11.2c-.2-2.8 1.1-5.6 3.3-7.3 1.9-1.4 4.2-2.3 6.5-2.6 4.4-.9 9-.7 13.4.6 2.2.6 4.2 2 5.5 4 1 1.6 1.5 3.5 1.5 5.3.1 7.2 0 14.5 0 21.7v.2h-10.9v-4l-.2-.1c0 .1-.1.2-.1.3-2.2 3.2-5.4 4.4-9.1 4.6-2.2.2-4.4-.2-6.4-.9-3.1-1.2-5.2-4-5.4-7.3-.2-1.6-.1-3.1.3-4.6.8-2.7 2.9-4.9 5.5-6s5.3-1.7 8.2-1.9c2.2-.1 4.5-.1 6.7-.2zm0 5.6c-1.1-.1-2.1-.1-3.2 0-1.4.1-2.9.4-4.3.9s-2.4 1.9-2.4 3.4c-.2 1.7.6 3.3 2.1 4.1 2.5 1.2 5.6.1 6.8-2.4 0-.1.1-.1.1-.2.8-1.9 1-3.9.9-5.8z"/><path d="m83.4 24.2h-11.1c0-1.6.3-3.3 1.1-4.7 1.1-1.8 2.7-3.2 4.7-4 3.6-1.4 7.5-2 11.4-1.7 2.6.1 5.2.6 7.6 1.7 3 1.3 5 4.2 5.3 7.4.1.8.2 1.6.2 2.4v20.1.8h-11v-4.3c-.1.1-.2.1-.3.2-2.1 3.2-5.3 4.5-9 4.6-2.2.2-4.5-.1-6.6-.9-3.1-1.2-5.3-4.1-5.4-7.4-.2-1.5-.1-3 .3-4.5.8-2.7 2.9-4.9 5.5-6s5.3-1.8 8.2-1.9c2.4-.1 4.8-.2 7.4-.2.2-1.7-.1-3.4-.9-5-.9-1.4-2.3-1.6-3.8-1.4-1.5.1-2.7 1.1-3.1 2.5-.3.8-.4 1.5-.5 2.3zm8.2 7.1c-1.7.1-3.3.2-4.9.4-.9.1-1.7.3-2.6.6-1.4.5-2.4 1.9-2.4 3.4-.2 1.7.6 3.4 2.2 4.1 2.4 1.2 5.4.2 6.6-2.2 1-2 1.3-4.2 1.1-6.3z"/><path d="m299.5 36.1c-.1.5-.2 1-.3 1.5-1.1 4.2-4 6.6-8 8-3.5 1.1-7.2 1.5-10.9 1.1-2-.1-3.9-.6-5.7-1.3-3.6-1.4-6.3-4.3-7.4-8-1.5-4.8-1.3-9.9.5-14.6 1.5-4.2 5.1-7.4 9.5-8.3 4.2-1.1 8.6-1 12.7.3 5.5 1.7 8.3 5.8 9.3 11.2.4 2.2.4 4.5.6 6.9h-22.7c.1 1 .1 1.8.3 2.7.2 1.5 1 2.9 2.1 3.9 2 1.6 6 1.4 7.7-.4.6-.7 1.1-1.6 1.3-2.5.1-.2.3-.4.5-.5h10.1c.2-.1.3 0 .4 0zm-22.2-9.6h11.3c-.1-4.1-2-6.5-5.5-6.5-3.5-.1-5.5 2.2-5.8 6.5z"/><path d="m258.1 5.6v9.3h7.4v7.5h-7.5c0 .2-.1.4-.1.5v11.5c0 .4 0 .8.1 1.2.3 2.2 1.2 3.1 3.4 3.2h3.9v7.2c-.8.1-1.7.2-2.5.3-3.4.4-6.8.3-10.1-.2-2.5-.5-4.6-1.5-5.5-4.1-.4-1.4-.7-2.8-.6-4.3-.1-4.8 0-9.6 0-14.5v-.9h-4.4v-7.5h4.5c0-1.5 0-2.9 0-4.3-.1-.4.2-.7.5-.8 3.5-1.4 6.9-2.7 10.4-4.1z"/><path d="m187.4 22.5h-4.4v-7.5h4.5v-3.6c0-1.3 0-1.3 1.2-1.8l9.2-3.7.8-.3v8.3c0 1.1 0 1.1 1 1.1h6.4v7.5h-7.5c0 .2-.1.4-.1.6 0 4.1 0 8.2.1 12.4 0 2.4 1.1 3.4 3.5 3.5h3.9c0 .1 0 .2.1.4v6.3c0 .4-.1.6-.5.7-4 .6-8.1.6-12.2 0-2.6-.5-4.8-1.7-5.6-4.4-.3-1.3-.5-2.6-.5-4-.1-4.8 0-9.6 0-14.4z"/><path d="m49.3 22.5h-4.3v-7.5h2.4 1.6s.6-.1.6-.6c0-1.2 0-2.5 0-3.7 0-.3.2-.5.4-.7 3.5-1.4 7.1-2.8 10.6-4.2h.2v1.3 7.3c0 .6.1.8.8.8h5.8.8v7.5h-7.4c0 .2-.1.4-.1.5 0 4.2 0 8.3.1 12.5.1 2.3 1.1 3.3 3.4 3.4 1.3.1 2.6 0 3.9 0 0 .2.1.3.1.5v6.1c0 .4 0 .6-.5.7-4.1.6-8.2.6-12.3 0-2-.2-3.8-1.3-4.9-3-.7-1.2-1-2.5-1.1-3.8-.1-.8-.1-1.6-.1-2.4 0-4.5 0-9.1 0-13.6z"/><path d="m.2 53.9h4.1v.8 17.9c0 1 .1 2.1.4 3.1.5 2.2 2.1 3.9 4.2 4.6 2.1.8 4.4.8 6.6 0 3-1.1 4.7-3.8 4.7-7.3 0-6.1 0-12.1 0-18.2v-.9h4.1v.6c0 6 .1 12 0 18.1 0 1.7-.3 3.5-.9 5.1-1 3.1-3.6 5.4-6.8 6.1-2.8.8-5.8.8-8.7 0-4.2-1.2-6.6-4-7.4-8.3-.2-.9-.3-1.9-.3-2.9 0-6 0-12.1 0-18.1-.1-.2 0-.4 0-.6z"/><path d="m155.2 74.1h-14.7c-.5 2.6.6 6.5 3.7 7.3 1.5.4 3 .2 4.4-.4 1.1-.6 1.8-1.7 2-2.9.1-.2.1-.5.2-.8h4.1c-.2 1.6-.8 3.1-1.8 4.3-1 1.1-2.3 1.9-3.8 2.3-2 .6-4.1.6-6.1.2-3.1-.6-5.5-3-6.2-6-.9-3-.9-6.2 0-9.1 1.2-4.4 5.5-7.2 10-6.5 1 .1 2.1.3 3.1.7 3 1.2 4.4 3.6 4.9 6.7.1 1.3.1 2.7.2 4.2zm-4.2-2.7c0-2.1-.3-4.1-2.3-5.3-1.8-1.2-4.1-1.2-5.8 0-1.9 1.2-2.4 3.2-2.5 5.4z"/><path d="m288.4 79.4c1.7-4.3 3.4-8.3 5-12.4.5-1.2 1-2.3 1.4-3.5.1-.4.5-.6.9-.6h3.5c-.1.3-.2.6-.3.8-3.9 9.1-7.7 18.2-11.6 27.2-.1.5-.6.8-1.1.7-1-.1-2.1 0-3.2 0 .2-.4.3-.8.4-1.1.8-2.1 1.6-4.1 2.5-6.2.2-.4.2-.9 0-1.4-2.7-6.4-5.4-12.8-8.1-19.3-.1-.2-.2-.4-.3-.8h4.1c.2 0 .4.4.5.7 2 4.9 3.9 9.8 5.8 14.7.2.4.3.7.5 1.2z"/><path d="m214.7 68.6h-3.9c0-.3-.1-.5-.1-.7-.1-1.2-.9-2.1-2.1-2.4-1.3-.5-2.8-.4-4.1.1s-2.1 1.9-1.8 3.3c.1.7.6 1.3 1.3 1.6.9.4 1.9.6 2.9.9 1.7.5 3.5.9 5.1 1.6 2.8 1.1 4.2 4.3 3.1 7.1-.4 1-1 1.8-1.9 2.4-2.3 1.8-5 2.1-7.8 2-2.1 0-4.1-.7-5.6-2.1-1.2-1.2-1.8-2.9-1.7-4.5h4c0 .1 0 .3.1.4.2 2.1 2.1 3.7 4.2 3.5h.3c.8-.1 1.6-.2 2.4-.5 1.4-.5 2.2-1.9 2-3.4-.1-.8-.6-1.5-1.4-1.8-1.4-.5-2.9-.8-4.3-1.2-1.4-.3-2.7-.8-4-1.3-3.8-1.7-3.6-6.6-1.2-8.8 1.5-1.3 3.3-2.1 5.3-2.2 2.7-.2 5.4.1 7.6 1.9 1.2.9 1.8 2.5 1.6 4.1z"/><path d="m47.4 62.9v3.1c.2-.3.3-.4.4-.5 1.4-2.1 3.9-3.3 6.5-3.1 1.7 0 3.3.5 4.7 1.5 1.7 1.2 2.7 3.1 2.6 5.1.1 4.8 0 9.5 0 14.2 0 .2 0 .3-.1.5h-3.9v-.8c0-4 0-8.1 0-12.1 0-.6-.1-1.3-.2-1.9-.2-1.8-1.7-3.3-3.5-3.5-2.1-.4-4.3.4-5.5 2.1-.7 1.1-1.1 2.4-1 3.8-.1 3.8 0 7.7 0 11.5v.9h-3.9v-.8c0-6.4 0-12.7 0-19.1 0-.7.2-1 .9-.9 1 .1 1.9 0 3 0z"/><path d="m100.4 62.9h3.9c.2 0 .5.4.5.6 2 5 4 10 6 14.9l.4.9c.1-.3.3-.5.3-.8 2-5 4-10 5.9-15 .2-.5.4-.7 1-.7h3.5c-.1.3-.2.5-.3.8-2.8 6.5-5.7 12.9-8.5 19.4-.1.4-.5.7-1 .7-.9 0-1.8 0-2.7 0-.3.1-.7-.1-.8-.5-2.8-6.6-5.5-13.3-8.3-19.9.2 0 .2-.1.1-.4z"/><path d="m252 62.9h3.5c0-1.1.1-2.2 0-3.3-.1-.9.3-1.2 1.1-1.4s1.9-.6 2.9-.9v5.6h4.7v2.8h-4.7v13.2c-.2 1.2.7 2.3 1.9 2.4h.5c.7 0 1.5-.1 2.3-.1v2.2.7c-1.8.3-3.6.3-5.4 0s-3-1.8-3.1-3.6c-.1-1.6 0-3.2 0-4.8 0-3.1 0-6.2 0-9.3 0-.6-.2-.8-.8-.8-.9 0-1.8 0-2.8 0z"/><path d="m172.6 62.9h3.5c.1 0 .4.3.4.5 0 1.1 0 2.1.1 3.3.5-1.5 1.5-2.7 3-3.4 1.4-.6 3-.8 4.5-.6v3.4c-1.1 0-2.3.1-3.4.2-2.6.5-4 2.2-4.1 5.2-.1 3.7-.1 7.4-.1 11.1v1h-3.9z"/><path d="m84.3 83.7h-3.8v-20.7h3.8z"/><path d="m236.2 83.7h-3.8v-20.7h3.8z"/><path d="m295.5 82.5c.1-2.3 2-4 4.3-3.9 2.1.1 3.8 1.8 3.9 3.9.1 2.3-1.6 4.2-3.9 4.3s-4.2-1.6-4.3-3.9c0-.1 0-.2 0-.4zm7.4 0c0-1.8-1.4-3.3-3.2-3.3s-3.3 1.4-3.3 3.2 1.4 3.3 3.2 3.3c1.8.1 3.2-1.4 3.3-3.2z"/><path d="m80.1 53.9h4.6v4.1h-4.6z"/><path d="m232.1 53.9h4.5v4.1h-4.5z"/><path d="m301.3 84.6c-.7.3-.9-.1-1-.7-.1-1.1-.3-1.2-1.4-1v1.8l-.8.1v-4.4c.7-.1 1.4-.1 2.1 0 1 .1 1.3 1.1.6 2 .2.8.3 1.5.5 2.2zm-2.4-2.4c.5-.2 1-.3 1.4-.5v-.4c-.4-.1-.9-.2-1.4-.4z"/></g></svg>