<svg viewBox="0 0 226 45" xmlns="http://www.w3.org/2000/svg"><path d="m51.2 2c-5.6 0-10.8 3.1-13.5 8l-3.3 6.1-.4.8-.4.7-10 18.4-16.3-30.5h7.3l5.8 10.9 3.1 5.7 3.2-5.6 6.1-10.9h5.3c1.3-1.4 2.8-2.6 4.4-3.6h-11.8l-7.1 12.7-6.9-12.7h-15.3l22.2 41.6 12.4-22.9 2.1-3.8.4-.7 2.4-4.4c.1-.2.3-.5.4-.7 1.6-2.5 4-4.3 6.9-5.1.8-.2 1.6-.4 2.4-.4h.8 32.4l-3.3 6.1h-15l-1 1.9-14 26h-7.4l12.2-22.6 2.8-5.2h-14.6c-.8 1.3-2 3.6-2 3.6h10.7l-15 27.8h15.4l14.9-27.9h15l7.1-13.3z" fill="#861f41"/><g fill="#e87722"><path d="m109.2 14.8s1.7-3.8 2.5-5.7 1.7-3.8 2.5-5.7c.2-.4.5-.8.9-1 .4-.3.8-.4 1.3-.4h2.1l-8.1 18.5h-3.1l-8-18.5h2.1c.2 0 .5 0 .7.1s.4.2.6.3.4.3.5.5c.2.2.3.4.4.6l5 11.4.3.7z"/><path d="m124.7 20.4h-3.4v-18.4h3.4z"/><path d="m162.7 10.6v7.7c-.5.5-1 .8-1.5 1.1s-1.1.5-1.7.7-1.2.3-1.8.4-1.3.1-1.9.1c-1.3 0-2.5-.2-3.7-.7-1.1-.5-2.1-1.2-3-2-.9-.9-1.5-1.8-2-3-.5-1.1-.7-2.4-.7-3.7 0-.9.1-1.7.3-2.5s.5-1.6 1-2.2c.4-.7.9-1.3 1.5-1.9s1.2-1.1 1.9-1.5 1.5-.7 2.3-.9 1.6-.3 2.5-.3c.7 0 1.4.1 2 .2.7.2 1.3.4 1.9.7s1.2.6 1.8 1.1c.6.4 1.1.9 1.6 1.4l-.8.8c-.2.2-.5.4-.8.6-.3.1-.6.2-1 .2-.5 0-.9-.1-1.3-.4-.5-.3-1-.6-1.6-.8s-1.2-.3-1.8-.3c-.8 0-1.6.2-2.3.5s-1.4.7-1.9 1.3c-.5.5-1 1.2-1.3 1.9s-.5 1.5-.5 2.3c0 .9.2 1.6.5 2.4.3.7.8 1.4 1.4 1.9s1.2 1 2 1.3 1.5.5 2.4.5c.4 0 .8 0 1.2-.1s.7-.1 1.1-.2.8-.3 1.1-.5v-2.6c-.4 0-.7 0-1.1 0-.3 0-.7-.1-.9-.2-.3-.1-.5-.3-.7-.7-.2-.3-.2-.8-.2-1.4v-1h6z"/><path d="m171.5 20.4h-3.4v-18.4h3.4z"/><path d="m180.5 6.6v13.8h-3.4v-18.4h3c.4 0 .8.1 1.1.2s.6.3.7.6c1.3 1.8 8.2 11.6 8.2 11.6v-12.4h3.4v18.5h-3.1z"/><path d="m202.5 20.4h-3.4v-18.4h3.4z"/><path d="m216.4 2h-3.1l-8.1 18.5h2.1c.2 0 .5 0 .7-.1s.4-.2.6-.3.4-.3.5-.4c.2-.2.3-.4.4-.6l1.1-2.5 2-4.5 2.2-5.2 2.7 6.3h-1.5c-1.1 0-2.2.7-2.6 1.7l-.7 1.7h6.4l1.1 2.5c.2.4.5.8.9 1s.8.4 1.3.4h2.1z"/><path d="m133.7 20.4h-3.4v-18.4h6.9c.9 0 1.7.2 2.4.5s1.3.8 1.9 1.3c.5.6.9 1.2 1.2 1.9s.4 1.4.4 2.2c0 .5-.1 1.1-.2 1.6s-.4 1-.6 1.5c-.3.5-.6.9-1 1.3s-.9.7-1.4 1c.9 1.2 1.8 2.4 2.7 3.7.9 1.2 1.8 2.4 2.7 3.6h-2.6c-.2 0-.4 0-.6-.1s-.5-.2-.8-.4-.5-.4-.8-.7-.6-.6-.8-1l-3.4-4.5h-2.5zm3.7-10c.3 0 .6-.1.9-.2s.6-.3.8-.6c.2-.2.4-.5.5-.8s.2-.6.2-.9-.1-.7-.2-1-.3-.6-.5-.8-.5-.4-.8-.6c-.3-.1-.6-.2-.9-.2h-3.7v5h3.7z"/><path d="m101.8 28.3v-3.3h14.3v3.3h-5.4v15.2h-3.4v-15.2z"/><path d="m130.7 43.5h-11.9v-18.4h11.9v3.2h-8.5v4.3h6.9v3.2h-6.9v4.5h8.5z"/><path d="m136.4 34.3c0 .8.2 1.6.5 2.4.3.7.8 1.4 1.3 1.9.6.5 1.2 1 1.9 1.3s1.5.5 2.4.5c.6 0 1.3-.1 1.8-.3.6-.2 1.1-.5 1.6-.8.2-.1.4-.2.6-.3s.4-.1.7-.1c.4 0 .7.1 1 .2s.5.3.8.5l.8.8c-.5.5-1 1-1.6 1.4s-1.1.8-1.8 1.1c-.6.3-1.2.5-1.9.7s-1.3.2-2 .2c-1.3 0-2.5-.2-3.7-.7-1.1-.5-2.1-1.2-3-2-.9-.9-1.5-1.8-2-3-.5-1.1-.7-2.4-.7-3.7 0-.9.1-1.7.3-2.5s.5-1.6 1-2.2c.4-.7.9-1.3 1.5-1.9s1.2-1.1 1.9-1.5 1.5-.7 2.3-.9 1.6-.3 2.5-.3c.7 0 1.4.1 2 .2.7.2 1.3.4 1.9.7s1.2.6 1.8 1.1c.6.4 1.1.9 1.6 1.4l-.8.8c-.2.2-.5.4-.8.5s-.6.2-1 .2c-.5 0-.9-.1-1.3-.4-.5-.3-1-.6-1.6-.8s-1.2-.3-1.8-.3c-.8 0-1.6.2-2.4.5-.7.3-1.4.7-1.9 1.3-.6.5-1 1.2-1.3 1.9-.5.5-.6 1.3-.6 2.1z"/><path d="m169.2 43.5h-3.4v-7.7h-9.1v7.7h-3.4v-18.4h3.4v7.6h9.1v-7.6h3.4z"/><path d="m177.8 43.5h-.5v-2.5l-1 2.5h-.3l-1-2.5h-.1v2.5h-.4v-3h.7l.9 2.1.9-2.1h.8z"/><path d="m173.9 41h-1v2.5h-.4v-2.5h-1v-.5h2.4z"/></g></svg>