<svg viewBox="0 0 526.6 146.5" xmlns="http://www.w3.org/2000/svg"><g fill="#006691" transform="translate(-19.09 -22.18)"><path d="m73.18 81.64-.06.06-5.12 11.3a38.49 38.49 0 0 1 2.83 14.9c0 15.66-8.21 28.37-20.64 28.37s-20.75-12.71-20.75-28.37 8.32-28.37 20.75-28.37a17 17 0 0 1 5.78 1l-3.1-8.39q-1.08-.14-2.19-.14c-18 0-31.59 16.18-31.59 36.46 0 19.44 11 35.31 30.22 35.31 18 0 31.81-16.18 31.81-36.57 0-10.29-2.64-19.2-7.94-25.56z"/><path d="m115.26 108.61c-3-4.23-6.63-6.16-10.31-6.16-8.39 0-13 8.27-13 16.91 0 8.45 4 17.36 13.08 17.36 7.83 0 13.81-6.25 13.81-6.25l1.29 7s-5.89 6.34-17.31 6.34c-12.07 0-19-11.58-19-23 0-13 7.18-24.81 21.27-24.81 6.63 0 11.6 2.3 15 6.43z"/><path d="m157.38 117.61-2.11 2.39h-25.7c.19 8.27 4.06 16.72 13 16.72 7.82 0 14.45-6.25 14.45-6.25l1.29 7s-6.53 6.34-18 6.34c-12.07 0-19-11.58-19-23 0-13 6.26-24.81 20.35-24.81 14.43 0 15.54 15.92 15.72 21.61zm-27.38-3.49h19c-.27-4.78-2-12.13-8.38-12.13s-9.3 5.51-10.62 12.13z"/><path d="m162.43 103.19s5.9-7.08 18-7.08c7.18 0 13.81 3.13 13.81 11.76v24.35c0 5.51 4.15 10.38 4.15 10.38l-8.57 1.2a15.05 15.05 0 0 1 -2.67-7.54c-2.48 3.77-8.93 7.54-14.64 7.54-6.26 0-11.88-4.6-11.88-11.4 0-10.2 10.68-17 25.88-17v-3.3c0-7.35-3.13-9.83-6.91-9.83-8.47 0-13.07 6.89-13.07 6.89zm24.13 28.29v-10.19c-2.39.09-17.59.36-17.59 9.74 0 2.94 2.12 6.15 7 6.15 4.03 0 8.75-3.58 10.59-5.7z"/><path d="m232.27 142.6v-26.46c0-8.73-1-12.86-6.72-12.86a17.13 17.13 0 0 0 -14.09 6.8v25.63l.92 6.89h-8.65v-36.75l-1.2-8.45 8.93-1v6.89a23.53 23.53 0 0 1 16.54-7.18c6 0 12 3.49 12 10.89v29l.92 6.7z"/><path d="m268.31 96c11.05 0 19.34 7.35 19.34 23 0 13.23-8.29 24.81-22.47 24.81-19 0-19.43-21.6-19.43-23.06 0-14.26 8.56-24.75 22.56-24.75zm-1.65 41.62c7.73 0 12.52-8.08 12.52-17.73s-4.79-17.73-12.52-17.73-12.44 8.08-12.44 17.73 4.7 17.75 12.44 17.75z"/><path d="m301.36 130.47c-1.85 2.3-2.58 3.95-2.58 5.15 0 7.53 31.13-4 31.13 14.06 0 9.83-11.24 15.25-21.83 15.25-16.67 0-19.16-9.74-19.16-9.74l5.71-5.24c2.3 6.62 8.66 9.1 14.46 9.1 6.82 0 12.53-3.22 12.53-7.26 0-11.21-29.29 1.74-29.29-14.24 0-3.86 3.32-7.63 5.16-9.28a17.69 17.69 0 0 1 -6.49-13.88c0-10.56 7.78-18.39 19.1-18.39 6 0 8.75 2.57 8.75 2.57l1.66-1.19h12.07l-1.85 6.25h-7.36a15.51 15.51 0 0 1 3 9.46c0 12.59-8.85 18.65-18.15 18.65a18.65 18.65 0 0 1 -6.86-1.27zm7.45-4.41c5.16 0 9.49-5.42 9.49-12.13s-4.33-12.21-9.49-12.21-9.76 5.51-9.76 12.21 4.61 12.13 9.76 12.13z"/><path d="m361.22 106.13a7.79 7.79 0 0 0 -4.7-1.93c-5.89 0-12.34 6.8-12.34 15v16.54l.92 6.89h-8.65v-36.78l-1.2-8.45 8.93-1v10.1c1.75-3.12 6-10.47 14.37-10.47a7.87 7.87 0 0 1 5.8 2.57z"/><path d="m365 103.19s5.9-7.08 18.05-7.08c7.19 0 13.82 3.13 13.82 11.76v24.35c0 5.51 4.14 10.38 4.14 10.38l-8.56 1.2a15 15 0 0 1 -2.67-7.54c-2.49 3.77-8.93 7.54-14.64 7.54-6.27 0-11.89-4.6-11.89-11.4 0-10.2 10.69-17 25.88-17v-3.3c0-7.35-3.13-9.83-6.9-9.83-8.47 0-13.08 6.89-13.08 6.89zm24.13 28.29v-10.19c-2.39.09-17.59.36-17.59 9.74 0 2.94 2.12 6.15 7 6.15 4.02 0 8.71-3.58 10.55-5.7z"/><path d="m406.26 105.85-1.19-8.45 8.93-1v5.42a17.19 17.19 0 0 1 13.07-5.61c8.85 0 16.58 8.09 16.58 22.79 0 13.23-9.21 24.81-22.47 24.81-2 0-4.61-.28-7.18-.55v14.51l.92 10.6h-8.66zm16.39 32c6.82 0 12.43-8.36 12.43-18 0-10.39-4.6-17.09-10.68-17.09s-10.4 6-10.4 6v28.48a80.42 80.42 0 0 0 8.65.58z"/><path d="m478.34 142.6v-26.46c0-8.73-1-12.86-6.72-12.86a17.13 17.13 0 0 0 -14.09 6.8v25.63l.92 6.89h-8.66v-59.9l-2.47-11.1 8.93-1 1.28 32.69a23.52 23.52 0 0 1 16.47-7.18c6.08 0 12.07 3.49 12.07 10.84v29l.92 6.7z"/><path d="m498.51 78.93a4.85 4.85 0 0 1 4.7 4.78 5 5 0 0 1 -4.7 5 5 5 0 0 1 -4.79-5 4.81 4.81 0 0 1 4.79-4.78zm4.33 56.78.92 6.89h-8.66v-36.75l-1.19-8.45 8.93-1z"/><path d="m540.2 108.61c-2.94-4.23-6.63-6.16-10.31-6.16-8.38 0-13 8.27-13 16.91 0 8.45 4 17.36 13.08 17.36 7.83 0 13.82-6.25 13.82-6.25l1.28 7s-5.89 6.34-17.31 6.34c-12.06 0-19-11.58-19-23 0-13 7.18-24.81 21.27-24.81 6.63 0 11.61 2.3 15 6.43z"/><path d="m422.82 166.51.26 1.85h-2.6v-14l-.34-2.27h2.68z"/><path d="m440.37 166.51.16 1.85h-1.22l-9.74-10.36-1.12-1.6v10.11l.26 1.85h-2.39v-14l-.33-2.27h1.58l9.53 10.26 1.14 1.6v-9.55l-.33-2.27h2.46z"/><path d="m443 164.73a6.67 6.67 0 0 0 4.46 2.17 2.62 2.62 0 0 0 2.78-2.68c0-3.26-7.45-3.39-7.45-7.75a4.74 4.74 0 0 1 5-4.64 8.25 8.25 0 0 1 4.29 1.16l-.68 1.8a6.35 6.35 0 0 0 -3.69-1.21 2.33 2.33 0 0 0 -2.49 2.22c0 3.56 7.32 3.26 7.32 8.09 0 2.79-2 4.79-5.17 4.79a6.33 6.33 0 0 1 -4.64-1.83s.27-2.12.27-2.12z"/><path d="m453.71 152.13h11.14v1.87h-4.29v12.51l.26 1.85h-2.6v-14.36h-4.51z"/><path d="m470.21 152.13h11.14v1.87h-4.29v12.51l.26 1.85h-2.59v-14.36h-4.52z"/><path d="m496.91 152.13h11.14v1.87h-4.29v12.51l.27 1.85h-2.6v-14.36h-4.52z"/><path d="m469 166.51.26 1.85h-2.59v-14l-.34-2.27h2.67z"/><path d="m493.84 154.4-.33-2.27h2.49v9.74c0 4-2.76 6.81-7 6.81-6.12 0-6.28-5.77-6.28-6.17v-8.11l-.33-2.27h2.67v10.19a4.37 4.37 0 0 0 4.41 4.56 4.46 4.46 0 0 0 4.36-4.74z"/><path d="m511.79 166.51.26 1.85h-2.59v-14l-.34-2.27h2.67z"/><path d="m529.28 160.1c0 4.78-3.4 8.58-7.84 8.58-4.76 0-7.46-3.73-7.46-8.29 0-4.76 3.35-8.56 7.79-8.56 5.01 0 7.51 3.53 7.51 8.27zm-7.64 6.8c3.07 0 5.09-3 5.09-6.66s-2-6.66-5.09-6.66-5.11 3-5.11 6.66 2.05 6.66 5.11 6.66z"/><path d="m545.53 166.51.16 1.85h-1.22l-9.74-10.36-1.12-1.6v10.11l.26 1.85h-2.39v-14l-.34-2.27h1.59l9.53 10.26 1.14 1.6v-9.55l-.34-2.27h2.47z"/><path d="m140 42.69c10.69 0 18.71 6.61 18.71 20.67 0 11.91-8 22.33-21.74 22.33-18.37 0-18.81-19.44-18.81-20.76.03-12.82 8.32-22.24 21.84-22.24zm-1.61 37.46c7.49 0 12.12-7.28 12.12-16s-4.63-16-12.12-16-12 7.27-12 16 4.55 16 12.03 16z"/><path d="m183.49 42.69c10.69 0 18.71 6.61 18.71 20.67 0 11.91-8 22.33-21.74 22.33-18.37 0-18.81-19.44-18.81-20.76 0-12.82 8.29-22.24 21.84-22.24zm-1.61 37.46c7.49 0 12.12-7.28 12.12-16s-4.63-16-12.12-16-12 7.27-12 16 4.51 16 12 16z"/><path d="m241.3 75.27c0 5 4 9.34 4 9.34l-8.3 1.08a14.2 14.2 0 0 1 -2.59-6c-4.28 4-9 6-13.28 6-8.55 0-16-7.28-16-20.51 0-11.91 8.91-22.33 21.75-22.33 2 0 4.45.25 6.95.5v-12.65l-1.16-7.61 8.65-.91zm-7.49-.75v-25.71a83.24 83.24 0 0 0 -8.38-.58c-6.59 0-12 7.52-12 16.2 0 9.51 4.81 15.63 10.6 15.63 3.09 0 6.75-1.9 9.78-5.54z"/><path d="m248.66 74.19s5.08 5.54 12.66 5.54c4.27 0 7.84-1.4 7.84-5.54 0-7.44-21.75-7-21.75-19.35 0-7.44 6.51-12.15 14.88-12.15 6.87 0 10.61 1.57 12.84 2.81l-2.13 6.61c-3.48-3.3-8.11-4.13-11.41-4.13-3.65 0-6.59 2.15-6.59 4.88 0 8.85 21.74 6.94 21.74 20.25 0 7.37-6.06 12.58-15.5 12.58-9.1 0-13.37-4.8-13.37-4.8z"/><path d="m343.18 78.41.89 6.2h-8.91v-24.81h-31.37v18.61l.89 6.2h-8.92v-46.8l-1.15-7.61h9.18v23h31.37v-15.39l-1.16-7.61h9.18z"/><path d="m370 42.69c10.69 0 18.71 6.61 18.71 20.67 0 11.91-8 22.33-21.74 22.33-18.36 0-18.81-19.44-18.81-20.76-.01-12.82 8.28-22.24 21.84-22.24zm-1.61 37.46c7.49 0 12.12-7.28 12.12-16s-4.63-16-12.12-16-12 7.27-12 16 4.51 16 11.99 16z"/><path d="m401.06 78.41.89 6.2h-8.37v-53.91l-1.16-7.61 8.64-.91z"/><path d="m441.76 62.12-2.05 2.15h-24.87c.18 7.44 3.92 15 12.57 15 7.58 0 14-5.63 14-5.63l1.24 6.36s-6.33 5.71-17.38 5.71c-11.68 0-18.36-10.42-18.36-20.68 0-11.66 6.06-22.32 19.7-22.32 13.9-.02 14.97 14.29 15.15 19.41zm-26.47-3.12h18.35c-.26-4.3-1.95-10.92-8.1-10.92s-9.01 4.92-10.25 10.92z"/><path d="m99.23 87.73-5.74-1.11-11-28-1.38-4.73-1.86 4.82-13.78 30.66-4.28-5.87-17.51-43.87-5.37-9.44h10.91l14.51 37.74 1.94 7.2 2.41-7.2 9.24-22.56-4.39-11.37h9.24l13 34 1.94 7.2 2.4-7.2 15.35-37.74h8.31z"/></g></svg>