<svg xmlns="http://www.w3.org/2000/svg" viewBox="0 0 576.02 209.36">
  <defs>
    <style>
      .cls-1 {
        fill: #c8c8c8;
        fill: rgba(255, 127, 132, 0.3);
        stroke: rgba(255, 95, 100, 0.3);
        stroke-miterlimit: 10;
      }

      .cls-1, .cls-2 {
        fill-rule: evenodd;
      }

      .cls-2, .cls-3 {
        fill: #ffb4b6;
        fill: rgba(255, 180, 182, 0.4);
        stroke: rgba(255, 95, 100, 0.3);
        stroke-miterlimit: 10;
      }

      .cls-4 {
        fill: #ff7f83;
        fill: rgba(255, 180, 182, 0.5);
        stroke: rgba(255, 95, 100, 0.3);
        stroke-miterlimit: 10;
      }

      .cls-5 {
        fill: #ff5f64;
        fill: rgba(255, 95, 100, 0.3);
        stroke: rgba(255, 95, 100, 0.3);
        stroke-miterlimit: 10;
      }

      .cls-6 {
        fill: #ff94a0;
        fill: rgba(255, 148, 162, 0.5);
        stroke: rgba(255, 95, 100, 0.3);
        stroke-miterlimit: 10;
      }
    </style>
  </defs>
  <title>flood</title>
  <g id="Layer_5" data-name="Layer 5">
      <path class="cls-2" d="M438.41,415.74a6,6,0,0,0-3.9-2.95c-3.8-.78-4.07-2-5.33-3.48-1-1.15,3.8-3.06,3-4.17-1.05-.78-5.84-1.3-8.3-3.23-.84-.65-.36-.78.72-2.42a18.45,18.45,0,0,0-2.74-1.86,13.69,13.69,0,0,1,4.09.49c3.35-.83,6.88-2,10.12-2.61l2.64-.71c-.57-2.09-4.47-3.82-4.86-5.68-.22-1.05,3.07-3.42,4.17-4.45,1.66-1.57,3.37-3,4.59-4.36l.65-.58c9.41-7.11,14.8-14.46,19.94-21.83-1-1.19-4.07-2.51-3.19-3.59a21.29,21.29,0,0,1,1.94-3.35,19,19,0,0,1,1.79-3.11,9.8,9.8,0,0,0,.93-1.06c4.57-1.79,8.68-1.25,13.67-3l4.72-1.26a20.48,20.48,0,0,1,3.14-.74c3.44-1.12,7.6-1.41,10.9-2.32,4.61-1.25,7.74-3.2,12.22-4.58-4.63-1.28-9.28-2.52-13.94-3.75-6.45.78-11.42,2.24-17.32,2.92-1.67.19-4.19.18-6.2.25-5.88.21-12.22.3-18.05.59l-2.64.7-5.66,1.52-5.85,1.57a14.69,14.69,0,0,1-2.71.82l-5.66,1.52-5.85,1.57a17.11,17.11,0,0,1-2.9.88,27.41,27.41,0,0,1-3.52.84c-1.46.23-2.69.07-4.09.19l-1.61,0c-2.53-.32-6.19.58-8.6,0-1.89-.47-2.44-1.66-4.69-2.38a6.12,6.12,0,0,1-1.33-.45c-3.35-1.57-7-2.65-10.33-4.21,0,0-.05-.55.65-.58.33-.09.4-.19.33-.29,4.25-.46,7.85.21,12.84-1.52a13.86,13.86,0,0,1,2.71-.83l5.47-1.47c.67-.31,2.53-.5,3.4-.91,1.26-.59,1.16-2.55,1.5-3.43,1.35-3.44,2.84-7.1,3.9-10.35-4.21.22-9.26.3-13.92.09-2.4-.11-4.11,0-5.57-1.14l-2.27-1.31c-.24-.24-1.27-.53-1-.74-1.48-2.16-6.82-.55-9.64-1.26a7.76,7.76,0,0,1-2.75-1.59c-2.28-1.46-5.28-3.23-7.88-4.87-11.66,2.53-25.27,5.68-37.57,8.45-1.79.41-3.8,1.05-5.34,1.23-1.87.22-3.93-.4-5.85-.35l-11.7,3.13c-1.36.6-4.05,1.12-5.92,1.69l-8.11,2.18-3.59,1a43.37,43.37,0,0,1-13.61,2c-4.43,0-9.36-.38-13.28-.49-3.91-2.2-7-4.34-7.66-6.34a2.66,2.66,0,0,1-.56-1c-2.85.08-5.22-.53-8-.18-.94.12-1.71.5-2.76.64a59.75,59.75,0,0,1-7.23-.18c-2.62-.11-5-.28-7.09-.43-3.28-1.31-4.5-2.91-7.44-4-2.73-1-9.38-.87-12.39-1.74l-.19,0c.58,1.72-1.22,3.3-2.59,5.05a15.6,15.6,0,0,1-2.79,3.17c-1.32,1-3.85,1.86-4.88,2.93a7.7,7.7,0,0,0-1,2.29c-1.7,3.77-3,7.46-4.45,11.3-.59,1.51-1.78,3.17-1.82,4.53-.06,1.81,1.1,3.83,1.64,5.73a25.13,25.13,0,0,0,1.94,5.75c2.14,3.8,4.35,7.55,4.7,11.49a12.41,12.41,0,0,1-.79,3.85c-.17.65-.3,1.29-.49,1.95s-.87,1.26-1.11,1.91a3.65,3.65,0,0,1-.53.65,41.76,41.76,0,0,0-2.71,3.86,3.92,3.92,0,0,1-.82,1.44,4.69,4.69,0,0,1-.9,1.55c-.23.34-.71.66-.43,1a4.31,4.31,0,0,1-1.3,2c-1,1.11-1.83,2.25-2.81,3.48s-2.43,2.52-1.88,3.54c.91,1.7,6.7,4.91,10.25,6.56,3.07,1.43,5.74,1.41,10.17,1.72,7.33.52,13.93,1.11,21.51,1.42,10,.41,20.2,1.24,26.52,1.79l3.32.76c5.74,2,10.17,3.74,14.6,6.68a31.29,31.29,0,0,1,4.34,3c4.15,4.39,3.17,8.93,4.17,12.94a2.63,2.63,0,0,1,2.15.31l-2.07.37c.36,2.27,2.65,4.66,7.19,7.18.59,0,.9.46,1.38.64l2.39,1.38,1.68,1a27.83,27.83,0,0,0,7.49,3c2.2.46,7.55.18,10.88.22,3.88.05,7.47.18,10.88.22s7.16.22,11,0,8.43-.34,11.43-.73c3.2-.42,6.45-1.25,9.33-1.79,3.08-.59,5.76-1,8.87-1.27l-2-1.17c-.48-.38-1.76-.81-1.72-1.16l-1.56-.89c.69-1.35,5-2,7.74-3.19,1.82-.76,3.18-2.06,5.29-2.53,3.49-.79,8.48,0,12.17-.63a20.39,20.39,0,0,1,4-1.06l2.64-.71c.75-.47.95-1.17,2.44-1.46,2.9-.58,7.28.68,10.55.51,1.08-.06,2.39-.45,3.81-.52,3-.13,9.5.95,12.28.55,5.45-.77,8.48-3.1,13.82-2.39l3.77-1c1.11-.51-3.61-1.27-4.32-1.88A26.51,26.51,0,0,1,438.41,415.74Z" transform="translate(-10.02 -276.35)"/>
      <path class="cls-2" d="M289.56,451.74c-3.07.82-14.9,1.8-17.63,1.43.54-.71-6.33-.51-6.05-1.24-6.91.87-9.9,2.16-11.26.08-.46-.71-.25-1.67-.47-2.5a8.26,8.26,0,0,1-.27-4.79,5.39,5.39,0,0,1,.82-2.24c1.09-1.12,3.47-2.05,5.09-3.28a12.28,12.28,0,0,0,2.52-.78l3.21-.86,3.77-1c.62-.23,2-.41,2.14-.67l3.4-.91,3.77-1c.63-.24,2-.42,2.15-.68l.94-.25a8.73,8.73,0,0,0,2.31,1.81l1.67,1,2.39,1.38c.49.18.79.66,1.39.64l3.23,1.87c.52.2.87.71,1.5.71,2.86,1,5.38,2.28,8.73,3.12,3,.75,6,.66,9.49.69,0,0,.85.41-6.75,2.78-5.35,1.76-4.62.8-8.44,1.71C296.63,449.41,291.84,450.8,289.56,451.74Z" transform="translate(-10.02 -276.35)"/>
      <path class="cls-3" d="M160.94,408.45a153.39,153.39,0,0,1,17.75-2.83c2.19-1.36,4.55-2.7,6.49-4.07-1.21-1.1-3.74-2.29-4.74-3.38,1.62-.91,4.07-1.77,6.16-2.66-1.58-1.7-4.24-3-4.62-4.42-.43-1.63,1.32-3.47,2.59-5s2.59-3.32,3.64-4.91a5.89,5.89,0,0,1-1.46-.52,35.4,35.4,0,0,1-4.37-2.37,52.57,52.57,0,0,1-9.4-6.38l.19-.05c.3-2-.48-3.94,2.39-5.8,4-2.62,11.58-4.79,18.14-7.39-3-4-3.73-8.19-4.77-12.17-.36-1.35-1.26-2.73-1.19-4,.17-2.7,2.86-5.3,3.14-7.92-6,1.52-7.9,3.23-11.07,5.09s-6.18,3.35-7.8,5.23c-3.18.66-4.55,1.73-7.12,2.11-1.93.28-5.69-.39-7.64-.58-2.89-.29-5.43-.49-7.57-.71a32.37,32.37,0,0,1-3.9.95l-8.3,2.22-9.62,2.58c.08,1.9.48,3.82.52,5.72l-7.17,3c-2.52,1.07-5.85,1.89-7.91,2.93s-.52,2.27-5.26,3c-.05.25-1.4.41-2,.63l-3.2.86c0,.24-1.4.41-2,.62l-3,.81c-.05.25-1.4.41-2,.63l-1.32.35a22,22,0,0,0-.31,4.13,12.88,12.88,0,0,1,2.19.63c2.25,1.38,10,1.59,13.34,2.59,3.57,1.06,5,2.95,9.32,3.47,2.86-.07,6.15-.88,8.83-.65a34.15,34.15,0,0,1,4.25,2.3l4.79,2.76a28.56,28.56,0,0,1,3.78,2l5.62,3.25c1.87,2.22,2.27,4.34,3.57,6.53a68.92,68.92,0,0,1,6.91.53c3.33.46.81,2.07-.82,3.23a7.75,7.75,0,0,0-2.63,2.75c-.31,1-1.51,2.33-1.63,3.22C152.55,407.18,156.51,409.46,160.94,408.45Z" transform="translate(-10.02 -276.35)"/>
      <path class="cls-3" d="M179.42,371.75c1.33,1.7,4.82,3,7.76,4.8,1.06.06,2.07,1.5,2.84,1.16,3.93-5.27,7.49-10.57,4.75-16.24a98.84,98.84,0,0,0-14,5.66C180.25,368.43,178.38,370.41,179.42,371.75Z" transform="translate(-10.02 -276.35)"/>
      <path class="cls-4" d="M227.75,345.29c4.67.11,9.59.24,13.34,1.23,2.34.62,4.07,1.54,6.58,2.05,6.65,1.37,16.78-2.14,23.05-4.06a42.59,42.59,0,0,1,19.47-1.42c1.79.26,4.57.1,6.34.38a59.53,59.53,0,0,0,13.35.6,100,100,0,0,1,16,1.16c2.51.9-.13,4.18-.77,5.53s-5.06,2.29-5.36,3.75c-.1.47,7.88,1.4,10.46,2.14,5.95,1.7,25.63,9,27.83,10.18,7.09,3.81,19.89,10.87,22,12.95,1,1,1.5,3,.95,3.75-1.65,2.26-15.33,6.14-15.33,6.14,3.18.46,15.22,1.29,18.35,1.79s6.05,1.34,9,2.06a122.72,122.72,0,0,0,22.51,3.12c-9.44,3.51-22.64,5-35.3,5.86s-25.7,1.41-37.46,3.58c-4.43.82-10.85,1.39-15.49,2a84.67,84.67,0,0,1-16.84.77c-6.91-.39-13.66-1.05-20.14-2-4.34-.61-11.71-1.54-16.33-1.82-2.9-.17-7.19-2.76-12.14-3.19-9.17-.8-15.76-1-25.07-1.65-6.19-.4-11.43-.66-17.52-1.22-4.28-.39-11.09-.4-13-1.41-7-3.64-13.81-5.35-9.9-9.87,2.94-3.41,5.6-8.79,8-12.25,1-1.49,9.94-4,9.62-5.5-.79-3.75-1.2-6.27-6.49-9.33-.26-.15-1.78-3.5-2.33-4.58a28.79,28.79,0,0,1-1.65-3.15c-.59-1.72-2.4-6.24-2.28-7.44C201.1,345.44,223,345.27,227.75,345.29Z" transform="translate(-10.02 -276.35)"/>
      <path class="cls-5" d="M237.71,372.47c2.11-.05,2.41.82,7.61.82,2.93,0,7.81.21,10.55.54.76.09,3.95-.84,6.35-2,1-.48,4.28-3.71,5.5-4.34s10.5-4.86,15.71-5.08a34.27,34.27,0,0,0,10.1-2.2,107.63,107.63,0,0,1,12-2.39c4.31-.57,14.22-3.32,14.22-3.32-.1.47,7.88,1.4,10.46,2.14,5.95,1.7,25.63,9,27.83,10.18,7.09,3.81,19.89,10.87,22,12.95,1,1,1.5,3,.95,3.75-1.65,2.26-15.33,6.14-15.33,6.14a40.07,40.07,0,0,0-7.31-.62c-4,.11-9.94-.82-13.55-.76-6.73.1-10.46-1-13.37-.71-6.48.94-6.32,4.72-18.87,5.83-6.94.62-8.26-1.69-17-.92-9.15.81-12.55.59-16.19.88-1.4.11-8.86.95-10.91,1.34,0,0-3.12-.52-6.26-1,0,0-3.51-.52-5.47-.73-2.91-.31-5.76-1.72-10.72-2.1-3.84-.3-6.9.1-12.11.33-6.36.27-12.09.38-15.87-.24-4-.66-8.3-1.4-11.41-1.85l-10.35-1.47c2.94-3.41,5.6-8.79,8-12.25,1-1.49,9.94-4,9.62-5.5l5.33.61a33.93,33.93,0,0,0,5.44,1.18A125.49,125.49,0,0,0,237.71,372.47Z" transform="translate(-10.02 -276.35)"/>
      <path class="cls-4" d="M282,393.28c4.67.1,7.37-.34,10.7-.52,2.92-.16,8-.69,10.5-.18a31.65,31.65,0,0,0,17.52-.74c6.27-1.92,7.12-5.13,14.19-4.08,1.8.27,5.7.38,7.54.45,5.15.21,5.62.3,11.34.77,2.65.22,5.64-.05,7.52.19,2.22.28,4.33.5,4.33.5,3.18.46,15.22,1.29,18.35,1.79s6.05,1.34,9,2.06a122.72,122.72,0,0,0,22.51,3.12c-9.44,3.51-22.64,5-35.3,5.86s-25.7,1.41-37.46,3.58c-4.43.82-12.54,1.54-17.18,2.12a69.15,69.15,0,0,1-15.15.61c-6.91-.39-13.66-1.05-20.14-2-4.34-.61-11.71-1.54-16.33-1.82-2.9-.17-7.19-2.76-12.14-3.19-9.17-.8-15.76-1-25.07-1.65-6.19-.4-11.43-.66-17.52-1.22-4.28-.39-11.09-.4-13-1.41-7-3.64-14.21-6.57-9.9-9.87.52-.4,6.7.83,14.48,2.12,3.55.59,8.48,1.69,10.81,1.65,9.9-.19,11.55,0,13.48-.4.45-.08,9.21-.2,11-.14,2.16.07,9.48,2,12.15,2.22-1.38-.09,5.65.62,10.3,1.57A110.39,110.39,0,0,1,282,393.28Z" transform="translate(-10.02 -276.35)"/>
      <path class="cls-4" d="M178.69,405.62c2.19-1.36,4.55-2.7,6.49-4.07-1.21-1.1-3.74-2.29-4.74-3.38,1.62-.91,4.07-1.77,6.16-2.66-1.58-1.7-4.24-3-4.62-4.42-.43-1.63,1.32-3.47,2.59-5s2.59-3.32,3.64-4.91a5.89,5.89,0,0,1-1.46-.52,35.4,35.4,0,0,1-4.37-2.37,52.57,52.57,0,0,1-9.4-6.38l.19-.05c.3-2-.48-3.94,2.39-5.8,4-2.62,11.58-4.79,18.14-7.39-3-4-3.73-8.19-4.77-12.17-.36-1.35-1.26-2.73-1.19-4,.17-2.7,2.86-5.3,3.14-7.92-6,1.52-7.9,3.23-11.07,5.09s-6.18,3.35-7.8,5.23c-3.18.66-4.55,1.73-7.12,2.11-1.93.28-5.69-.39-7.64-.58-2.89-.29-5.43-.49-7.57-.71a32.37,32.37,0,0,1-3.9.95l-8.3,2.22-9.62,2.58c.08,1.9.48,3.82.52,5.72a2.88,2.88,0,0,1-.63,2.42c-.53,1.39.79,3.63,1.51,6.07,0,.25,11,3.8,11.66,4.13,5.24.72,9.61,1.13,13,2.13,3.57,1.06,10.29,3.05,14.58,3.56.31,1.16.47,3,.71,3.88,5.4,2.25,1.74,5.68,1,6.87-.56,1.76-6.16,4.07-7.83,5.65,4.27,1.31,8.39,1.92,8.64,2.15.82.77.05,4.54,1.34,5.69.91.81,2.5,2,2.38,2.87C175.2,403.39,176.88,404.3,178.69,405.62Z" transform="translate(-10.02 -276.35)"/>
      <path class="cls-4" d="M179.42,371.75c1.33,1.7,4.82,3,7.76,4.8,1.06.06,2.07,1.5,2.84,1.16,3.93-5.27,7.49-10.57,4.75-16.24a98.84,98.84,0,0,0-14,5.66C180.25,368.43,178.38,370.41,179.42,371.75Z" transform="translate(-10.02 -276.35)"/>
      <path class="cls-6" d="M227.75,345.29c4.67.11,9.59.24,13.34,1.23,2.34.62,4.07,1.54,6.58,2.05,6.65,1.37,16.78-2.14,23.05-4.06a8.27,8.27,0,0,0-2.59-.92c-3.65.09-5.53-1.08-6.51-1.17-2.68-.25-5.23-1.16-6.56-1.32-1.84-.23-8-.13-9.05-.24a104.9,104.9,0,0,0-14.41-.22c-2.11.12-9.88,1.12-13.77.93-1.94-.09-5.84-.16-7.25-.2-.48,0-5.46,1.08-6.6,1a20.78,20.78,0,0,0-3.7.55,7.25,7.25,0,0,0,.82,2.52S223,345.27,227.75,345.29Z" transform="translate(-10.02 -276.35)"/>
  </g>
</svg>
