<svg id="Layer_2" data-name="Layer 2" xmlns="http://www.w3.org/2000/svg" viewBox="0 0 499.42 187.51">
  <defs>
    <style>
      .cls-1 {
        fill: #e0ebf4;
        stroke: #98afcf;
        fill: rgba(245, 72, 31, 0.2);
        fill: rgba(255, 255, 255, 0.7);
        stroke: rgba(245, 72, 31, 0.3);
        stroke: rgba(160, 210, 150, 0.7);
        stroke-miterlimit: 10;
        stroke-width: 1px;
      }
    </style>
  </defs>
  <title>land</title>
  <g>
    <ellipse class="cls-1" cx="298.1" cy="400.49" rx="5.23" ry="2" transform="translate(-64.52 -325.72) rotate(-1.72)"/>
    <ellipse class="cls-1" cx="313.22" cy="396.44" rx="5.23" ry="2" transform="translate(-64.39 -325.27) rotate(-1.72)"/>
    <ellipse class="cls-1" cx="282.99" cy="404.54" rx="5.23" ry="2" transform="translate(-64.65 -326.17) rotate(-1.72)"/>
    <ellipse class="cls-1" cx="328.33" cy="392.39" rx="5.23" ry="2" transform="translate(-64.26 -324.82) rotate(-1.72)"/>
    <ellipse class="cls-1" cx="343.87" cy="388.23" rx="5.23" ry="2" transform="translate(-64.13 -324.36) rotate(-1.72)"/>
    <ellipse class="cls-1" cx="358.99" cy="384.18" rx="5.23" ry="2" transform="translate(-64 -323.9) rotate(-1.72)"/>
    <ellipse class="cls-1" cx="374.1" cy="380.13" rx="5.23" ry="2" transform="translate(-63.88 -323.45) rotate(-1.72)"/>
    <ellipse class="cls-1" cx="389.22" cy="376.08" rx="5.23" ry="2" transform="translate(-63.75 -323) rotate(-1.72)"/>
    <ellipse class="cls-1" cx="267.44" cy="408.71" rx="5.23" ry="2" transform="translate(-64.78 -326.64) rotate(-1.72)"/>
    <ellipse class="cls-1" cx="252.33" cy="412.76" rx="5.23" ry="2" transform="translate(-64.91 -327.09) rotate(-1.72)"/>
    <ellipse class="cls-1" cx="237" cy="416.86" rx="5.23" ry="2" transform="translate(-65.04 -327.55) rotate(-1.72)"/>
    <ellipse class="cls-1" cx="312.8" cy="402.45" rx="5.23" ry="2" transform="translate(-64.57 -325.28) rotate(-1.72)"/>
    <ellipse class="cls-1" cx="327.91" cy="398.4" rx="5.23" ry="2" transform="translate(-64.44 -324.83) rotate(-1.72)"/>
    <ellipse class="cls-1" cx="297.68" cy="406.5" rx="5.23" ry="2" transform="translate(-64.7 -325.73) rotate(-1.72)"/>
    <ellipse class="cls-1" cx="343.03" cy="394.35" rx="5.23" ry="2" transform="translate(-64.32 -324.38) rotate(-1.72)"/>
    <ellipse class="cls-1" cx="358.57" cy="390.19" rx="5.23" ry="2" transform="translate(-64.18 -323.91) rotate(-1.72)"/>
    <ellipse class="cls-1" cx="373.68" cy="386.14" rx="5.23" ry="2" transform="translate(-64.06 -323.46) rotate(-1.72)"/>
    <ellipse class="cls-1" cx="388.8" cy="382.09" rx="5.23" ry="2" transform="translate(-63.93 -323.01) rotate(-1.72)"/>
    <ellipse class="cls-1" cx="403.91" cy="378.04" rx="5.23" ry="2" transform="translate(-63.8 -322.56) rotate(-1.72)"/>
    <ellipse class="cls-1" cx="282.14" cy="410.67" rx="5.23" ry="2" transform="translate(-64.83 -326.2) rotate(-1.72)"/>
    <ellipse class="cls-1" cx="267.03" cy="414.72" rx="5.23" ry="2" transform="translate(-64.96 -326.65) rotate(-1.72)"/>
    <ellipse class="cls-1" cx="251.7" cy="418.83" rx="5.23" ry="2" transform="translate(-65.09 -327.1) rotate(-1.72)"/>
    <ellipse class="cls-1" cx="311.88" cy="408.4" rx="5.23" ry="2" transform="translate(-64.75 -325.3) rotate(-1.72)"/>
    <ellipse class="cls-1" cx="327" cy="404.35" rx="5.23" ry="2" transform="translate(-64.62 -324.85) rotate(-1.72)"/>
    <ellipse class="cls-1" cx="296.77" cy="412.45" rx="5.23" ry="2" transform="translate(-64.88 -325.76) rotate(-1.72)"/>
    <ellipse class="cls-1" cx="342.11" cy="400.3" rx="5.23" ry="2" transform="translate(-64.49 -324.4) rotate(-1.72)"/>
    <ellipse class="cls-1" cx="357.65" cy="396.14" rx="5.23" ry="2" transform="translate(-64.36 -323.94) rotate(-1.72)"/>
    <ellipse class="cls-1" cx="372.77" cy="392.09" rx="5.23" ry="2" transform="translate(-64.23 -323.49) rotate(-1.72)"/>
    <ellipse class="cls-1" cx="387.88" cy="388.04" rx="5.23" ry="2" transform="translate(-64.11 -323.04) rotate(-1.72)"/>
    <ellipse class="cls-1" cx="403" cy="383.99" rx="5.23" ry="2" transform="translate(-63.98 -322.58) rotate(-1.72)"/>
    <ellipse class="cls-1" cx="281.22" cy="416.62" rx="5.23" ry="2" transform="translate(-65.01 -326.22) rotate(-1.72)"/>
    <ellipse class="cls-1" cx="266.11" cy="420.67" rx="5.23" ry="2" transform="translate(-65.14 -326.67) rotate(-1.72)"/>
    <ellipse class="cls-1" cx="250.78" cy="424.78" rx="5.23" ry="2" transform="translate(-65.27 -327.13) rotate(-1.72)"/>
    <ellipse class="cls-1" cx="295.64" cy="418.46" rx="5.23" ry="2" transform="translate(-65.06 -325.79) rotate(-1.72)"/>
    <ellipse class="cls-1" cx="310.75" cy="414.41" rx="5.23" ry="2" transform="translate(-64.93 -325.34) rotate(-1.72)"/>
    <ellipse class="cls-1" cx="280.52" cy="422.51" rx="5.23" ry="2" transform="translate(-65.19 -326.24) rotate(-1.72)"/>
    <ellipse class="cls-1" cx="325.87" cy="410.36" rx="5.23" ry="2" transform="translate(-64.8 -324.88) rotate(-1.72)"/>
    <ellipse class="cls-1" cx="341.41" cy="406.2" rx="5.23" ry="2" transform="translate(-64.67 -324.42) rotate(-1.72)"/>
    <ellipse class="cls-1" cx="356.52" cy="402.15" rx="5.23" ry="2" transform="translate(-64.54 -323.97) rotate(-1.72)"/>
    <ellipse class="cls-1" cx="371.64" cy="398.1" rx="5.23" ry="2" transform="translate(-64.41 -323.52) rotate(-1.72)"/>
    <ellipse class="cls-1" cx="386.75" cy="394.05" rx="5.23" ry="2" transform="translate(-64.29 -323.07) rotate(-1.72)"/>
    <ellipse class="cls-1" cx="264.98" cy="426.67" rx="5.23" ry="2" transform="translate(-65.32 -326.7) rotate(-1.72)"/>
    <ellipse class="cls-1" cx="249.87" cy="430.73" rx="5.23" ry="2" transform="translate(-65.45 -327.15) rotate(-1.72)"/>
    <ellipse class="cls-1" cx="234.54" cy="434.83" rx="5.23" ry="2" transform="translate(-65.58 -327.61) rotate(-1.72)"/>
    <ellipse class="cls-1" cx="310.05" cy="420.3" rx="5.23" ry="2" transform="translate(-65.11 -325.35) rotate(-1.72)"/>
    <ellipse class="cls-1" cx="325.16" cy="416.25" rx="5.23" ry="2" transform="translate(-64.98 -324.9) rotate(-1.72)"/>
    <ellipse class="cls-1" cx="294.93" cy="424.35" rx="5.23" ry="2" transform="translate(-65.24 -325.81) rotate(-1.72)"/>
    <ellipse class="cls-1" cx="340.28" cy="412.2" rx="5.23" ry="2" transform="translate(-64.85 -324.45) rotate(-1.72)"/>
    <ellipse class="cls-1" cx="355.82" cy="408.04" rx="5.23" ry="2" transform="translate(-64.72 -323.99) rotate(-1.72)"/>
    <ellipse class="cls-1" cx="370.94" cy="403.99" rx="5.23" ry="2" transform="translate(-64.59 -323.54) rotate(-1.72)"/>
    <ellipse class="cls-1" cx="386.05" cy="399.94" rx="5.23" ry="2" transform="translate(-64.46 -323.09) rotate(-1.72)"/>
    <ellipse class="cls-1" cx="401.17" cy="395.89" rx="5.23" ry="2" transform="translate(-64.34 -322.63) rotate(-1.72)"/>
    <ellipse class="cls-1" cx="279.39" cy="428.52" rx="5.23" ry="2" transform="translate(-65.37 -326.27) rotate(-1.72)"/>
    <ellipse class="cls-1" cx="264.28" cy="432.57" rx="5.23" ry="2" transform="translate(-65.5 -326.72) rotate(-1.72)"/>
    <ellipse class="cls-1" cx="248.95" cy="436.67" rx="5.23" ry="2" transform="translate(-65.63 -327.18) rotate(-1.72)"/>
    <ellipse class="cls-1" cx="354.83" cy="414.12" rx="5.23" ry="2" transform="translate(-64.9 -324.02) rotate(-1.72)"/>
    <ellipse class="cls-1" cx="369.94" cy="410.07" rx="5.23" ry="2" transform="translate(-64.77 -323.56) rotate(-1.72)"/>
    <ellipse class="cls-1" cx="339.71" cy="418.17" rx="5.23" ry="2" transform="translate(-65.03 -324.47) rotate(-1.72)"/>
    <ellipse class="cls-1" cx="385.06" cy="406.02" rx="5.23" ry="2" transform="translate(-64.65 -323.11) rotate(-1.72)"/>
    <ellipse class="cls-1" cx="400.6" cy="401.86" rx="5.23" ry="2" transform="translate(-64.51 -322.65) rotate(-1.72)"/>
    <ellipse class="cls-1" cx="415.71" cy="397.81" rx="5.23" ry="2" transform="translate(-64.39 -322.2) rotate(-1.72)"/>
    <ellipse class="cls-1" cx="430.83" cy="393.76" rx="5.23" ry="2" transform="translate(-64.26 -321.75) rotate(-1.72)"/>
    <ellipse class="cls-1" cx="445.94" cy="389.71" rx="5.23" ry="2" transform="translate(-64.13 -321.3) rotate(-1.72)"/>
    <ellipse class="cls-1" cx="324.17" cy="422.34" rx="5.23" ry="2" transform="translate(-65.16 -324.93) rotate(-1.72)"/>
    <ellipse class="cls-1" cx="309.06" cy="426.39" rx="5.23" ry="2" transform="translate(-65.29 -325.38) rotate(-1.72)"/>
    <ellipse class="cls-1" cx="293.73" cy="430.5" rx="5.23" ry="2" transform="translate(-65.42 -325.84) rotate(-1.72)"/>
    <ellipse class="cls-1" cx="298.82" cy="394.56" rx="5.23" ry="2" transform="translate(-64.34 -325.7) rotate(-1.72)"/>
    <ellipse class="cls-1" cx="313.93" cy="390.51" rx="5.23" ry="2" transform="translate(-64.21 -325.25) rotate(-1.72)"/>
    <ellipse class="cls-1" cx="283.7" cy="398.61" rx="5.23" ry="2" transform="translate(-64.47 -326.15) rotate(-1.72)"/>
    <ellipse class="cls-1" cx="329.05" cy="386.46" rx="5.23" ry="2" transform="translate(-64.09 -324.8) rotate(-1.72)"/>
    <ellipse class="cls-1" cx="344.59" cy="382.3" rx="5.23" ry="2" transform="translate(-63.95 -324.34) rotate(-1.72)"/>
    <ellipse class="cls-1" cx="359.7" cy="378.25" rx="5.23" ry="2" transform="translate(-63.83 -323.89) rotate(-1.72)"/>
    <ellipse class="cls-1" cx="374.82" cy="374.2" rx="5.23" ry="2" transform="matrix(1, -0.03, 0.03, 1, -63.7, -323.43)"/>
    <ellipse class="cls-1" cx="389.93" cy="370.15" rx="5.23" ry="2" transform="translate(-63.57 -322.98) rotate(-1.72)"/>
    <ellipse class="cls-1" cx="268.16" cy="402.78" rx="5.23" ry="2" transform="translate(-64.6 -326.62) rotate(-1.72)"/>
    <ellipse class="cls-1" cx="253.05" cy="406.83" rx="5.23" ry="2" transform="translate(-64.73 -327.07) rotate(-1.72)"/>
    <ellipse class="cls-1" cx="237.72" cy="410.93" rx="5.23" ry="2" transform="translate(-64.86 -327.53) rotate(-1.72)"/>
    <ellipse class="cls-1" cx="284.48" cy="392.59" rx="5.23" ry="2" transform="translate(-64.29 -326.13) rotate(-1.72)"/>
    <ellipse class="cls-1" cx="299.6" cy="388.54" rx="5.23" ry="2" transform="translate(-64.16 -325.68) rotate(-1.72)"/>
    <ellipse class="cls-1" cx="269.37" cy="396.64" rx="5.23" ry="2" transform="translate(-64.42 -326.58) rotate(-1.72)"/>
    <ellipse class="cls-1" cx="314.71" cy="384.49" rx="5.23" ry="2" transform="translate(-64.03 -325.23) rotate(-1.72)"/>
    <ellipse class="cls-1" cx="330.25" cy="380.32" rx="5.23" ry="2" transform="translate(-63.9 -324.77) rotate(-1.72)"/>
    <ellipse class="cls-1" cx="345.37" cy="376.27" rx="5.23" ry="2" transform="translate(-63.77 -324.32) rotate(-1.72)"/>
    <ellipse class="cls-1" cx="360.48" cy="372.22" rx="5.23" ry="2" transform="translate(-63.64 -323.86) rotate(-1.72)"/>
    <ellipse class="cls-1" cx="375.6" cy="368.17" rx="5.23" ry="2" transform="translate(-63.52 -323.41) rotate(-1.72)"/>
    <ellipse class="cls-1" cx="253.83" cy="400.8" rx="5.23" ry="2" transform="translate(-64.55 -327.05) rotate(-1.72)"/>
    <ellipse class="cls-1" cx="238.71" cy="404.85" rx="5.23" ry="2" transform="translate(-64.68 -327.5) rotate(-1.72)"/>
    <ellipse class="cls-1" cx="223.38" cy="408.96" rx="5.23" ry="2" transform="translate(-64.81 -327.96) rotate(-1.72)"/>
    <ellipse class="cls-1" cx="285.4" cy="386.64" rx="5.23" ry="2" transform="translate(-64.11 -326.11) rotate(-1.72)"/>
    <ellipse class="cls-1" cx="300.51" cy="382.59" rx="5.23" ry="2" transform="translate(-63.98 -325.66) rotate(-1.72)"/>
    <ellipse class="cls-1" cx="270.28" cy="390.69" rx="5.23" ry="2" transform="translate(-64.24 -326.56) rotate(-1.72)"/>
    <ellipse class="cls-1" cx="315.63" cy="378.54" rx="5.23" ry="2" transform="translate(-63.85 -325.21) rotate(-1.72)"/>
    <ellipse class="cls-1" cx="331.17" cy="374.37" rx="5.23" ry="2" transform="translate(-63.72 -324.74) rotate(-1.72)"/>
    <ellipse class="cls-1" cx="346.29" cy="370.32" rx="5.23" ry="2" transform="translate(-63.59 -324.29) rotate(-1.72)"/>
    <ellipse class="cls-1" cx="361.4" cy="366.27" rx="5.23" ry="2" transform="translate(-63.47 -323.84) rotate(-1.72)"/>
    <ellipse class="cls-1" cx="242.59" cy="375.06" rx="5.23" ry="2" transform="translate(-63.78 -327.4) rotate(-1.72)"/>
    <ellipse class="cls-1" cx="254.74" cy="394.85" rx="5.23" ry="2" transform="translate(-64.37 -327.02) rotate(-1.72)"/>
    <ellipse class="cls-1" cx="239.63" cy="398.9" rx="5.23" ry="2" transform="translate(-64.5 -327.47) rotate(-1.72)"/>
    <ellipse class="cls-1" cx="224.3" cy="403.01" rx="5.23" ry="2" transform="translate(-64.63 -327.93) rotate(-1.72)"/>
    <ellipse class="cls-1" cx="224.8" cy="397" rx="5.23" ry="2" transform="translate(-64.45 -327.92) rotate(-1.72)"/>
    <ellipse class="cls-1" cx="209.68" cy="401.05" rx="5.23" ry="2" transform="translate(-64.58 -328.37) rotate(-1.72)"/>
    <ellipse class="cls-1" cx="239.91" cy="392.95" rx="5.23" ry="2" transform="translate(-64.32 -327.47) rotate(-1.72)"/>
    <ellipse class="cls-1" cx="255.46" cy="388.78" rx="5.23" ry="2" transform="translate(-64.19 -327) rotate(-1.72)"/>
    <ellipse class="cls-1" cx="270.57" cy="384.73" rx="5.23" ry="2" transform="translate(-64.06 -326.55) rotate(-1.72)"/>
    <ellipse class="cls-1" cx="285.69" cy="380.68" rx="5.23" ry="2" transform="translate(-63.93 -326.1) rotate(-1.72)"/>
    <ellipse class="cls-1" cx="225.78" cy="391.09" rx="5.23" ry="2" transform="translate(-64.27 -327.89) rotate(-1.72)"/>
    <ellipse class="cls-1" cx="241.32" cy="386.92" rx="5.23" ry="2" transform="translate(-64.14 -327.43) rotate(-1.72)"/>
    <ellipse class="cls-1" cx="256.44" cy="382.87" rx="5.23" ry="2" transform="translate(-64.01 -326.98) rotate(-1.72)"/>
    <ellipse class="cls-1" cx="271.55" cy="378.82" rx="5.23" ry="2" transform="translate(-63.88 -326.53) rotate(-1.72)"/>
    <ellipse class="cls-1" cx="226.46" cy="385.09" rx="5.23" ry="2" transform="translate(-64.09 -327.88) rotate(-1.72)"/>
    <ellipse class="cls-1" cx="241.57" cy="381.04" rx="5.23" ry="2" transform="translate(-63.96 -327.42) rotate(-1.72)"/>
    <ellipse class="cls-1" cx="256.69" cy="376.99" rx="5.23" ry="2" transform="translate(-63.83 -326.97) rotate(-1.72)"/>
    <ellipse class="cls-1" cx="130.45" cy="445.41" rx="5.23" ry="2" transform="translate(-65.94 -330.73) rotate(-1.72)"/>
    <ellipse class="cls-1" cx="145.56" cy="441.36" rx="5.23" ry="2" transform="translate(-65.81 -330.27) rotate(-1.72)"/>
    <ellipse class="cls-1" cx="115.33" cy="449.46" rx="5.23" ry="2" transform="translate(-66.07 -331.18) rotate(-1.72)"/>
    <ellipse class="cls-1" cx="160.68" cy="437.31" rx="5.23" ry="2" transform="translate(-65.68 -329.82) rotate(-1.72)"/>
    <ellipse class="cls-1" cx="176.22" cy="433.15" rx="5.23" ry="2" transform="translate(-65.55 -329.36) rotate(-1.72)"/>
    <ellipse class="cls-1" cx="191.34" cy="429.1" rx="5.23" ry="2" transform="translate(-65.42 -328.91) rotate(-1.72)"/>
    <ellipse class="cls-1" cx="206.45" cy="425.05" rx="5.23" ry="2" transform="translate(-65.3 -328.46) rotate(-1.72)"/>
    <ellipse class="cls-1" cx="157.65" cy="351.71" rx="5.23" ry="2" transform="translate(-63.12 -329.95) rotate(-1.72)"/>
    <ellipse class="cls-1" cx="172.76" cy="347.66" rx="5.23" ry="2" transform="translate(-62.99 -329.5) rotate(-1.72)"/>
    <ellipse class="cls-1" cx="142.57" cy="355.75" rx="5.23" ry="2" transform="translate(-63.25 -330.4) rotate(-1.72)"/>
    <ellipse class="cls-1" cx="99.79" cy="453.63" rx="5.23" ry="2" transform="matrix(1, -0.03, 0.03, 1, -66.2, -331.64)"/>
    <ellipse class="cls-1" cx="152.11" cy="393.41" rx="5.23" ry="2" transform="translate(-64.37 -330.1) rotate(-1.72)"/>
    <ellipse class="cls-1" cx="136.78" cy="397.51" rx="5.23" ry="2" transform="translate(-64.5 -330.56) rotate(-1.72)"/>
    <ellipse class="cls-1" cx="145.15" cy="447.38" rx="5.23" ry="2" transform="translate(-65.99 -330.28) rotate(-1.72)"/>
    <ellipse class="cls-1" cx="160.26" cy="443.33" rx="5.23" ry="2" transform="translate(-65.87 -329.83) rotate(-1.72)"/>
    <ellipse class="cls-1" cx="130.03" cy="451.43" rx="5.23" ry="2" transform="translate(-66.12 -330.74) rotate(-1.72)"/>
    <ellipse class="cls-1" cx="175.38" cy="439.28" rx="5.23" ry="2" transform="translate(-65.74 -329.38) rotate(-1.72)"/>
    <ellipse class="cls-1" cx="190.92" cy="435.11" rx="5.23" ry="2" transform="translate(-65.61 -328.92) rotate(-1.72)"/>
    <ellipse class="cls-1" cx="206.03" cy="431.06" rx="5.23" ry="2" transform="translate(-65.48 -328.47) rotate(-1.72)"/>
    <ellipse class="cls-1" cx="221.15" cy="427.01" rx="5.23" ry="2" transform="translate(-65.35 -328.02) rotate(-1.72)"/>
    <ellipse class="cls-1" cx="236.26" cy="422.96" rx="5.23" ry="2" transform="translate(-65.22 -327.56) rotate(-1.72)"/>
    <ellipse class="cls-1" cx="114.49" cy="455.59" rx="5.23" ry="2" transform="translate(-66.25 -331.2) rotate(-1.72)"/>
    <ellipse class="cls-1" cx="99.37" cy="459.64" rx="5.23" ry="2" transform="translate(-66.38 -331.65) rotate(-1.72)"/>
    <ellipse class="cls-1" cx="151.48" cy="399.47" rx="5.23" ry="2" transform="translate(-64.55 -330.12) rotate(-1.72)"/>
    <ellipse class="cls-1" cx="144.23" cy="453.33" rx="5.23" ry="2" transform="translate(-66.17 -330.31) rotate(-1.72)"/>
    <ellipse class="cls-1" cx="159.35" cy="449.28" rx="5.23" ry="2" transform="translate(-66.04 -329.86) rotate(-1.72)"/>
    <ellipse class="cls-1" cx="129.11" cy="457.38" rx="5.23" ry="2" transform="translate(-66.3 -330.76) rotate(-1.72)"/>
    <ellipse class="cls-1" cx="174.46" cy="445.23" rx="5.23" ry="2" transform="translate(-65.92 -329.41) rotate(-1.72)"/>
    <ellipse class="cls-1" cx="190" cy="441.06" rx="5.23" ry="2" transform="translate(-65.78 -328.94) rotate(-1.72)"/>
    <ellipse class="cls-1" cx="143.02" cy="349.6" rx="5.23" ry="2" transform="translate(-63.06 -330.39) rotate(-1.72)"/>
    <ellipse class="cls-1" cx="220.23" cy="432.96" rx="5.23" ry="2" transform="translate(-65.53 -328.04) rotate(-1.72)"/>
    <ellipse class="cls-1" cx="235.35" cy="428.91" rx="5.23" ry="2" transform="translate(-65.4 -327.59) rotate(-1.72)"/>
    <ellipse class="cls-1" cx="113.57" cy="461.54" rx="5.23" ry="2" transform="translate(-66.43 -331.22) rotate(-1.72)"/>
    <ellipse class="cls-1" cx="165.89" cy="401.32" rx="5.23" ry="2" transform="translate(-64.6 -329.68) rotate(-1.72)"/>
    <ellipse class="cls-1" cx="150.56" cy="405.42" rx="5.23" ry="2" transform="translate(-64.73 -330.14) rotate(-1.72)"/>
    <ellipse class="cls-1" cx="195.91" cy="393.27" rx="5.23" ry="2" transform="translate(-64.35 -328.79) rotate(-1.72)"/>
    <ellipse class="cls-1" cx="180.58" cy="397.38" rx="5.23" ry="2" transform="translate(-64.48 -329.25) rotate(-1.72)"/>
    <ellipse class="cls-1" cx="135.38" cy="409.49" rx="5.23" ry="2" transform="translate(-64.86 -330.59) rotate(-1.72)"/>
    <ellipse class="cls-1" cx="127.99" cy="463.38" rx="5.23" ry="2" transform="translate(-66.48 -330.79) rotate(-1.72)"/>
    <ellipse class="cls-1" cx="143.1" cy="459.33" rx="5.23" ry="2" transform="translate(-66.35 -330.34) rotate(-1.72)"/>
    <ellipse class="cls-1" cx="180.3" cy="403.16" rx="5.23" ry="2" transform="translate(-64.65 -329.25) rotate(-1.72)"/>
    <ellipse class="cls-1" cx="194.92" cy="399.24" rx="5.23" ry="2" transform="translate(-64.53 -328.81) rotate(-1.72)"/>
    <ellipse class="cls-1" cx="158.22" cy="455.28" rx="5.23" ry="2" transform="translate(-66.22 -329.89) rotate(-1.72)"/>
    <ellipse class="cls-1" cx="173.76" cy="451.12" rx="5.23" ry="2" transform="translate(-66.09 -329.43) rotate(-1.72)"/>
    <ellipse class="cls-1" cx="188.87" cy="447.07" rx="5.23" ry="2" transform="translate(-65.96 -328.97) rotate(-1.72)"/>
    <ellipse class="cls-1" cx="203.99" cy="443.02" rx="5.23" ry="2" transform="translate(-65.84 -328.52) rotate(-1.72)"/>
    <ellipse class="cls-1" cx="219.1" cy="438.97" rx="5.23" ry="2" transform="translate(-65.71 -328.07) rotate(-1.72)"/>
    <ellipse class="cls-1" cx="164.76" cy="407.32" rx="5.23" ry="2" transform="translate(-64.78 -329.71) rotate(-1.72)"/>
    <ellipse class="cls-1" cx="149.65" cy="411.37" rx="5.23" ry="2" transform="translate(-64.91 -330.17) rotate(-1.72)"/>
    <ellipse class="cls-1" cx="134.32" cy="415.48" rx="5.23" ry="2" transform="translate(-65.04 -330.62) rotate(-1.72)"/>
    <ellipse class="cls-1" cx="119.06" cy="419.57" rx="5.23" ry="2" transform="translate(-65.17 -331.08) rotate(-1.72)"/>
    <ellipse class="cls-1" cx="142.4" cy="465.23" rx="5.23" ry="2" transform="translate(-66.53 -330.36) rotate(-1.72)"/>
    <ellipse class="cls-1" cx="157.51" cy="461.18" rx="5.23" ry="2" transform="translate(-66.4 -329.91) rotate(-1.72)"/>
    <ellipse class="cls-1" cx="194.71" cy="405" rx="5.23" ry="2" transform="translate(-64.7 -328.82) rotate(-1.72)"/>
    <ellipse class="cls-1" cx="172.63" cy="457.12" rx="5.23" ry="2" transform="translate(-66.27 -329.46) rotate(-1.72)"/>
    <ellipse class="cls-1" cx="188.17" cy="452.96" rx="5.23" ry="2" transform="translate(-66.14 -328.99) rotate(-1.72)"/>
    <ellipse class="cls-1" cx="203.29" cy="448.91" rx="5.23" ry="2" transform="translate(-66.01 -328.54) rotate(-1.72)"/>
    <ellipse class="cls-1" cx="233.52" cy="440.81" rx="5.23" ry="2" transform="translate(-65.76 -327.64) rotate(-1.72)"/>
    <ellipse class="cls-1" cx="179.17" cy="409.17" rx="5.23" ry="2" transform="translate(-64.83 -329.28) rotate(-1.72)"/>
    <ellipse class="cls-1" cx="164.06" cy="413.22" rx="5.23" ry="2" transform="translate(-64.96 -329.73) rotate(-1.72)"/>
    <ellipse class="cls-1" cx="148.73" cy="417.32" rx="5.23" ry="2" transform="translate(-65.09 -330.19) rotate(-1.72)"/>
    <ellipse class="cls-1" cx="131.17" cy="439.48" rx="5.23" ry="2" transform="translate(-65.76 -330.71) rotate(-1.72)"/>
    <ellipse class="cls-1" cx="146.28" cy="435.43" rx="5.23" ry="2" transform="translate(-65.63 -330.26) rotate(-1.72)"/>
    <ellipse class="cls-1" cx="116.05" cy="443.53" rx="5.23" ry="2" transform="translate(-65.89 -331.16) rotate(-1.72)"/>
    <ellipse class="cls-1" cx="161.4" cy="431.38" rx="5.23" ry="2" transform="translate(-65.51 -329.8) rotate(-1.72)"/>
    <ellipse class="cls-1" cx="176.94" cy="427.22" rx="5.23" ry="2" transform="translate(-65.37 -329.34) rotate(-1.72)"/>
    <ellipse class="cls-1" cx="192.05" cy="423.17" rx="5.23" ry="2" transform="translate(-65.25 -328.89) rotate(-1.72)"/>
    <ellipse class="cls-1" cx="207.17" cy="419.12" rx="5.23" ry="2" transform="translate(-65.12 -328.44) rotate(-1.72)"/>
    <ellipse class="cls-1" cx="158.37" cy="345.78" rx="5.23" ry="2" transform="translate(-62.94 -329.93) rotate(-1.72)"/>
    <ellipse class="cls-1" cx="100.51" cy="447.7" rx="5.23" ry="2" transform="translate(-66.02 -331.62) rotate(-1.72)"/>
    <ellipse class="cls-1" cx="85.39" cy="451.75" rx="5.23" ry="2" transform="translate(-66.15 -332.07) rotate(-1.72)"/>
    <ellipse class="cls-1" cx="137.5" cy="391.58" rx="5.23" ry="2" transform="translate(-64.32 -330.54) rotate(-1.72)"/>
    <ellipse class="cls-1" cx="152.57" cy="387.54" rx="5.23" ry="2" transform="translate(-64.2 -330.09) rotate(-1.72)"/>
    <ellipse class="cls-1" cx="116.83" cy="437.51" rx="5.23" ry="2" transform="translate(-65.71 -331.14) rotate(-1.72)"/>
    <ellipse class="cls-1" cx="131.95" cy="433.46" rx="5.23" ry="2" transform="translate(-65.58 -330.69) rotate(-1.72)"/>
    <ellipse class="cls-1" cx="101.72" cy="441.56" rx="5.23" ry="2" transform="translate(-65.84 -331.59) rotate(-1.72)"/>
    <ellipse class="cls-1" cx="147.06" cy="429.41" rx="5.23" ry="2" transform="translate(-65.45 -330.24) rotate(-1.72)"/>
    <ellipse class="cls-1" cx="162.6" cy="425.24" rx="5.23" ry="2" transform="translate(-65.32 -329.77) rotate(-1.72)"/>
    <ellipse class="cls-1" cx="177.72" cy="421.19" rx="5.23" ry="2" transform="translate(-65.19 -329.32) rotate(-1.72)"/>
    <ellipse class="cls-1" cx="192.83" cy="417.14" rx="5.23" ry="2" transform="translate(-65.07 -328.87) rotate(-1.72)"/>
    <ellipse class="cls-1" cx="207.95" cy="413.09" rx="5.23" ry="2" transform="translate(-64.94 -328.42) rotate(-1.72)"/>
    <ellipse class="cls-1" cx="86.18" cy="445.72" rx="5.23" ry="2" transform="translate(-65.97 -332.05) rotate(-1.72)"/>
    <ellipse class="cls-1" cx="138.49" cy="385.5" rx="5.23" ry="2" transform="translate(-64.14 -330.51) rotate(-1.72)"/>
    <ellipse class="cls-1" cx="123.16" cy="389.61" rx="5.23" ry="2" transform="translate(-64.27 -330.97) rotate(-1.72)"/>
    <ellipse class="cls-1" cx="117.75" cy="431.56" rx="5.23" ry="2" transform="translate(-65.53 -331.11) rotate(-1.72)"/>
    <ellipse class="cls-1" cx="132.86" cy="427.51" rx="5.23" ry="2" transform="translate(-65.4 -330.66) rotate(-1.72)"/>
    <ellipse class="cls-1" cx="102.63" cy="435.61" rx="5.23" ry="2" transform="translate(-65.66 -331.56) rotate(-1.72)"/>
    <ellipse class="cls-1" cx="147.98" cy="423.46" rx="5.23" ry="2" transform="translate(-65.28 -330.21) rotate(-1.72)"/>
    <ellipse class="cls-1" cx="163.52" cy="419.29" rx="5.23" ry="2" transform="translate(-65.14 -329.75) rotate(-1.72)"/>
    <ellipse class="cls-1" cx="178.63" cy="415.24" rx="5.23" ry="2" transform="translate(-65.02 -329.3) rotate(-1.72)"/>
    <ellipse class="cls-1" cx="193.75" cy="411.19" rx="5.23" ry="2" transform="translate(-64.89 -328.84) rotate(-1.72)"/>
    <ellipse class="cls-1" cx="209.07" cy="407.09" rx="5.23" ry="2" transform="translate(-64.76 -328.39) rotate(-1.72)"/>
    <ellipse class="cls-1" cx="232.28" cy="343.12" rx="5.23" ry="2" transform="translate(-62.83 -327.72) rotate(-1.72)"/>
    <ellipse class="cls-1" cx="87.09" cy="439.77" rx="5.23" ry="2" transform="translate(-65.79 -332.03) rotate(-1.72)"/>
    <ellipse class="cls-1" cx="139.41" cy="379.55" rx="5.23" ry="2" transform="translate(-63.96 -330.49) rotate(-1.72)"/>
    <ellipse class="cls-1" cx="124.08" cy="383.66" rx="5.23" ry="2" transform="translate(-64.09 -330.94) rotate(-1.72)"/>
    <ellipse class="cls-1" cx="182.13" cy="385.36" rx="5.23" ry="2" transform="translate(-64.12 -329.2) rotate(-1.72)"/>
    <ellipse class="cls-1" cx="166.8" cy="389.47" rx="5.23" ry="2" transform="translate(-64.25 -329.66) rotate(-1.72)"/>
    <ellipse class="cls-1" cx="181.49" cy="391.43" rx="5.23" ry="2" transform="translate(-64.3 -329.22) rotate(-1.72)"/>
    <ellipse class="cls-1" cx="166.48" cy="395.45" rx="5.23" ry="2" transform="translate(-64.43 -329.67) rotate(-1.72)"/>
    <ellipse class="cls-1" cx="105.81" cy="411.71" rx="5.23" ry="2" transform="translate(-64.94 -331.48) rotate(-1.72)"/>
    <ellipse class="cls-1" cx="106.9" cy="399.78" rx="5.23" ry="2" transform="translate(-64.58 -331.45) rotate(-1.72)"/>
    <ellipse class="cls-1" cx="121.13" cy="401.71" rx="5.23" ry="2" transform="translate(-64.64 -331.02) rotate(-1.72)"/>
    <ellipse class="cls-1" cx="135.83" cy="403.67" rx="5.23" ry="2" transform="translate(-64.69 -330.58) rotate(-1.72)"/>
    <ellipse class="cls-1" cx="120.82" cy="407.69" rx="5.23" ry="2" transform="translate(-64.81 -331.03) rotate(-1.72)"/>
    <ellipse class="cls-1" cx="197.77" cy="381.17" rx="5.23" ry="2" transform="translate(-63.99 -328.74) rotate(-1.72)"/>
    <ellipse class="cls-1" cx="197.14" cy="387.24" rx="5.23" ry="2" transform="translate(-64.17 -328.75) rotate(-1.72)"/>
    <ellipse class="cls-1" cx="212.46" cy="377.23" rx="5.23" ry="2" transform="translate(-63.86 -328.3) rotate(-1.72)"/>
    <ellipse class="cls-1" cx="227.16" cy="379.19" rx="5.23" ry="2" transform="translate(-63.91 -327.86) rotate(-1.72)"/>
    <ellipse class="cls-1" cx="212.15" cy="383.22" rx="5.23" ry="2" transform="translate(-64.04 -328.31) rotate(-1.72)"/>
    <ellipse class="cls-1" cx="167.52" cy="383.54" rx="5.23" ry="2" transform="translate(-64.07 -329.64) rotate(-1.72)"/>
    <ellipse class="cls-1" cx="168.51" cy="377.45" rx="5.23" ry="2" transform="translate(-63.89 -329.62) rotate(-1.72)"/>
    <ellipse class="cls-1" cx="153.18" cy="381.56" rx="5.23" ry="2" transform="translate(-64.02 -330.07) rotate(-1.72)"/>
    <ellipse class="cls-1" cx="169.42" cy="371.51" rx="5.23" ry="2" transform="translate(-63.71 -329.59) rotate(-1.72)"/>
    <ellipse class="cls-1" cx="154.1" cy="375.61" rx="5.23" ry="2" transform="translate(-63.84 -330.05) rotate(-1.72)"/>
    <ellipse class="cls-1" cx="92.51" cy="397.82" rx="5.23" ry="2" transform="translate(-64.53 -331.88) rotate(-1.72)"/>
    <ellipse class="cls-1" cx="77.18" cy="401.93" rx="5.23" ry="2" transform="translate(-64.66 -332.34) rotate(-1.72)"/>
    <ellipse class="cls-1" cx="93.42" cy="391.87" rx="5.23" ry="2" transform="translate(-64.35 -331.86) rotate(-1.72)"/>
    <ellipse class="cls-1" cx="78.09" cy="395.98" rx="5.23" ry="2" transform="translate(-64.48 -332.32) rotate(-1.72)"/>
    <ellipse class="cls-1" cx="107.2" cy="393.88" rx="5.23" ry="2" transform="translate(-64.41 -331.45) rotate(-1.72)"/>
    <ellipse class="cls-1" cx="108.11" cy="387.93" rx="5.23" ry="2" transform="translate(-64.23 -331.42) rotate(-1.72)"/>
    <ellipse class="cls-1" cx="143.59" cy="343.63" rx="5.23" ry="2" transform="translate(-62.88 -330.38) rotate(-1.72)"/>
    <ellipse class="cls-1" cx="133.68" cy="421.41" rx="5.23" ry="2" transform="translate(-65.22 -330.64) rotate(-1.72)"/>
    <ellipse class="cls-1" cx="72.26" cy="437.87" rx="5.23" ry="2" transform="translate(-65.74 -332.47) rotate(-1.72)"/>
    <ellipse class="cls-1" cx="87.8" cy="433.71" rx="5.23" ry="2" transform="translate(-65.61 -332.01) rotate(-1.72)"/>
    <ellipse class="cls-1" cx="102.92" cy="429.66" rx="5.23" ry="2" transform="translate(-65.48 -331.56) rotate(-1.72)"/>
    <ellipse class="cls-1" cx="118.03" cy="425.61" rx="5.23" ry="2" transform="translate(-65.35 -331.11) rotate(-1.72)"/>
    <ellipse class="cls-1" cx="58.13" cy="436.01" rx="5.23" ry="2" transform="translate(-65.69 -332.9) rotate(-1.72)"/>
    <ellipse class="cls-1" cx="73.67" cy="431.84" rx="5.23" ry="2" transform="translate(-65.56 -332.43) rotate(-1.72)"/>
    <ellipse class="cls-1" cx="88.79" cy="427.79" rx="5.23" ry="2" transform="translate(-65.43 -331.98) rotate(-1.72)"/>
    <ellipse class="cls-1" cx="103.9" cy="423.74" rx="5.23" ry="2" transform="translate(-65.3 -331.53) rotate(-1.72)"/>
    <ellipse class="cls-1" cx="104.79" cy="417.69" rx="5.23" ry="2" transform="translate(-65.12 -331.51) rotate(-1.72)"/>
    <ellipse class="cls-1" cx="119.91" cy="413.64" rx="5.23" ry="2" transform="translate(-64.99 -331.06) rotate(-1.72)"/>
    <ellipse class="cls-1" cx="89.04" cy="421.91" rx="5.23" ry="2" transform="translate(-65.26 -331.98) rotate(-1.72)"/>
    <ellipse class="cls-1" cx="384.7" cy="411.94" rx="5.23" ry="2" transform="translate(-64.82 -323.12) rotate(-1.72)"/>
    <ellipse class="cls-1" cx="399.82" cy="407.89" rx="5.23" ry="2" transform="translate(-64.7 -322.67) rotate(-1.72)"/>
    <ellipse class="cls-1" cx="369.59" cy="415.99" rx="5.23" ry="2" transform="translate(-64.95 -323.57) rotate(-1.72)"/>
    <ellipse class="cls-1" cx="414.93" cy="403.84" rx="5.23" ry="2" transform="translate(-64.57 -322.22) rotate(-1.72)"/>
    <ellipse class="cls-1" cx="430.47" cy="399.67" rx="5.23" ry="2" transform="translate(-64.44 -321.75) rotate(-1.72)"/>
    <ellipse class="cls-1" cx="445.59" cy="395.62" rx="5.23" ry="2" transform="translate(-64.31 -321.3) rotate(-1.72)"/>
    <ellipse class="cls-1" cx="460.7" cy="391.57" rx="5.23" ry="2" transform="translate(-64.18 -320.85) rotate(-1.72)"/>
    <ellipse class="cls-1" cx="475.82" cy="387.52" rx="5.23" ry="2" transform="translate(-64.05 -320.4) rotate(-1.72)"/>
    <ellipse class="cls-1" cx="354.05" cy="420.15" rx="5.23" ry="2" transform="translate(-65.08 -324.04) rotate(-1.72)"/>
    <ellipse class="cls-1" cx="338.93" cy="424.2" rx="5.23" ry="2" transform="translate(-65.21 -324.49) rotate(-1.72)"/>
    <ellipse class="cls-1" cx="323.6" cy="428.31" rx="5.23" ry="2" transform="translate(-65.34 -324.94) rotate(-1.72)"/>
    <ellipse class="cls-1" cx="399.12" cy="413.78" rx="5.23" ry="2" transform="translate(-64.87 -322.69) rotate(-1.72)"/>
    <ellipse class="cls-1" cx="414.23" cy="409.73" rx="5.23" ry="2" transform="translate(-64.74 -322.24) rotate(-1.72)"/>
    <ellipse class="cls-1" cx="384" cy="417.83" rx="5.23" ry="2" transform="translate(-65 -323.14) rotate(-1.72)"/>
    <ellipse class="cls-1" cx="429.35" cy="405.68" rx="5.23" ry="2" transform="translate(-64.62 -321.79) rotate(-1.72)"/>
    <ellipse class="cls-1" cx="444.89" cy="401.52" rx="5.23" ry="2" transform="translate(-64.48 -321.32) rotate(-1.72)"/>
    <ellipse class="cls-1" cx="460" cy="397.46" rx="5.23" ry="2" transform="translate(-64.36 -320.87) rotate(-1.72)"/>
    <ellipse class="cls-1" cx="475.12" cy="393.41" rx="5.23" ry="2" transform="translate(-64.23 -320.42) rotate(-1.72)"/>
    <ellipse class="cls-1" cx="490.23" cy="389.36" rx="5.23" ry="2" transform="translate(-64.1 -319.97) rotate(-1.72)"/>
    <ellipse class="cls-1" cx="368.46" cy="421.99" rx="5.23" ry="2" transform="translate(-65.13 -323.6) rotate(-1.72)"/>
    <ellipse class="cls-1" cx="353.34" cy="426.04" rx="5.23" ry="2" transform="translate(-65.26 -324.05) rotate(-1.72)"/>
    <ellipse class="cls-1" cx="338.02" cy="430.15" rx="5.23" ry="2" transform="translate(-65.39 -324.51) rotate(-1.72)"/>
    <ellipse class="cls-1" cx="413.53" cy="415.62" rx="5.23" ry="2" transform="translate(-64.92 -322.26) rotate(-1.72)"/>
    <ellipse class="cls-1" cx="428.64" cy="411.57" rx="5.23" ry="2" transform="translate(-64.79 -321.8) rotate(-1.72)"/>
    <ellipse class="cls-1" cx="398.41" cy="419.67" rx="5.23" ry="2" transform="translate(-65.05 -322.71) rotate(-1.72)"/>
    <ellipse class="cls-1" cx="443.76" cy="407.52" rx="5.23" ry="2" transform="translate(-64.66 -321.35) rotate(-1.72)"/>
    <ellipse class="cls-1" cx="459.3" cy="403.36" rx="5.23" ry="2" transform="translate(-64.53 -320.89) rotate(-1.72)"/>
    <ellipse class="cls-1" cx="474.41" cy="399.31" rx="5.23" ry="2" transform="translate(-64.4 -320.44) rotate(-1.72)"/>
    <ellipse class="cls-1" cx="489.53" cy="395.26" rx="5.23" ry="2" transform="translate(-64.28 -319.99) rotate(-1.72)"/>
    <ellipse class="cls-1" cx="504.64" cy="391.21" rx="5.23" ry="2" transform="translate(-64.15 -319.54) rotate(-1.72)"/>
    <ellipse class="cls-1" cx="382.87" cy="423.84" rx="5.23" ry="2" transform="translate(-65.18 -323.17) rotate(-1.72)"/>
    <ellipse class="cls-1" cx="367.76" cy="427.89" rx="5.23" ry="2" transform="translate(-65.31 -323.62) rotate(-1.72)"/>
    <ellipse class="cls-1" cx="352.43" cy="431.99" rx="5.23" ry="2" transform="translate(-65.44 -324.08) rotate(-1.72)"/>
    <ellipse class="cls-1" cx="428.08" cy="417.54" rx="5.23" ry="2" transform="translate(-64.97 -321.82) rotate(-1.72)"/>
    <ellipse class="cls-1" cx="443.19" cy="413.49" rx="5.23" ry="2" transform="translate(-64.84 -321.37) rotate(-1.72)"/>
    <ellipse class="cls-1" cx="412.96" cy="421.59" rx="5.23" ry="2" transform="translate(-65.1 -322.27) rotate(-1.72)"/>
    <ellipse class="cls-1" cx="458.31" cy="409.44" rx="5.23" ry="2" transform="matrix(1, -0.03, 0.03, 1, -64.72, -320.92)"/>
    <ellipse class="cls-1" cx="473.85" cy="405.28" rx="5.23" ry="2" transform="translate(-64.58 -320.45) rotate(-1.72)"/>
    <ellipse class="cls-1" cx="488.96" cy="401.23" rx="5.23" ry="2" transform="translate(-64.46 -320) rotate(-1.72)"/>
    <ellipse class="cls-1" cx="504.08" cy="397.18" rx="5.23" ry="2" transform="translate(-64.33 -319.55) rotate(-1.72)"/>
    <ellipse class="cls-1" cx="519.19" cy="393.13" rx="5.23" ry="2" transform="translate(-64.2 -319.1) rotate(-1.72)"/>
    <ellipse class="cls-1" cx="397.42" cy="425.76" rx="5.23" ry="2" transform="translate(-65.23 -322.73) rotate(-1.72)"/>
    <ellipse class="cls-1" cx="382.3" cy="429.81" rx="5.23" ry="2" transform="translate(-65.36 -323.18) rotate(-1.72)"/>
    <ellipse class="cls-1" cx="366.98" cy="433.91" rx="5.23" ry="2" transform="translate(-65.49 -323.64) rotate(-1.72)"/>
    <ellipse class="cls-1" cx="427.29" cy="423.57" rx="5.23" ry="2" transform="translate(-65.15 -321.84) rotate(-1.72)"/>
    <ellipse class="cls-1" cx="442.41" cy="419.52" rx="5.23" ry="2" transform="translate(-65.02 -321.39) rotate(-1.72)"/>
    <ellipse class="cls-1" cx="412.18" cy="427.62" rx="5.23" ry="2" transform="translate(-65.28 -322.29) rotate(-1.72)"/>
    <ellipse class="cls-1" cx="457.52" cy="415.47" rx="5.23" ry="2" transform="translate(-64.9 -320.94) rotate(-1.72)"/>
    <ellipse class="cls-1" cx="473.07" cy="411.31" rx="5.23" ry="2" transform="translate(-64.76 -320.47) rotate(-1.72)"/>
    <ellipse class="cls-1" cx="488.18" cy="407.26" rx="5.23" ry="2" transform="translate(-64.64 -320.02) rotate(-1.72)"/>
    <ellipse class="cls-1" cx="503.3" cy="403.21" rx="5.23" ry="2" transform="translate(-64.51 -319.57) rotate(-1.72)"/>
    <ellipse class="cls-1" cx="518.41" cy="399.16" rx="5.23" ry="2" transform="translate(-64.38 -319.12) rotate(-1.72)"/>
    <ellipse class="cls-1" cx="396.64" cy="431.78" rx="5.23" ry="2" transform="translate(-65.41 -322.75) rotate(-1.72)"/>
    <ellipse class="cls-1" cx="381.52" cy="435.83" rx="5.23" ry="2" transform="translate(-65.54 -323.21) rotate(-1.72)"/>
    <ellipse class="cls-1" cx="366.19" cy="439.94" rx="5.23" ry="2" transform="translate(-65.67 -323.66) rotate(-1.72)"/>
    <ellipse class="cls-1" cx="426.38" cy="429.52" rx="5.23" ry="2" transform="translate(-65.33 -321.86) rotate(-1.72)"/>
    <ellipse class="cls-1" cx="441.49" cy="425.47" rx="5.23" ry="2" transform="translate(-65.2 -321.41) rotate(-1.72)"/>
    <ellipse class="cls-1" cx="411.26" cy="433.57" rx="5.23" ry="2" transform="translate(-65.46 -322.31) rotate(-1.72)"/>
    <ellipse class="cls-1" cx="456.61" cy="421.42" rx="5.23" ry="2" transform="translate(-65.08 -320.96) rotate(-1.72)"/>
    <ellipse class="cls-1" cx="472.15" cy="417.26" rx="5.23" ry="2" transform="translate(-64.94 -320.5) rotate(-1.72)"/>
    <ellipse class="cls-1" cx="487.27" cy="413.21" rx="5.23" ry="2" transform="translate(-64.82 -320.05) rotate(-1.72)"/>
    <ellipse class="cls-1" cx="502.38" cy="409.16" rx="5.23" ry="2" transform="translate(-64.69 -319.6) rotate(-1.72)"/>
    <ellipse class="cls-1" cx="517.5" cy="405.11" rx="5.23" ry="2" transform="translate(-64.56 -319.14) rotate(-1.72)"/>
    <ellipse class="cls-1" cx="395.72" cy="437.73" rx="5.23" ry="2" transform="translate(-65.59 -322.78) rotate(-1.72)"/>
    <ellipse class="cls-1" cx="380.61" cy="441.78" rx="5.23" ry="2" transform="translate(-65.72 -323.23) rotate(-1.72)"/>
    <ellipse class="cls-1" cx="365.28" cy="445.89" rx="5.23" ry="2" transform="translate(-65.85 -323.69) rotate(-1.72)"/>
    <ellipse class="cls-1" cx="440.93" cy="431.44" rx="5.23" ry="2" transform="translate(-65.38 -321.43) rotate(-1.72)"/>
    <ellipse class="cls-1" cx="456.04" cy="427.39" rx="5.23" ry="2" transform="translate(-65.25 -320.98) rotate(-1.72)"/>
    <ellipse class="cls-1" cx="425.81" cy="435.49" rx="5.23" ry="2" transform="translate(-65.51 -321.88) rotate(-1.72)"/>
    <ellipse class="cls-1" cx="471.16" cy="423.34" rx="5.23" ry="2" transform="translate(-65.13 -320.52) rotate(-1.72)"/>
    <ellipse class="cls-1" cx="486.7" cy="419.18" rx="5.23" ry="2" transform="translate(-64.99 -320.06) rotate(-1.72)"/>
    <ellipse class="cls-1" cx="501.81" cy="415.13" rx="5.23" ry="2" transform="translate(-64.87 -319.61) rotate(-1.72)"/>
    <ellipse class="cls-1" cx="516.93" cy="411.08" rx="5.23" ry="2" transform="translate(-64.74 -319.16) rotate(-1.72)"/>
    <ellipse class="cls-1" cx="532.04" cy="407.03" rx="5.23" ry="2" transform="translate(-64.61 -318.71) rotate(-1.72)"/>
    <ellipse class="cls-1" cx="410.27" cy="439.65" rx="5.23" ry="2" transform="translate(-65.64 -322.34) rotate(-1.72)"/>
    <ellipse class="cls-1" cx="395.15" cy="443.7" rx="5.23" ry="2" transform="translate(-65.77 -322.79) rotate(-1.72)"/>
    <ellipse class="cls-1" cx="379.83" cy="447.81" rx="5.23" ry="2" transform="translate(-65.9 -323.25) rotate(-1.72)"/>
    <ellipse class="cls-1" cx="455.47" cy="433.36" rx="5.23" ry="2" transform="translate(-65.43 -320.99) rotate(-1.72)"/>
    <ellipse class="cls-1" cx="470.59" cy="429.31" rx="5.23" ry="2" transform="translate(-65.31 -320.54) rotate(-1.72)"/>
    <ellipse class="cls-1" cx="440.36" cy="437.41" rx="5.23" ry="2" transform="translate(-65.56 -321.44) rotate(-1.72)"/>
    <ellipse class="cls-1" cx="485.7" cy="425.26" rx="5.23" ry="2" transform="translate(-65.18 -320.09) rotate(-1.72)"/>
    <ellipse class="cls-1" cx="501.24" cy="421.1" rx="5.23" ry="2" transform="translate(-65.05 -319.62) rotate(-1.72)"/>
    <ellipse class="cls-1" cx="516.36" cy="417.05" rx="5.23" ry="2" transform="translate(-64.92 -319.17) rotate(-1.72)"/>
    <ellipse class="cls-1" cx="531.48" cy="413" rx="5.23" ry="2" transform="translate(-64.79 -318.72) rotate(-1.72)"/>
    <ellipse class="cls-1" cx="546.59" cy="408.95" rx="5.23" ry="2" transform="translate(-64.66 -318.27) rotate(-1.72)"/>
    <ellipse class="cls-1" cx="424.82" cy="441.58" rx="5.23" ry="2" transform="translate(-65.69 -321.91) rotate(-1.72)"/>
    <ellipse class="cls-1" cx="409.7" cy="445.63" rx="5.23" ry="2" transform="translate(-65.82 -322.36) rotate(-1.72)"/>
    <ellipse class="cls-1" cx="394.37" cy="449.73" rx="5.23" ry="2" transform="translate(-65.95 -322.81) rotate(-1.72)"/>
    <ellipse class="cls-1" cx="454.56" cy="439.31" rx="5.23" ry="2" transform="translate(-65.61 -321.01) rotate(-1.72)"/>
    <ellipse class="cls-1" cx="469.67" cy="435.26" rx="5.23" ry="2" transform="translate(-65.48 -320.56) rotate(-1.72)"/>
    <ellipse class="cls-1" cx="439.44" cy="443.36" rx="5.23" ry="2" transform="translate(-65.74 -321.47) rotate(-1.72)"/>
    <ellipse class="cls-1" cx="484.79" cy="431.21" rx="5.23" ry="2" transform="translate(-65.36 -320.11) rotate(-1.72)"/>
    <ellipse class="cls-1" cx="500.33" cy="427.05" rx="5.23" ry="2" transform="translate(-65.22 -319.65) rotate(-1.72)"/>
    <ellipse class="cls-1" cx="515.44" cy="423" rx="5.23" ry="2" transform="translate(-65.1 -319.2) rotate(-1.72)"/>
    <ellipse class="cls-1" cx="530.56" cy="418.95" rx="5.23" ry="2" transform="translate(-64.97 -318.75) rotate(-1.72)"/>
    <ellipse class="cls-1" cx="545.67" cy="414.9" rx="5.23" ry="2" transform="translate(-64.84 -318.29) rotate(-1.72)"/>
    <ellipse class="cls-1" cx="423.9" cy="447.53" rx="5.23" ry="2" transform="translate(-65.87 -321.93) rotate(-1.72)"/>
    <ellipse class="cls-1" cx="408.79" cy="451.58" rx="5.23" ry="2" transform="translate(-66 -322.38) rotate(-1.72)"/>
    <ellipse class="cls-1" cx="393.46" cy="455.68" rx="5.23" ry="2" transform="translate(-66.13 -322.84) rotate(-1.72)"/>
    <ellipse class="cls-1" cx="453.78" cy="445.34" rx="5.23" ry="2" transform="translate(-65.79 -321.04) rotate(-1.72)"/>
    <ellipse class="cls-1" cx="468.89" cy="441.29" rx="5.23" ry="2" transform="translate(-65.67 -320.58) rotate(-1.72)"/>
    <ellipse class="cls-1" cx="438.66" cy="449.39" rx="5.23" ry="2" transform="translate(-65.92 -321.49) rotate(-1.72)"/>
    <ellipse class="cls-1" cx="484.01" cy="437.24" rx="5.23" ry="2" transform="translate(-65.54 -320.13) rotate(-1.72)"/>
    <ellipse class="cls-1" cx="499.55" cy="433.07" rx="5.23" ry="2" transform="translate(-65.41 -319.67) rotate(-1.72)"/>
    <ellipse class="cls-1" cx="514.66" cy="429.02" rx="5.23" ry="2" transform="translate(-65.28 -319.22) rotate(-1.72)"/>
    <ellipse class="cls-1" cx="529.78" cy="424.97" rx="5.23" ry="2" transform="translate(-65.15 -318.77) rotate(-1.72)"/>
    <ellipse class="cls-1" cx="544.89" cy="420.92" rx="5.23" ry="2" transform="translate(-65.02 -318.32) rotate(-1.72)"/>
    <ellipse class="cls-1" cx="423.12" cy="453.55" rx="5.23" ry="2" transform="translate(-66.05 -321.95) rotate(-1.72)"/>
    <ellipse class="cls-1" cx="408.01" cy="457.6" rx="5.23" ry="2" transform="translate(-66.18 -322.4) rotate(-1.72)"/>
    <ellipse class="cls-1" cx="392.68" cy="461.71" rx="5.23" ry="2" transform="translate(-66.31 -322.86) rotate(-1.72)"/>
    <ellipse class="cls-1" cx="187.18" cy="459.05" rx="5.23" ry="2" transform="translate(-66.32 -329.02) rotate(-1.72)"/>
    <ellipse class="cls-1" cx="202.29" cy="455" rx="5.23" ry="2" transform="translate(-66.2 -328.57) rotate(-1.72)"/>
    <ellipse class="cls-1" cx="172.06" cy="463.1" rx="5.23" ry="2" transform="translate(-66.45 -329.47) rotate(-1.72)"/>
    <ellipse class="cls-1" cx="217.41" cy="450.95" rx="5.23" ry="2" transform="translate(-66.07 -328.12) rotate(-1.72)"/>
    <ellipse class="cls-1" cx="248.06" cy="442.73" rx="5.23" ry="2" transform="translate(-65.81 -327.2) rotate(-1.72)"/>
    <ellipse class="cls-1" cx="263.18" cy="438.68" rx="5.23" ry="2" transform="translate(-65.68 -326.75) rotate(-1.72)"/>
    <ellipse class="cls-1" cx="278.29" cy="434.63" rx="5.23" ry="2" transform="translate(-65.55 -326.3) rotate(-1.72)"/>
    <ellipse class="cls-1" cx="156.52" cy="467.26" rx="5.23" ry="2" transform="translate(-66.58 -329.93) rotate(-1.72)"/>
    <ellipse class="cls-1" cx="232.93" cy="337.09" rx="5.23" ry="2" transform="translate(-62.65 -327.7) rotate(-1.72)"/>
    <ellipse class="cls-1" cx="217.61" cy="341.2" rx="5.23" ry="2" transform="translate(-62.78 -328.16) rotate(-1.72)"/>
    <ellipse class="cls-1" cx="217.05" cy="456.86" rx="5.23" ry="2" transform="translate(-66.25 -328.13) rotate(-1.72)"/>
    <ellipse class="cls-1" cx="232.17" cy="452.81" rx="5.23" ry="2" transform="translate(-66.12 -327.67) rotate(-1.72)"/>
    <ellipse class="cls-1" cx="201.94" cy="460.91" rx="5.23" ry="2" transform="translate(-66.37 -328.58) rotate(-1.72)"/>
    <ellipse class="cls-1" cx="262.82" cy="444.59" rx="5.23" ry="2" transform="translate(-65.86 -326.76) rotate(-1.72)"/>
    <ellipse class="cls-1" cx="277.94" cy="440.54" rx="5.23" ry="2" transform="translate(-65.73 -326.31) rotate(-1.72)"/>
    <ellipse class="cls-1" cx="293.05" cy="436.49" rx="5.23" ry="2" transform="translate(-65.6 -325.86) rotate(-1.72)"/>
    <ellipse class="cls-1" cx="308.17" cy="432.44" rx="5.23" ry="2" transform="translate(-65.47 -325.41) rotate(-1.72)"/>
    <ellipse class="cls-1" cx="186.4" cy="465.07" rx="5.23" ry="2" transform="translate(-66.51 -329.04) rotate(-1.72)"/>
    <ellipse class="cls-1" cx="171.28" cy="469.12" rx="5.23" ry="2" transform="translate(-66.63 -329.49) rotate(-1.72)"/>
    <ellipse class="cls-1" cx="155.95" cy="473.23" rx="5.23" ry="2" transform="translate(-66.76 -329.95) rotate(-1.72)"/>
    <ellipse class="cls-1" cx="231.46" cy="458.7" rx="5.23" ry="2" transform="translate(-66.29 -327.69) rotate(-1.72)"/>
    <ellipse class="cls-1" cx="246.58" cy="454.65" rx="5.23" ry="2" transform="translate(-66.17 -327.24) rotate(-1.72)"/>
    <ellipse class="cls-1" cx="216.35" cy="462.75" rx="5.23" ry="2" transform="translate(-66.42 -328.14) rotate(-1.72)"/>
    <ellipse class="cls-1" cx="261.69" cy="450.6" rx="5.23" ry="2" transform="translate(-66.04 -326.79) rotate(-1.72)"/>
    <ellipse class="cls-1" cx="277.24" cy="446.44" rx="5.23" ry="2" transform="translate(-65.91 -326.33) rotate(-1.72)"/>
    <ellipse class="cls-1" cx="292.35" cy="442.39" rx="5.23" ry="2" transform="translate(-65.78 -325.87) rotate(-1.72)"/>
    <ellipse class="cls-1" cx="307.47" cy="438.34" rx="5.23" ry="2" transform="translate(-65.65 -325.42) rotate(-1.72)"/>
    <ellipse class="cls-1" cx="322.58" cy="434.29" rx="5.23" ry="2" transform="translate(-65.52 -324.97) rotate(-1.72)"/>
    <ellipse class="cls-1" cx="200.81" cy="466.92" rx="5.23" ry="2" transform="translate(-66.55 -328.61) rotate(-1.72)"/>
    <ellipse class="cls-1" cx="185.69" cy="470.97" rx="5.23" ry="2" transform="translate(-66.68 -329.06) rotate(-1.72)"/>
    <ellipse class="cls-1" cx="170.36" cy="475.07" rx="5.23" ry="2" transform="translate(-66.81 -329.52) rotate(-1.72)"/>
    <ellipse class="cls-1" cx="245.88" cy="460.54" rx="5.23" ry="2" transform="translate(-66.34 -327.26) rotate(-1.72)"/>
    <ellipse class="cls-1" cx="260.99" cy="456.49" rx="5.23" ry="2" transform="translate(-66.21 -326.81) rotate(-1.72)"/>
    <ellipse class="cls-1" cx="230.76" cy="464.59" rx="5.23" ry="2" transform="translate(-66.47 -327.71) rotate(-1.72)"/>
    <ellipse class="cls-1" cx="291.65" cy="448.28" rx="5.23" ry="2" transform="translate(-65.95 -325.89) rotate(-1.72)"/>
    <ellipse class="cls-1" cx="306.76" cy="444.23" rx="5.23" ry="2" transform="translate(-65.83 -325.44) rotate(-1.72)"/>
    <ellipse class="cls-1" cx="321.88" cy="440.18" rx="5.23" ry="2" transform="translate(-65.7 -324.99) rotate(-1.72)"/>
    <ellipse class="cls-1" cx="336.99" cy="436.13" rx="5.23" ry="2" transform="translate(-65.57 -324.54) rotate(-1.72)"/>
    <ellipse class="cls-1" cx="215.22" cy="468.76" rx="5.23" ry="2" transform="translate(-66.6 -328.17) rotate(-1.72)"/>
    <ellipse class="cls-1" cx="200.11" cy="472.81" rx="5.23" ry="2" transform="translate(-66.73 -328.63) rotate(-1.72)"/>
    <ellipse class="cls-1" cx="184.78" cy="476.92" rx="5.23" ry="2" transform="translate(-66.86 -329.08) rotate(-1.72)"/>
    <ellipse class="cls-1" cx="260.42" cy="462.46" rx="5.23" ry="2" transform="translate(-66.39 -326.82) rotate(-1.72)"/>
    <ellipse class="cls-1" cx="275.54" cy="458.41" rx="5.23" ry="2" transform="translate(-66.27 -326.37) rotate(-1.72)"/>
    <ellipse class="cls-1" cx="245.31" cy="466.51" rx="5.23" ry="2" transform="matrix(1, -0.03, 0.03, 1, -66.52, -327.27)"/>
    <ellipse class="cls-1" cx="290.65" cy="454.36" rx="5.23" ry="2" transform="translate(-66.14 -325.92) rotate(-1.72)"/>
    <ellipse class="cls-1" cx="306.2" cy="450.2" rx="5.23" ry="2" transform="translate(-66.01 -325.46) rotate(-1.72)"/>
    <ellipse class="cls-1" cx="321.31" cy="446.15" rx="5.23" ry="2" transform="translate(-65.88 -325.01) rotate(-1.72)"/>
    <ellipse class="cls-1" cx="336.43" cy="442.1" rx="5.23" ry="2" transform="translate(-65.75 -324.55) rotate(-1.72)"/>
    <ellipse class="cls-1" cx="351.54" cy="438.05" rx="5.23" ry="2" transform="translate(-65.62 -324.1) rotate(-1.72)"/>
    <ellipse class="cls-1" cx="229.77" cy="470.68" rx="5.23" ry="2" transform="translate(-66.65 -327.74) rotate(-1.72)"/>
    <ellipse class="cls-1" cx="214.65" cy="474.73" rx="5.23" ry="2" transform="translate(-66.78 -328.19) rotate(-1.72)"/>
    <ellipse class="cls-1" cx="199.32" cy="478.84" rx="5.23" ry="2" transform="translate(-66.91 -328.65) rotate(-1.72)"/>
    <ellipse class="cls-1" cx="184.32" cy="482.86" rx="5.23" ry="2" transform="translate(-67.04 -329.09) rotate(-1.72)"/>
    <ellipse class="cls-1" cx="168.99" cy="486.96" rx="5.23" ry="2" transform="translate(-67.17 -329.55) rotate(-1.72)"/>
    <ellipse class="cls-1" cx="259.64" cy="468.49" rx="5.23" ry="2" transform="translate(-66.57 -326.84) rotate(-1.72)"/>
    <ellipse class="cls-1" cx="274.76" cy="464.44" rx="5.23" ry="2" transform="translate(-66.45 -326.39) rotate(-1.72)"/>
    <ellipse class="cls-1" cx="244.53" cy="472.54" rx="5.23" ry="2" transform="translate(-66.7 -327.29) rotate(-1.72)"/>
    <ellipse class="cls-1" cx="183.11" cy="489" rx="5.23" ry="2" transform="translate(-67.22 -329.13) rotate(-1.72)"/>
    <ellipse class="cls-1" cx="305.41" cy="456.23" rx="5.23" ry="2" transform="translate(-66.19 -325.48) rotate(-1.72)"/>
    <ellipse class="cls-1" cx="320.53" cy="452.18" rx="5.23" ry="2" transform="translate(-66.06 -325.03) rotate(-1.72)"/>
    <ellipse class="cls-1" cx="335.65" cy="448.13" rx="5.23" ry="2" transform="translate(-65.93 -324.57) rotate(-1.72)"/>
    <ellipse class="cls-1" cx="350.76" cy="444.08" rx="5.23" ry="2" transform="translate(-65.8 -324.12) rotate(-1.72)"/>
    <ellipse class="cls-1" cx="228.99" cy="476.71" rx="5.23" ry="2" transform="translate(-66.83 -327.76) rotate(-1.72)"/>
    <ellipse class="cls-1" cx="213.87" cy="480.76" rx="5.23" ry="2" transform="translate(-66.96 -328.21) rotate(-1.72)"/>
    <ellipse class="cls-1" cx="198.54" cy="484.86" rx="5.23" ry="2" transform="translate(-67.09 -328.67) rotate(-1.72)"/>
    <ellipse class="cls-1" cx="258.73" cy="474.44" rx="5.23" ry="2" transform="translate(-66.75 -326.87) rotate(-1.72)"/>
    <ellipse class="cls-1" cx="273.84" cy="470.39" rx="5.23" ry="2" transform="translate(-66.63 -326.42) rotate(-1.72)"/>
    <ellipse class="cls-1" cx="243.61" cy="478.49" rx="5.23" ry="2" transform="translate(-66.88 -327.32) rotate(-1.72)"/>
    <ellipse class="cls-1" cx="182.19" cy="494.95" rx="5.23" ry="2" transform="translate(-67.4 -329.15) rotate(-1.72)"/>
    <ellipse class="cls-1" cx="304.5" cy="462.18" rx="5.23" ry="2" transform="translate(-66.37 -325.5) rotate(-1.72)"/>
    <ellipse class="cls-1" cx="319.61" cy="458.13" rx="5.23" ry="2" transform="translate(-66.24 -325.05) rotate(-1.72)"/>
    <ellipse class="cls-1" cx="334.73" cy="454.08" rx="5.23" ry="2" transform="translate(-66.11 -324.6) rotate(-1.72)"/>
    <ellipse class="cls-1" cx="349.84" cy="450.03" rx="5.23" ry="2" transform="translate(-65.98 -324.15) rotate(-1.72)"/>
    <ellipse class="cls-1" cx="228.07" cy="482.66" rx="5.23" ry="2" transform="translate(-67.01 -327.78) rotate(-1.72)"/>
    <ellipse class="cls-1" cx="212.96" cy="486.71" rx="5.23" ry="2" transform="translate(-67.14 -328.23) rotate(-1.72)"/>
    <ellipse class="cls-1" cx="197.63" cy="490.81" rx="5.23" ry="2" transform="translate(-67.27 -328.69) rotate(-1.72)"/>
    <ellipse class="cls-1" cx="152.77" cy="497.13" rx="5.23" ry="2" transform="translate(-67.48 -330.03) rotate(-1.72)"/>
    <ellipse class="cls-1" cx="168.21" cy="492.99" rx="5.23" ry="2" transform="translate(-67.35 -329.57) rotate(-1.72)"/>
    <ellipse class="cls-1" cx="151.86" cy="503.08" rx="5.23" ry="2" transform="translate(-67.66 -330.06) rotate(-1.72)"/>
    <ellipse class="cls-1" cx="167.29" cy="498.94" rx="5.23" ry="2" transform="translate(-67.53 -329.6) rotate(-1.72)"/>
    <ellipse class="cls-1" cx="273.28" cy="476.36" rx="5.23" ry="2" transform="translate(-66.8 -326.43) rotate(-1.72)"/>
    <ellipse class="cls-1" cx="288.39" cy="472.31" rx="5.23" ry="2" transform="translate(-66.68 -325.98) rotate(-1.72)"/>
    <ellipse class="cls-1" cx="258.16" cy="480.41" rx="5.23" ry="2" transform="translate(-66.93 -326.88) rotate(-1.72)"/>
    <ellipse class="cls-1" cx="303.51" cy="468.26" rx="5.23" ry="2" transform="translate(-66.55 -325.53) rotate(-1.72)"/>
    <ellipse class="cls-1" cx="319.05" cy="464.1" rx="5.23" ry="2" transform="translate(-66.42 -325.07) rotate(-1.72)"/>
    <ellipse class="cls-1" cx="334.16" cy="460.05" rx="5.23" ry="2" transform="translate(-66.29 -324.61) rotate(-1.72)"/>
    <ellipse class="cls-1" cx="349.28" cy="456" rx="5.23" ry="2" transform="translate(-66.16 -324.16) rotate(-1.72)"/>
    <ellipse class="cls-1" cx="364.39" cy="451.95" rx="5.23" ry="2" transform="translate(-66.03 -323.71) rotate(-1.72)"/>
    <ellipse class="cls-1" cx="242.62" cy="484.58" rx="5.23" ry="2" transform="translate(-67.06 -327.35) rotate(-1.72)"/>
    <ellipse class="cls-1" cx="227.5" cy="488.63" rx="5.23" ry="2" transform="translate(-67.19 -327.8) rotate(-1.72)"/>
    <ellipse class="cls-1" cx="212.18" cy="492.73" rx="5.23" ry="2" transform="translate(-67.32 -328.26) rotate(-1.72)"/>
    <ellipse class="cls-1" cx="287.82" cy="478.28" rx="5.23" ry="2" transform="translate(-66.86 -325.99) rotate(-1.72)"/>
    <ellipse class="cls-1" cx="302.94" cy="474.23" rx="5.23" ry="2" transform="translate(-66.73 -325.54) rotate(-1.72)"/>
    <ellipse class="cls-1" cx="272.71" cy="482.33" rx="5.23" ry="2" transform="translate(-66.98 -326.45) rotate(-1.72)"/>
    <ellipse class="cls-1" cx="318.05" cy="470.18" rx="5.23" ry="2" transform="translate(-66.6 -325.09) rotate(-1.72)"/>
    <ellipse class="cls-1" cx="333.59" cy="466.02" rx="5.23" ry="2" transform="translate(-66.47 -324.63) rotate(-1.72)"/>
    <ellipse class="cls-1" cx="348.71" cy="461.97" rx="5.23" ry="2" transform="translate(-66.34 -324.18) rotate(-1.72)"/>
    <ellipse class="cls-1" cx="363.82" cy="457.92" rx="5.23" ry="2" transform="translate(-66.21 -323.73) rotate(-1.72)"/>
    <ellipse class="cls-1" cx="378.94" cy="453.87" rx="5.23" ry="2" transform="translate(-66.08 -323.27) rotate(-1.72)"/>
    <ellipse class="cls-1" cx="257.17" cy="486.5" rx="5.23" ry="2" transform="translate(-67.12 -326.91) rotate(-1.72)"/>
    <ellipse class="cls-1" cx="242.05" cy="490.55" rx="5.23" ry="2" transform="translate(-67.24 -327.36) rotate(-1.72)"/>
    <ellipse class="cls-1" cx="226.72" cy="494.65" rx="5.23" ry="2" transform="translate(-67.37 -327.82) rotate(-1.72)"/>
    <ellipse class="cls-1" cx="196.85" cy="496.84" rx="5.23" ry="2" transform="translate(-67.45 -328.71) rotate(-1.72)"/>
    <ellipse class="cls-1" cx="181.73" cy="500.89" rx="5.23" ry="2" transform="translate(-67.58 -329.16) rotate(-1.72)"/>
    <ellipse class="cls-1" cx="166.4" cy="505" rx="5.23" ry="2" transform="translate(-67.71 -329.62) rotate(-1.72)"/>
    <ellipse class="cls-1" cx="211.39" cy="498.76" rx="5.23" ry="2" transform="translate(-67.5 -328.28) rotate(-1.72)"/>
    <ellipse class="cls-1" cx="196.28" cy="502.81" rx="5.23" ry="2" transform="translate(-67.63 -328.73) rotate(-1.72)"/>
    <ellipse class="cls-1" cx="180.95" cy="506.92" rx="5.23" ry="2" transform="translate(-67.76 -329.18) rotate(-1.72)"/>
    <ellipse class="cls-1" cx="286.91" cy="484.23" rx="5.23" ry="2" transform="translate(-67.03 -326.02) rotate(-1.72)"/>
    <ellipse class="cls-1" cx="195.26" cy="508.79" rx="5.23" ry="2" transform="translate(-67.81 -328.76) rotate(-1.72)"/>
    <ellipse class="cls-1" cx="271.79" cy="488.28" rx="5.23" ry="2" transform="translate(-67.16 -326.47) rotate(-1.72)"/>
    <ellipse class="cls-1" cx="317.14" cy="476.13" rx="5.23" ry="2" transform="translate(-66.78 -325.12) rotate(-1.72)"/>
    <ellipse class="cls-1" cx="332.68" cy="471.97" rx="5.23" ry="2" transform="translate(-66.65 -324.65) rotate(-1.72)"/>
    <ellipse class="cls-1" cx="347.79" cy="467.92" rx="5.23" ry="2" transform="translate(-66.52 -324.2) rotate(-1.72)"/>
    <ellipse class="cls-1" cx="362.91" cy="463.87" rx="5.23" ry="2" transform="translate(-66.39 -323.75) rotate(-1.72)"/>
    <ellipse class="cls-1" cx="378.02" cy="459.82" rx="5.23" ry="2" transform="translate(-66.26 -323.3) rotate(-1.72)"/>
    <ellipse class="cls-1" cx="256.25" cy="492.45" rx="5.23" ry="2" transform="translate(-67.29 -326.93) rotate(-1.72)"/>
    <ellipse class="cls-1" cx="241.14" cy="496.5" rx="5.23" ry="2" transform="translate(-67.42 -327.39) rotate(-1.72)"/>
    <ellipse class="cls-1" cx="225.81" cy="500.6" rx="5.23" ry="2" transform="translate(-67.55 -327.84) rotate(-1.72)"/>
    <ellipse class="cls-1" cx="210.56" cy="504.69" rx="5.23" ry="2" transform="translate(-67.68 -328.3) rotate(-1.72)"/>
    <ellipse class="cls-1" cx="286.13" cy="490.26" rx="5.23" ry="2" transform="translate(-67.22 -326.04) rotate(-1.72)"/>
    <ellipse class="cls-1" cx="301.24" cy="486.21" rx="5.23" ry="2" transform="translate(-67.09 -325.59) rotate(-1.72)"/>
    <ellipse class="cls-1" cx="271.01" cy="494.31" rx="5.23" ry="2" transform="translate(-67.34 -326.49) rotate(-1.72)"/>
    <ellipse class="cls-1" cx="188.14" cy="343.39" rx="5.23" ry="2" transform="translate(-62.86 -329.04) rotate(-1.72)"/>
    <ellipse class="cls-1" cx="331.9" cy="478" rx="5.23" ry="2" transform="translate(-66.83 -324.67) rotate(-1.72)"/>
    <ellipse class="cls-1" cx="347.01" cy="473.95" rx="5.23" ry="2" transform="translate(-66.7 -324.22) rotate(-1.72)"/>
    <ellipse class="cls-1" cx="362.13" cy="469.9" rx="5.23" ry="2" transform="translate(-66.57 -323.77) rotate(-1.72)"/>
    <ellipse class="cls-1" cx="377.24" cy="465.85" rx="5.23" ry="2" transform="translate(-66.44 -323.32) rotate(-1.72)"/>
    <ellipse class="cls-1" cx="255.47" cy="498.47" rx="5.23" ry="2" transform="translate(-67.48 -326.96) rotate(-1.72)"/>
    <ellipse class="cls-1" cx="240.35" cy="502.52" rx="5.23" ry="2" transform="translate(-67.6 -327.41) rotate(-1.72)"/>
    <ellipse class="cls-1" cx="225.03" cy="506.63" rx="5.23" ry="2" transform="translate(-67.73 -327.86) rotate(-1.72)"/>
    <ellipse class="cls-1" cx="392.1" cy="467.54" rx="5.23" ry="2" transform="translate(-66.49 -322.87) rotate(-1.72)"/>
    <ellipse class="cls-1" cx="407.22" cy="463.49" rx="5.23" ry="2" transform="translate(-66.36 -322.42) rotate(-1.72)"/>
    <ellipse class="cls-1" cx="315.67" cy="488.02" rx="5.23" ry="2" transform="translate(-67.13 -325.16) rotate(-1.72)"/>
    <ellipse class="cls-1" cx="422.33" cy="459.44" rx="5.23" ry="2" transform="translate(-66.23 -321.97) rotate(-1.72)"/>
    <ellipse class="cls-1" cx="437.87" cy="455.28" rx="5.23" ry="2" transform="translate(-66.1 -321.51) rotate(-1.72)"/>
    <ellipse class="cls-1" cx="452.99" cy="451.23" rx="5.23" ry="2" transform="translate(-65.97 -321.06) rotate(-1.72)"/>
    <ellipse class="cls-1" cx="224.13" cy="512.55" rx="5.23" ry="2" transform="translate(-67.91 -327.89) rotate(-1.72)"/>
    <ellipse class="cls-1" cx="239.25" cy="508.5" rx="5.23" ry="2" transform="translate(-67.78 -327.44) rotate(-1.72)"/>
    <ellipse class="cls-1" cx="254.36" cy="504.45" rx="5.23" ry="2" transform="translate(-67.65 -326.99) rotate(-1.72)"/>
    <ellipse class="cls-1" cx="269.9" cy="500.28" rx="5.23" ry="2" transform="translate(-67.52 -326.52) rotate(-1.72)"/>
    <ellipse class="cls-1" cx="285.02" cy="496.23" rx="5.23" ry="2" transform="translate(-67.39 -326.07) rotate(-1.72)"/>
    <ellipse class="cls-1" cx="468.1" cy="447.18" rx="5.23" ry="2" transform="translate(-65.84 -320.61) rotate(-1.72)"/>
    <ellipse class="cls-1" cx="483.22" cy="443.13" rx="5.23" ry="2" transform="translate(-65.71 -320.15) rotate(-1.72)"/>
    <ellipse class="cls-1" cx="361.44" cy="475.75" rx="5.23" ry="2" transform="translate(-66.75 -323.79) rotate(-1.72)"/>
    <ellipse class="cls-1" cx="346.33" cy="479.8" rx="5.23" ry="2" transform="translate(-66.87 -324.24) rotate(-1.72)"/>
    <ellipse class="cls-1" cx="300.34" cy="492.13" rx="5.23" ry="2" transform="translate(-67.26 -325.61) rotate(-1.72)"/>
    <ellipse class="cls-1" cx="269.12" cy="506.31" rx="5.23" ry="2" transform="translate(-67.7 -326.54) rotate(-1.72)"/>
    <ellipse class="cls-1" cx="284.24" cy="502.26" rx="5.23" ry="2" transform="translate(-67.58 -326.09) rotate(-1.72)"/>
    <ellipse class="cls-1" cx="238.78" cy="514.44" rx="5.23" ry="2" transform="translate(-67.96 -327.45) rotate(-1.72)"/>
    <ellipse class="cls-1" cx="253.9" cy="510.39" rx="5.23" ry="2" transform="translate(-67.83 -327) rotate(-1.72)"/>
    <ellipse class="cls-1" cx="299.78" cy="498.1" rx="5.23" ry="2" transform="translate(-67.44 -325.63) rotate(-1.72)"/>
    <ellipse class="cls-1" cx="314.89" cy="494.05" rx="5.23" ry="2" transform="translate(-67.32 -325.18) rotate(-1.72)"/>
    <ellipse class="cls-1" cx="421.34" cy="465.52" rx="5.23" ry="2" transform="translate(-66.41 -322) rotate(-1.72)"/>
    <ellipse class="cls-1" cx="436.88" cy="461.36" rx="5.23" ry="2" transform="translate(-66.28 -321.53) rotate(-1.72)"/>
    <ellipse class="cls-1" cx="451.99" cy="457.31" rx="5.23" ry="2" transform="translate(-66.15 -321.08) rotate(-1.72)"/>
    <ellipse class="cls-1" cx="345.12" cy="485.95" rx="5.23" ry="2" transform="translate(-67.06 -324.27) rotate(-1.72)"/>
    <ellipse class="cls-1" cx="330.27" cy="489.93" rx="5.23" ry="2" transform="translate(-67.19 -324.72) rotate(-1.72)"/>
    <ellipse class="cls-1" cx="482.22" cy="449.21" rx="5.23" ry="2" transform="translate(-65.9 -320.18) rotate(-1.72)"/>
    <ellipse class="cls-1" cx="329.27" cy="495.91" rx="5.23" ry="2" transform="translate(-67.37 -324.74) rotate(-1.72)"/>
    <ellipse class="cls-1" cx="344.38" cy="491.86" rx="5.23" ry="2" transform="translate(-67.24 -324.29) rotate(-1.72)"/>
    <ellipse class="cls-1" cx="314.15" cy="499.96" rx="5.23" ry="2" transform="translate(-67.49 -325.2) rotate(-1.72)"/>
    <ellipse class="cls-1" cx="298.61" cy="504.13" rx="5.23" ry="2" transform="translate(-67.63 -325.66) rotate(-1.72)"/>
    <ellipse class="cls-1" cx="283.5" cy="508.18" rx="5.23" ry="2" transform="translate(-67.75 -326.11) rotate(-1.72)"/>
    <ellipse class="cls-1" cx="268.17" cy="512.28" rx="5.23" ry="2" transform="translate(-67.88 -326.57) rotate(-1.72)"/>
    <ellipse class="cls-1" cx="253.08" cy="516.33" rx="5.23" ry="2" transform="translate(-68.01 -327.02) rotate(-1.72)"/>
    <ellipse class="cls-1" cx="358.82" cy="493.67" rx="5.23" ry="2" transform="translate(-67.28 -323.86) rotate(-1.72)"/>
    <ellipse class="cls-1" cx="267.27" cy="518.2" rx="5.23" ry="2" transform="translate(-68.06 -326.59) rotate(-1.72)"/>
    <ellipse class="cls-1" cx="282.39" cy="514.15" rx="5.23" ry="2" transform="translate(-67.93 -326.14) rotate(-1.72)"/>
    <ellipse class="cls-1" cx="297.5" cy="510.1" rx="5.23" ry="2" transform="translate(-67.8 -325.69) rotate(-1.72)"/>
    <ellipse class="cls-1" cx="313.04" cy="505.94" rx="5.23" ry="2" transform="translate(-67.67 -325.23) rotate(-1.72)"/>
    <ellipse class="cls-1" cx="328.16" cy="501.89" rx="5.23" ry="2" transform="translate(-67.54 -324.77) rotate(-1.72)"/>
    <ellipse class="cls-1" cx="343.49" cy="497.78" rx="5.23" ry="2" transform="translate(-67.41 -324.32) rotate(-1.72)"/>
    <ellipse class="cls-1" cx="359.61" cy="487.78" rx="5.23" ry="2" transform="translate(-67.11 -323.84) rotate(-1.72)"/>
    <ellipse class="cls-1" cx="374.72" cy="483.73" rx="5.23" ry="2" transform="translate(-66.98 -323.39) rotate(-1.72)"/>
    <ellipse class="cls-1" cx="389.15" cy="485.54" rx="5.23" ry="2" transform="translate(-67.03 -322.95) rotate(-1.72)"/>
    <ellipse class="cls-1" cx="373.82" cy="489.65" rx="5.23" ry="2" transform="translate(-67.16 -323.41) rotate(-1.72)"/>
    <ellipse class="cls-1" cx="312.26" cy="511.96" rx="5.23" ry="2" transform="translate(-67.85 -325.25) rotate(-1.72)"/>
    <ellipse class="cls-1" cx="311.68" cy="517.93" rx="5.23" ry="2" transform="translate(-68.03 -325.26) rotate(-1.72)"/>
    <ellipse class="cls-1" cx="281.93" cy="520.09" rx="5.23" ry="2" transform="translate(-68.11 -326.15) rotate(-1.72)"/>
    <ellipse class="cls-1" cx="297.04" cy="516.04" rx="5.23" ry="2" transform="translate(-67.98 -325.7) rotate(-1.72)"/>
    <ellipse class="cls-1" cx="403.73" cy="487.46" rx="5.23" ry="2" transform="translate(-67.08 -322.52) rotate(-1.72)"/>
    <ellipse class="cls-1" cx="358.03" cy="499.7" rx="5.23" ry="2" transform="translate(-67.47 -323.88) rotate(-1.72)"/>
    <ellipse class="cls-1" cx="388.27" cy="491.6" rx="5.23" ry="2" transform="translate(-67.21 -322.98) rotate(-1.72)"/>
    <ellipse class="cls-1" cx="373.41" cy="495.58" rx="5.23" ry="2" transform="translate(-67.34 -323.42) rotate(-1.72)"/>
    <ellipse class="cls-1" cx="372.53" cy="501.59" rx="5.23" ry="2" transform="translate(-67.52 -323.45) rotate(-1.72)"/>
    <ellipse class="cls-1" cx="387.65" cy="497.54" rx="5.23" ry="2" transform="translate(-67.39 -322.99) rotate(-1.72)"/>
    <ellipse class="cls-1" cx="402.08" cy="499.35" rx="5.23" ry="2" transform="translate(-67.44 -322.56) rotate(-1.72)"/>
    <ellipse class="cls-1" cx="386.75" cy="503.46" rx="5.23" ry="2" transform="translate(-67.57 -323.02) rotate(-1.72)"/>
    <ellipse class="cls-1" cx="402.87" cy="493.46" rx="5.23" ry="2" transform="translate(-67.26 -322.54) rotate(-1.72)"/>
    <ellipse class="cls-1" cx="417.09" cy="495.33" rx="5.23" ry="2" transform="translate(-67.31 -322.11) rotate(-1.72)"/>
    <ellipse class="cls-1" cx="401.3" cy="505.38" rx="5.23" ry="2" transform="translate(-67.62 -322.58) rotate(-1.72)"/>
    <ellipse class="cls-1" cx="431.53" cy="497.28" rx="5.23" ry="2" transform="translate(-67.36 -321.68) rotate(-1.72)"/>
    <ellipse class="cls-1" cx="416.67" cy="501.26" rx="5.23" ry="2" transform="translate(-67.49 -322.12) rotate(-1.72)"/>
    <ellipse class="cls-1" cx="122.27" cy="395.66" rx="5.23" ry="2" transform="translate(-64.45 -330.99) rotate(-1.72)"/>
    <ellipse class="cls-1" cx="198.49" cy="375.24" rx="5.23" ry="2" transform="translate(-63.81 -328.72) rotate(-1.72)"/>
    <ellipse class="cls-1" cx="213.56" cy="371.2" rx="5.23" ry="2" transform="translate(-63.68 -328.27) rotate(-1.72)"/>
    <ellipse class="cls-1" cx="199.48" cy="369.16" rx="5.23" ry="2" transform="translate(-63.62 -328.69) rotate(-1.72)"/>
    <ellipse class="cls-1" cx="184.16" cy="373.26" rx="5.23" ry="2" transform="translate(-63.75 -329.15) rotate(-1.72)"/>
    <ellipse class="cls-1" cx="200.4" cy="363.21" rx="5.23" ry="2" transform="translate(-63.45 -328.67) rotate(-1.72)"/>
    <ellipse class="cls-1" cx="185.07" cy="367.31" rx="5.23" ry="2" transform="translate(-63.58 -329.12) rotate(-1.72)"/>
    <ellipse class="cls-1" cx="214.17" cy="365.22" rx="5.23" ry="2" transform="translate(-63.5 -328.25) rotate(-1.72)"/>
    <ellipse class="cls-1" cx="215.09" cy="359.27" rx="5.23" ry="2" transform="translate(-63.32 -328.23) rotate(-1.72)"/>
    <ellipse class="cls-1" cx="183.26" cy="379.32" rx="5.23" ry="2" transform="translate(-63.94 -329.17) rotate(-1.72)"/>
    <ellipse class="cls-1" cx="155.16" cy="369.48" rx="5.23" ry="2" transform="translate(-63.65 -330.02) rotate(-1.72)"/>
    <ellipse class="cls-1" cx="109.5" cy="381.72" rx="5.23" ry="2" transform="translate(-64.04 -331.38) rotate(-1.72)"/>
    <ellipse class="cls-1" cx="78.84" cy="389.93" rx="5.23" ry="2" transform="translate(-64.3 -332.3) rotate(-1.72)"/>
    <ellipse class="cls-1" cx="63.51" cy="394.04" rx="5.23" ry="2" transform="translate(-64.43 -332.76) rotate(-1.72)"/>
    <ellipse class="cls-1" cx="93.53" cy="385.99" rx="5.23" ry="2" transform="translate(-64.18 -331.86) rotate(-1.72)"/>
    <ellipse class="cls-1" cx="185.82" cy="361.27" rx="5.23" ry="2" transform="translate(-63.39 -329.1) rotate(-1.72)"/>
    <ellipse class="cls-1" cx="170.49" cy="365.37" rx="5.23" ry="2" transform="translate(-63.52 -329.56) rotate(-1.72)"/>
    <ellipse class="cls-1" cx="200.51" cy="357.33" rx="5.23" ry="2" transform="translate(-63.27 -328.67) rotate(-1.72)"/>
    <ellipse class="cls-1" cx="215.88" cy="353.21" rx="5.23" ry="2" transform="translate(-63.14 -328.21) rotate(-1.72)"/>
    <ellipse class="cls-1" cx="155.83" cy="363.65" rx="5.23" ry="2" transform="translate(-63.48 -330) rotate(-1.72)"/>
    <ellipse class="cls-1" cx="186.48" cy="355.44" rx="5.23" ry="2" transform="translate(-63.22 -329.09) rotate(-1.72)"/>
    <ellipse class="cls-1" cx="171.15" cy="359.55" rx="5.23" ry="2" transform="translate(-63.35 -329.54) rotate(-1.72)"/>
    <ellipse class="cls-1" cx="201.17" cy="351.5" rx="5.23" ry="2" transform="translate(-63.09 -328.65) rotate(-1.72)"/>
    <ellipse class="cls-1" cx="216.54" cy="347.39" rx="5.23" ry="2" transform="translate(-62.96 -328.19) rotate(-1.72)"/>
    <ellipse class="cls-1" cx="156.75" cy="357.59" rx="5.23" ry="2" transform="translate(-63.3 -329.98) rotate(-1.72)"/>
    <ellipse class="cls-1" cx="187.4" cy="349.38" rx="5.23" ry="2" transform="translate(-63.04 -329.06) rotate(-1.72)"/>
    <ellipse class="cls-1" cx="172.07" cy="353.48" rx="5.23" ry="2" transform="translate(-63.17 -329.52) rotate(-1.72)"/>
    <ellipse class="cls-1" cx="202.09" cy="345.44" rx="5.23" ry="2" transform="translate(-62.91 -328.62) rotate(-1.72)"/>
  </g>
</svg>
