<svg id="Seoul" xmlns="http://www.w3.org/2000/svg" viewBox="0 0 1126.74 409.74">
  <defs>
    <style>
      .cls-1 {
        fill: #fff;
        stroke: rgba(0, 0, 0, 0.5);
        stroke-miterlimit: 10;
        fill-rule: evenodd;
      }
    </style>
  </defs>
  <title>Seoul_Jung-gu</title>
  <g>
    <path id="Dobong-gu" class="cls-1" d="M1232.57,670.24c-7.32,1.39-13.47,3.49-21.2,4.88-9.31,1.68-20.49,1.94-30,3.52-3.34.55-7.23,1.55-11,2.36s-8.38,1.46-11,2.36c-4.39,1.48-7.65,4.32-11.5,6.43-3.21,1.77-8.3,5.14-12.11,6.41-3.32,1.1-9,2-13.59,3s-9.46,2-13.83,2.92c-9.62,2.13-19.06,4.79-27.92,6.3-6.37,1.08-13.21,1.34-19.11,2.35-7.11,1.23-14.18,3.3-21.66,4.62a110.11,110.11,0,0,0-9.85-5.06,248.72,248.72,0,0,0,20.08-24.53c1.69-2.38,6.61-6.19,5.46-8.37-1.29-2.42-8.26-4.74-5.12-7.31a42.92,42.92,0,0,0,3.77-6.54c.68-.24.09-.56.77-.8a34,34,0,0,0,3.38-5.84c6-2.59,13-2.54,19.31-3.79,1.78,0,4.13-1,6.13-1.45l9.21-2.46c9-3.19,20.06-4.22,28.43-6.63,8.9-2.57,15.08-6.11,24.09-8.83,6.46,2.91,19.13-2.14,30.35-4.58,6.53-1.42,12.79-1.27,17.41-2.1a65,65,0,0,1,21.8,9.17c1.25.52,2.16,1.65,3.64,1.79,1.16,1,4.3,2,4.9,2.83,2.16,3-13.71,5.07-13.75,7.63,0,1.74,5.66,4,8.47,5.82,3.24,2.07,6.21,4,9.07,5.86C1228.11,663.52,1224.05,666.5,1232.57,670.24Z" transform="translate(-166.61 -518.21)"/>
    <path id="Dongdaemun-gu" class="cls-1" d="M929.9,743c17.56,2.13,32.09,9.5,48.07,14.37-35.2,11.3-69.42,22.65-104,34-14.08,1.18-28.36,2.72-42.4,3.85-3.68-8-9.08-16.17-14.61-24.31,4.84-2.09,9.41-4.19,13.31-6.33.63-.57-1.26-1.28-2.3-2,.52-.41-1.49-1-2-1.45a74.42,74.42,0,0,1-6.64-4.14c-2.23-1.42-4.05-3.39-6.63-4.15-3.5-1-8.37.48-12.31-.25l-2.1-1.21c.51-.42-1.49-1-2-1.45-2.78-2,.13-3.62.32-5.42l4.42-1.18c1.41.07,3.39-.84,5-1.15l7.36-2c5.67-2.21,12-.58,17.7-1,6.41-.46,10.65-1.87,17.31-2.46,13.28,1.62,26.69,3,38.87,6.56,9.68-.23,19.94-1.47,29.3-1.14Q923.19,742.79,929.9,743Z" transform="translate(-166.61 -518.21)"/>
    <path id="Dongjak-gu" class="cls-1" d="M486.76,706.42a96.72,96.72,0,0,0,17.82,11.22c2.89,1.46,5.42,3.54,8.54,4.62a11.14,11.14,0,0,0,2.84,1c-2.05,3.12-4.46,6.32-7.1,9.6-2.47,3.07-5.9,6.67-5.06,9.85.74,2.83,5.94,5.31,9,8.64-4.08,1.72-8.86,3.41-12,5.19,2,2.13,6.9,4.44,9.27,6.6-3.8,2.67-8.4,5.3-12.68,7.94-10.3,1.09-22.28,2.93-34.64,5.53-13.88,2.92-24.38,5.77-32.22,9.42-6.27-1.36-13-2-17.77-5.9l-4.21-2.42a33.58,33.58,0,0,1,1.53-5.35c.5-1.56.1-3.88,2.13-5.31,3.2-2.25,10-4.27,14.88-6.35s9.48-4.27,14.28-6.39c-2.53-4.26-3.3-8.42-7-12.75l-11-6.33c-2.51-1.24-4.65-3.1-7.38-4l-9.34-5.39c-2.81-1.42-5.27-3.46-8.31-4.49-5.23-.46-11.65,1.13-17.23,1.26-8.37-1-11.23-4.7-18.2-6.77-6.59-1.95-17.94-1.77-22.32-4.48,6.05-1.14,12.2-2.44,18.21-3.5,4.56.67,10.09.31,14.78,1.37,7,1.6,12.25,4.69,19.4,6.85,7.78-1.1,15.87-1,23.46-2.34,7.11-1.21,12.45-3.43,20.22-4.83,2.86-.51,6.89-.53,10.44-.82C461.18,707,475,706.42,486.76,706.42Z" transform="translate(-166.61 -518.21)"/>
    <path id="Eunpyeong-gu" class="cls-1" d="M928.8,598.24c2.85,2.23,6.19,2,10.86,2.22,9.11.42,19,.26,27.2-.18-2.08,6.36-5,13.49-7.62,20.2-.67,1.72-.48,5.56-2.94,6.71-1.69.8-5.31,1.16-6.63,1.78L939,631.83c-1.58.55-4.72,1-5.29,1.62-9.74,3.38-16.77,2.08-25.07,3,.14.21,0,.41-.64.57-9.47.51-17.6.71-26.36.35-3.87-.16-8.25-.78-11.57-.45-6.55.65-12,2.47-19.78,3.52-1.53,0-3.64.91-5.39,1.25l-8.11,2.17-7.36,2c-1.53,0-3.64.9-5.39,1.24l-8.11,2.17-9.21,2.47c-2.69-3.19-7-3.82-12.52-4.74-2.7-.44-5.76-1.07-8-1.2-8.28-.47-18.34,1.22-26.24,2.29-7.36-1.81-14.76-3.55-21.88-5.79a170.75,170.75,0,0,1-21.95,1.34c-1.18-.1-2-.92-2.93-1.38-1.73-.79-3.1-2.19-5-2.6l-6.54-3.77c-2.74-1.38-5.12-3.37-8.08-4.35-1.23-.93-3-.89-4.78-.89-2.15-.23-4.35-.37-6.62-.4a58.65,58.65,0,0,0-6-.36l-.36.1c-2.15-.23-4.36-.37-6.62-.4-5.52.74-11.41,2.13-17.11,3.2-.08-2.87,1.32-5.77,2-8.82s-.27-6.2,1.74-9c1.13-1.55,4.27-2.79,4.74-4.43-4.64-2.65.37-4.73,2.47-7,1.27,3.91,7.32,8.1,15,12.38,7.64.22,17.27,1.05,25.91,1a84.25,84.25,0,0,0,26.58-4l7-1.88,15.84-4.24c3.65-1.11,8.9-2.12,11.55-3.29l22.84-6.12c3.76-.09,7.79,1.12,11.44.68,3-.35,6.92-1.6,10.41-2.39,24-5.42,50.59-11.58,73.36-16.5,5.06,3.19,10.92,6.65,15.38,9.5,1.6,1,2.72,2.43,5.37,3.1,5.5,1.39,15.93-1.75,18.82,2.46-.51.41,1.49,1,2,1.45Z" transform="translate(-166.61 -518.21)"/>
    <path id="Gangbuk-gu" class="cls-1" d="M1142.85,633.08c-8.74,2.7-14.86,6.5-23.85,8.95-6.45,1.76-14.57,2.33-21.29,4.53-1.78,0-4.13,1-6.13,1.44l-9.21,2.47c-9.75,3.32-17.77,2.27-26.68,5.77a21,21,0,0,1-1.82,2.06,36.66,36.66,0,0,0-3.51,6.07,42.92,42.92,0,0,0-3.77,6.54c-1.73,2.11,4.33,4.69,6.22,7-10,14.38-20.56,28.73-38.92,42.61-16.06.67-32.27,1.59-48.48,2.53-4.2-.82-8.62-1.25-12.8-2.1-1.65-.75-2.94-2.11-4.81-2.47l-4.2-2.42-4.9-2.83c-1.26-.53-2.16-1.66-3.64-1.79L930.85,709,926,706.2l-3.5-2c0-1.25-.89-2.55,0-3.75,9.47-4.22,20.12-8.38,29.39-12.61,1.91-5.55,2.6-11.17,4-16.68.47-1.83,2-3.84,1.66-5.58-.47-2.57-4-4.88-4.61-7.64,1.7-2,4-4,5.68-6.06,2.73-.24,5.14.08,8-.37,2-.08,4.62-1.17,6.87-1.64,1.7-.58,5-1.07,5.66-1.72l11.42-3.06,11-3c1.58-.55,4.72-1,5.29-1.61l11.42-3.06,11-3,5.16-1.39c11.38-.54,23.76-.74,35.23-1.14,3.93-.14,8.85-.11,12.11-.48,11.53-1.33,21.22-4.19,33.81-5.71Q1129.28,629.36,1142.85,633.08Z" transform="translate(-166.61 -518.21)"/>
    <path id="Gangdong-gu" class="cls-1" d="M903.58,839.33c7.65.21,13.7,1.61,21.7,2.87,8.28,1.31,16.12,1.27,22,4.58,5.23,2.81,10.1,6.24,15.55,8.66,11.86,4.14,25.82,4.69,39,6.93,7.89,1.35,15.89,3.64,23.63,4.93l-3.69,1c-1.69.59-5,1.08-5.66,1.72-8.29,2.12-2.69,5.07-3.48,7.64-.14.64,2.28,1.43,3.14,2.12-4.71,1.69-10.25,3.33-12.64,5.17-8.57,1.53-19.64,1-28,3.75-2.57.86-3.72,3-7.14,4.28-4.19,1.58-10.52,2.54-14.13,4-2.29.91-2.68,2.46-4.67,3.22-4.8.22-9.7.62-14.42.71-9.37-3-19-5.62-30.63-9-4.78-1.37-9.91-2.84-15.2-4.42-4.35-1.29-11.76-4.23-15.57-4.31-3-.07-8.2,1.52-12.72,2.62-4.19,1-8.71,2.28-12,3-4.27.95-9.36.83-14,1-12.13.4-21.66.6-33.88,1-1.18-1.77-3.85-2.56-4.47-4.13s2.45-3.29,1.5-4.75c-1.33-2-5.79-3.57-8.34-6,3.82-2.85,10.54-5,13.51-7.77,2.43-2.26.32-4.76,3.08-6.94,13.14-1.49,33.65-2.51,40.84-8.19a25.62,25.62,0,0,0-5.1-3.56c.58-1.46,2.49-2.83,3.4-4.27,17.45-3.08,35.84-7.78,50.63-6.26Q899.59,839.24,903.58,839.33Z" transform="translate(-166.61 -518.21)"/>
    <path id="Gangnam-gu" class="cls-1" d="M629.57,770.81c4.15.21,7.89.71,12.14,1.09,4,.35,9,.28,12.14,1.09,2.34.61,4.91,2,7.31,3a71.18,71.18,0,0,1,14.65,7.52c6.77,4.5,9.83,7.65,11.39,11.56,3.75,9.43-1.91,19.3,10.14,28.27-1.39.8-5.13,1.47-7.5,2.21l-7.37,2c-1.33.49-4.22.88-4.56,1.42l-6.26,1.68-7.37,2c-1.21.46-4,.81-4.18,1.32-7.68,1.62-8.45,3.26-11.43,5.24-2,1.32-4.81,2.56-5.77,3.52-1.14,1.14-1,3.16-1.49,4.74s-1.44,3.32-1.26,4.88,1.28,3.29,1.75,5.06.06,3.62,1.15,5c3.08,4,10.41,8.16,13.29,12-1.22,1.34-1.46,2.74-2.66,4.07-2.5,1.22-5.65,2.4-7.71,3.65-.73,4,.34,8.07-.72,12-4.27,1.48-8.06,3-11.86,4.36-4,1.45-8.88,2.79-11.87,4.36-1.66.88-3,2.53-4.33,3.73-6,5.36-11.56,10.63-21.11,15.53-4-1.11-6.19-4-10.81-5-4-.89-10.87.54-16.46.46a55.08,55.08,0,0,1-11-1.39c-4-1.2-6-3.34-9.51-4.56-2.73-1-6.81-1-9.19-1.88-2.66-1-3.52-2.63-6.64-4.14.85-2.19,4.32-3.93,5.21-6.33.7-1.89-.95-3.88-.14-5.69.52-1.17,4.23-4.74,6.51-5.89l5.9-1.58c1-.39,3.47-.68,3.45-1.12,3.41-.76,5-1.63,8.24-2.41,0-1.75,2-3.53.92-5.38-2.9-5.12-16.13-9-25.9-11.22-7.5.22-15.14.69-22.38.47-7.88-4.33-16.94-6.63-25.92-9.05,7-6.91,26.48-13.07,41.77-19.48a53.09,53.09,0,0,0,4.18-7.24c-.79-2.46-3.3-5-2-7.37a12.26,12.26,0,0,0,2-3.5c.4-.18.16-.39.63-.57a10.64,10.64,0,0,0,1.89-3.26c2.21-3.45,13.92-6.42,24.63-9.76,5.45-1.7,12.43-3.32,16-5.08,3.85-1.9,2.08-5.66,6-7.74,3.07-1.61,8.74-3.11,13-4.65,4.52-1.66,10.19-3.42,13.47-5,4-1.91,6.28-4.42,9.32-6.44C622.72,775,626.19,772.94,629.57,770.81Z" transform="translate(-166.61 -518.21)"/>
    <path id="Gangseo-gu" class="cls-1" d="M575.7,518.93a47.24,47.24,0,0,1-.51,16.52c-.37,1.78-.05,3.75-.92,5.38-1,1.95-3.91,4.09-5.68,6.07s-4.35,4.09-5.68,6.06c-2.15,3.16-1.92,6.48-4,9.55C556.38,566.37,550,570,547.63,574c-1.78,3,.62,6.66,1.09,10,.19,1.31-.09,2.76.12,4.12s1.33,3,.95,4.28c-.46,1.51-3.08,3.35-4.54,5.17s-2.11,3.8-3.94,5.2c-2.78,2.12-7.27,3.91-9.66,5.94-3.78,3.23-4,7.18-5.46,10.55-1.53,3.59-2.23,7.19-4,10.75-2.69,1.61-7.75,3.08-12.6,4.56l-.73.2-8.41-4.86c-1.48-1.94-1.89-3.81-5.33-5.87-5.22-.12-10.78.33-16.09.36-7.81,2-15.31,3.51-23.17,5.62-8.58.12-17.35.57-26.16,1.08-5.31-2-14.29-2.62-18.68-4.86-1.7-.87-3.23-3-4.46-4.14-3.43-3.3-5.79-6.43-2.84-9.11,1.23-1.11,4.35-2.45,6.51-3.71,4.67-2.73,8.78-5.17,13.15-7.67,2.38-1.37,5.65-2.66,6.87-3.82s1.88-3.61,1-4.41c-2.06-1.84-8.82-3.3-10.82-5-5.37.14-10.89.53-16.36.83-3.56-2.43-7.06-4.63-10.57-7-2.79-1.91-6.8-5.72-10.8-7.17-3.15-1.14-12.43-.82-16.86-1-6.05-.26-11.39-.53-16.85-1a91,91,0,0,1,8.28-5.18c2.71-1.46,8.06-3.55,8.89-5.15.61-1.16-1.48-3.26-2.25-4.72-2.66-5-5.24-9.95-7.46-14.59,9.83-2.83,14.08-6,19.27-9.11,5.8,0,8.79,2.33,14.61,2.21,2.65-.06,6.55-1.12,10-1.7,10-1.69,21.38-3.35,30.36-4.58,4.44,1,8.67,2,13.69,3.24,3.67.88,9.44,2.92,14,2.77,5.21-.17,11.29-2,17.11-3.2s11.68-2.4,17.38-3.67c4.42.33,9.16.62,14.91,1.14,7.16.64,14.29,2.37,23-1,1.77,0,4.12-1,6.12-1.44,10.64-2.11,14.3-7.36,24.83-9C566.13,518.23,570.66,519.46,575.7,518.93Z" transform="translate(-166.61 -518.21)"/>
    <path id="Geumcheon-gu" class="cls-1" d="M312,698c5.39,2.52,12.4,2.25,18.38,3.76,1.15,3.13-5.47,8.48,5.07,10.09-2.58,1.46-3.91,3-6.31,4.46a26,26,0,0,1,1.65,4.69c-2.79.7-5.43,1.13-8.34,2-.9-.08-3.92.73-4.05,1.09-14,4.26-29.21,9.49-42.27,13.89-4.81,1.62-10.86,3.18-13.94,4.72-3.32,1.67-3.54,4.45-6.88,6,1.32,1.53,1.78,3,3,4.53-4.08,1.57-7,3.21-10.56,4.81-2.17.34-3.82-.23-5.79-.23-10.19-3.73-23.69-1.76-37.09.07-4.27-2-13.32-2.24-18.11-4.23-5.78-2.4-7.34-5.83-13.61-8.79,16.54-7.18,36-16,53.62-23.85,4.48-2,16.49-5.92,16.8-8,.18-1.25-3.07-2.9-4.83-4,23.77-7.52,33.95-15.85,49.87-23.83l3.51,2c.79,1,3.82,2.72,5.84,3.37l4,2.29c1.09.44,1.85,1.47,3.17,1.52l3.73,2.16C309.89,696.9,310.64,697.93,312,698Z" transform="translate(-166.61 -518.21)"/>
    <path id="Guro-gu" class="cls-1" d="M337.65,698.8c-1.09.41-3.72.74-3.82,1.22l-2.21.59c-5.72-1.24-12.23-1.12-17.31-3.46-1.1-.43-1.85-1.47-3.17-1.52l-3.74-2.15c-1.09-.44-1.85-1.47-3.17-1.52l-4-2.29-5.37-3.11c-1.24-.87-3.8-1.83-4.07-2.66,5.23-2.2,13.85-3.11,17.12-5.37,1.29-.89.52-3.17.49-4.08-.06-1.43.49-3.39-1-4.29-1.24-.77-5.52-1.49-7.61-1.9-2.4-.48-5.72-1.29-8.12-1.58a94.57,94.57,0,0,0-13.05-.06c-5.86.68-12,3.41-16.33,2.41q-4.44-.42-9-.54-5.94-.51-12-.73a28.35,28.35,0,0,1-5.18-.19q-4.44-.42-9-.54-5.94-.51-12-.72c-3.26-.16-6.7.21-9-.54a34.38,34.38,0,0,1-10.28-5.94c-2.06-1.73-1.27-3.74-3.55-5.16-4.59-2.87-13.23-4.25-18-6.64-2.63-1.33-3.73-2.83-6.13-4.48,11.69-.79,24.76-1.93,37.14-2.84,4.29-.32,9.71-.24,12.75-1.05,4-1.07,7-4,10.76-6.24,2.43-1.46,7.77-5.47,10.77-6.24,1.56-.4,6.16-.53,9.47-.76,17.55-1.22,34.92-2,52-5.45,2.24-.72,1.07-1.63,2.32-2.4a74.9,74.9,0,0,1,7.47,6.49c-2.92,1.67-7.19,3.27-8.52,5-.36.31,1.47,1.37,2.33,1.35l4.91,2.83c2.11,1,3.87,2.65,6.2,3.28,4.25,1.08,11.22,1.22,17.66,1.78,2.48.22,5.3.63,8.52.87,5,.38,9.13,0,11.47,2.26-.45.46,1.64,1.07,2.2,1.58l5.83,3.37c-4.54,2.07-8.14,4.19-12.93,6.24,1.36,1.59.07,3.68,2.45,5.46,3,2.25,9.06,4,12.64,6.68.94.35,1.54,1.29,2.71,1.25,3.4.58,9.89-.07,14.88-.44s9.78-1.11,14-1c.66,1.67.2,3.35.41,5.22.16,1.43,2,3.84.41,5.22-1,.81-4.2,1.94-6.33,2.88-6.82,3-14.45,5.91-23.12,8.76-1.85,1.86-1.05,3.88-9,5.38-1.09.42-3.72.74-3.81,1.22L347.36,696c-1.09.41-3.72.74-3.82,1.22Z" transform="translate(-166.61 -518.21)"/>
    <path id="Gwanak-gu" class="cls-1" d="M335.81,803.92c-5.38-.32-11.31-.72-17.69-1.18-5.68-.42-12.4-.54-17.92-1.32s-10.94-2.08-17.45-3.22c-5.86-1-13.95-1.66-17.81-3.13-2.81-1.06-5-2.66-7.38-3.94s-5-2.7-7.6-4.08c-4.16-2.19-12.59-5.83-15.22-8.17-2.07-1.83.48-4.23-.71-6.32,2.69-2.38,13.24-4.94,14.45-7.23,1.11-2.09-4.39-3.82-5.42-6.24,7.95,1.11,12.25-3.64,17.85-5.58a9.58,9.58,0,0,0-2.62-4.63c2.95-1.51,3.38-4.2,6.75-5.75s9.08-3.08,13.93-4.72l13.94-4.72c14.34-4.86,27.56-8.93,40.86-12.53a20.71,20.71,0,0,0-1.65-4.69c2-1.37,3.31-2.78,5.81-4.12,6.2,2.72,17.68,2.72,23.52,4.55,7.55,2.36,10.44,6.14,19.64,7,5-.47,10.19-1.11,15.19-1.51l8.41,4.86c2.43,1.19,4.49,3,7.14,3.81l9.34,5.39L432.62,743c2,3.74,4.2,7.5,5.37,11.19-9.58,4.18-19.12,8.36-29,12.52-1.11,3.8-2.62,7.57-3.46,11.39.39,1,3.38,2.05,4.77,3.06,1.1.44,1.85,1.47,3.17,1.52,3.6,2.95,10.69,2.7,14.13,4.11-10.78,2.27-14.37,4.57-18.56,7.35-7.51,5-16.62,10.52-20.84,15.06-2.43-.83-4.67-2-7.21-2.61Q358.46,805.13,335.81,803.92Z" transform="translate(-166.61 -518.21)"/>
    <path id="Gwangjin-gu" class="cls-1" d="M714.15,810.92c11.78-2.24,22.87-3.28,35.19-6.47,12.85,0,24.58.62,38.47-.83,14.07-1.47,27.69-5,42.71-7.1,6.89-1,14.73-1.26,22-1.94,7.68-.73,15-1.76,22-1.94,7.84,3.05,11.84,7.28,19.59,9.75,7,2.22,19,2.51,23.85,7.23,2.3.82-2.53,1.22-3.86,1.82-7.19,1.2-16.93-.3-23.75,1.24-4.11.92-6.78,3.45-10.32,4.93-5.34,2.24-13.78,3.6-15.12,6.22l3,1.76c-.07.68,2.43,1.51,3.37,2.25l4,2.3c-6.06.57-11.3,1.32-17.31,2.46-5.63,1.07-12,2.69-18.21,3.5-5.86.76-14.72,1-22.32,1.44s-15,.12-21.5,0c-6.66-.09-13.67-.34-21.24-.43-6.5-.08-16.95.45-21.24-.43-5.77-1.19-10.14-3.64-14.62-6l-3.27-1.89-4.67-2.7c-1-.35-1.54-1.29-2.71-1.25C719.31,820,714.85,815.35,714.15,810.92Z" transform="translate(-166.61 -518.21)"/>
    <path id="Jongno-gu" class="cls-1" d="M737.33,706.6a210.86,210.86,0,0,1-36.55-9c1.24-2.87,2-5.76,4-8.58a6.64,6.64,0,0,0,1.49-2.57c1.34-2.13,5.16-5,10.53-6.38,2.86-.74,8.13-1.19,12.55-1.78,8.81-1.17,16.79-2.07,25.2-3.2,4.38-.58,9.58-1.06,12.92-1.88,5-1.22,9-3.23,12.73-4.79s6.95-3.15,10.93-4.91c-.53-2-2.23-4.08-1.82-6l1.48-.4c1.53,0,3.63-.9,5.39-1.25l8.1-2.17,7.37-2c1.53,0,3.64-.91,5.39-1.25l8.1-2.17,7.37-2c1.53,0,3.64-.91,5.39-1.25l8.11-2.17c9.74-2.26,17-4.28,24.94-4.91,6.72-.53,14.18.88,21.33.8,5.15-.06,9.21-.69,14.42-.71,6.54,3.06,13.63,5.16,20.17,8.22-1.51,2.08-1.24,4.28-1.23,6.45-9.11,5.18-21.31,9.07-32,13.91s-16.89,11.13-32.95,15.54c-5.61.37-11.34.95-17,1.39-3.87-1-7.73-2.08-11.66-3-5.33,1.11-12.23,2.15-16.78,3.7-1.92,4.4,7.78,8.76,11.75,13.64,2,2.48,1.55,4.86,3.45,7-11.13,7.39-25.77,14.56-31.55,22.27,5.42,3.75,11.29,7.52,16.24,11.24l-2.57.69c-2.27.15-5.11,1.31-7.6,1.84l-9.58,2.57L789.32,740c-1.09-.43-1.84-1.47-3.17-1.52L781.72,736c-1.1-.43-1.85-1.47-3.17-1.52L774.34,732c-1.17-.48-2-1.57-3.4-1.66-6.64-3.24-13.9-5.41-20.64-8.49l-11.67-6.74c.54-2.1,3-4.08,2.67-6.24C741.12,708.27,738.73,706.89,737.33,706.6Z" transform="translate(-166.61 -518.21)"/>
    <path id="Jung-gu" class="cls-1" d="M769.14,750.19c-7.31.44-14.77,1.14-21.4.4q-4.74-.44-9.63-.57c-.26-.09-.61,0-.84-.17a56.1,56.1,0,0,0-8.19-.38c-10.33,1.18-20.25,1.62-30.35,2.41-1.43-2.74.48-5.28-1.57-8.07.37-.5-1.81-1.15-2.44-1.71l-4.2-2.43c.37-.5-1.81-1.16-2.43-1.72-10.29-4.28-1.64-7.42-2-11.11-.24-.86-3.06-1.88-4.3-2.8-1.33-.56-2.31-1.74-3.87-1.92l-4.67-2.7c-1.49-.65-2.63-1.92-4.34-2.19-7.16-3.42-14.25-7-21.49-10.23a193.55,193.55,0,0,0,21.65-10.54c9.68,1,19.06,2.59,29.73,1.9,8.41,2.82,16.15,5.4,25.42,7.21,5.65,1.1,10.34.83,14.27,3.88a33.88,33.88,0,0,0-3.38,5.83c9,7.15,22.73,10.61,33.72,16,1.09.44,1.85,1.47,3.17,1.52l4.2,2.43c1.18.48,2,1.56,3.4,1.65l4.21,2.43c1.17.48,2,1.56,3.4,1.65l4.21,2.43,1.17.68-6.27,1.67-6.63,1.78c-1.29-.11-3.14.77-4.65,1.05Z" transform="translate(-166.61 -518.21)"/>
    <path id="Jungnang-gu" class="cls-1" d="M1077.41,773.4c-3.6,2.81,3.63,6.26,4.87,9.36-10,1.76-6.38,6.17-12,8.34-5.84,2.27-13.16,1.69-20.25,3.25-5.09-.34-10-1.09-15.28-1l-.74.19a69.88,69.88,0,0,0-11,3c-2.56,1-2.74,2.1-4.89,3.09l-7.37,2c-10.42-1.39-16.34,3.15-27,4.66-5.44.77-18.19-1.34-24-1.08-2.77.13-5.33.89-7.43,1-6.38.34-15-2.13-20.6-1-2.91.59-3.3,1.94-4.76,2.86l-5.16,1.38c-.54-.14-.78-.81-1.54-.58-5.51-5-17.24-4.81-24.91-7.53-7.49-2.66-10.39-6.17-18.89-9.35,44.21-13.7,80.23-27.89,130.9-41.2,9.37,2.16,19.22,3.95,29.24,6,5.05,1,9.28,1.65,13.16,4.17,1,.39,1.69,1.38,2.94,1.38l3.73,2.16c1,.39,1.7,1.38,2.94,1.39l3.74,2.15c1,.4,1.69,1.38,2.93,1.39C1069.27,771.68,1073.49,772.28,1077.41,773.4Z" transform="translate(-166.61 -518.21)"/>
    <path id="Mapo-gu" class="cls-1" d="M661.83,601.67c-1.35,3-10.75,5.47-3.92,8.94-7.08,4.26-5.95,8.54-7.08,13.35-.73,3.1-.76,6.27-1.88,9.19-2.15,5.58-8.7,11.12-10.88,16.14-1.08,2.5-.74,5.15-2.27,7.72a12,12,0,0,0-2,3.5c.23.14,0,.24.09.37a13.64,13.64,0,0,0-2.15,3.74,12.26,12.26,0,0,0-2,3.5c.24.13,0,.24.1.37a12.21,12.21,0,0,0-2,3.5c-.67,1-1.86,2.06-1.52,3.17,4.9,3.88,13,9.62,18.74,13.93,2.2,1.65,3.82,3.69,6.36,4.61,4,1.46,11.44.61,15.21,2.25-3.62,1.59-6.07,3.59-9.62,5.34-2.85,1.4-9,4.42-12.4,5.29s-16.51,2.46-20,2.79c-11.5,1.1-22.21.69-32.65.46-14-.31-28.64-1.33-40.93-2.46.45-1.27,1.79-2.47,2.16-3.73s.63-2.54,1-3.81c.63-2.48,1.75-5.07,1.54-7.52-.67-7.69-5-15-9.17-22.42-2-3.47-2.72-7.38-3.79-11.22s-3.31-7.65-3.2-11.19c.09-2.67,2.41-5.9,3.56-8.85,2.91-7.5,5.37-14.69,8.69-22.07.66-1.47.89-3.37,2-4.47,2-2.08,7-3.8,9.52-5.71,2.35-1.74,3.82-4.12,5.45-6.2,2.68-3.42,6.19-6.5,5.06-9.84l.37-.1c5.88,1.69,18.87,1.45,24.2,3.38,5.73,2.08,8.12,5.19,14.52,7.76,4,.29,8.72.61,13.84.83,3.9.17,10.87.79,14.12.37,2-.28,3.54-1,5.39-1.25C651.65,600.63,656.27,601.82,661.83,601.67Z" transform="translate(-166.61 -518.21)"/>
    <path id="Nowon-gu" class="cls-1" d="M1184.5,730.3c-3.58.75-5.84.12-9.47.76a123.21,123.21,0,0,0-16.24,4.94c-2,.87-7.62,4.72-7.59,5.59.08,2.33,6.47,4.6,8.77,6.93,2.51,2.53,2.87,5.12,4.75,7.41-7,3-15.19,4.16-21.07,6.83-4.56,2.07-4.69,5.12-14.41,6.63-4.79,0-9.87.55-14.52.33-3.37-.91-4.46-2.25-7.68-2.87-2.67-.52-10.65-.3-14.29.47-5.23,1.1-8.21,3.1-9.35,4.87a15.24,15.24,0,0,0-4,.49c-3.81-1.3-8.05-1.87-11.22-4.3-1-.39-1.69-1.38-2.93-1.39l-3.74-2.15c-1-.4-1.69-1.38-2.94-1.39l-3.73-2.16c-1-.39-1.7-1.38-2.94-1.38-5.85-3.25-15.62-4.42-23.32-6-7.14-1.45-13.27-3-20-4.1-3.25-3.7-7.17-7.44-10.09-11.12,8.62-9.07,18.46-18.71,30-27.19,3.48,1.68,6.76,3.75,10.44,5.09,8.42-1,15.77-3.58,23.37-4.88,5.71-1,13-1.15,19.35-2.22,9.05-1.54,18.91-4.34,28.66-6.49,4.47-1,9.44-2,14.19-3,4.58-1,10.2-2,13.36-3.18,4.5-1.62,7.86-4.19,11.74-6.31,3.69-2,7.33-4.82,11.73-6.3,2.53-.85,6.67-1.4,10.28-2.16,3.36-.71,6.74-1.73,10-2.3,8.65-1.47,19.93-1.78,29.68-3.41,8.47-1.41,16.19-4.18,23.87-5.21,9.44-.26,13.66,2.55,23.06,4.28,3.1.57,8.72,1.21,12.24,1.46s8.83-.14,11,.42a21.63,21.63,0,0,1,7.27,3.57c1,.95-.51,2.72-.85,4.18-.78,3.34-1.08,5.46-1.84,8.59-.36,1.44-1.7,3.17-1.23,4.28,1.28,3,6,4.53,7.86,8-9.36,4.2-15.34,3.32-24.73,3.47-5.06.08-11.79-.17-15.39.76-3.29.85-7.41,4.13-8.66,5.28-2,1.87-2.55,5.57-6,7.14-4.75,2.17-11.33,2.85-18.46,5.53-5,.05-12.32-2.88-17.24-2.48-3.81.3-6.8,1.93-12,3C1188.46,729.17,1185.2,729.65,1184.5,730.3Z" transform="translate(-166.61 -518.21)"/>
    <path id="Seocho-gu" class="cls-1" d="M626,770.59c-6.84,3.74-10.26,8.8-18.52,12.66-3.54,1.66-8.79,3.3-13.1,4.89-4.49,1.66-10.71,3.12-13.7,4.86-3.7,2.15-1.91,5.8-5.66,7.63s-11.34,3.39-17,5.15c-11.72,3.64-23.06,7-25.07,11.06a10.33,10.33,0,0,0-1.88,3.27,12.26,12.26,0,0,0-2,3.5c-.8,2.25,1.84,4.7,1.88,7a48.84,48.84,0,0,0-4,7c-15.5,6.6-35.59,12.92-41.8,20.08,8.65,2.65,19.82,5.58,28.52,9.93,3.56,0,7,0,11.24,0,3.43-.08,7.91-.75,11.38-.29,7.78,1,21.86,6.17,23.9,10.38.63,1.31-1.55,2.65-1,3.81-.06.48-1.65.86-3.22,1.25-1,.39-3.47.68-3.45,1.13l-4.79,1.28c-1.7.58-5,1.07-5.66,1.71l-1.47.4c-2.34,2-3.53,4.14-6,6.16,1.1,4-.47,7.86-4.8,11.55-5-.81-10.33-4.21-15.7-4.08-4.1.09-6.34,1.79-10.55,2.63-4.44.87-10.47.53-14,1.57-4.2-1.35-7.52-4.24-12.43-4.37-7.4.85-13.37,2.34-19.63,1.12-3.92-.76-9.27-3.14-13.26-4.54-3.78-1.33-9.64-4.18-13.4-4.31-4.47-.15-11.2,1.84-15.86,2.67-5.83,1-10.78,1.77-15.74,2.44l-9.34-5.39c-3.43-2.34-4.83-4.56-8.16-6.9,0-3.94.59-8.71.66-13,0-1.55-2.22-4.3,2.6-5a24.77,24.77,0,0,0,6.63-1.78c11-4,19.08-8.12,28.52-12.18l4.05-1.09,3.68-1,12.89-3.46c1.9,0,4.38-1.1,6.5-1.54,2.55-.82,6.69-1.53,8.24-2.41,6.9-1.57,1.79-3.72-.38-5.82-1.92-1.87-2.09-3.54-5-4.77-2.66-1.13-10.38-1.74-15.07-2.48-5-.79-10.49-2.08-15.07-2.47-7.95-.69-17.19.1-23.05-.54a33.12,33.12,0,0,1-8.17-4.72c1.13-2.53,10.18-3.18,15-5,2.64-1,4.71-4.11,4.17-5.06-.43-.76-2.86-2.7-6.07-3.51s-6.84.2-10.74-.28c5.6-6.35,17.41-12.33,26.24-18.48,4.76-1.41,11.11-2.72,14.87-4.18,9-4.27,19.77-6.92,34.3-9.78,7.76-1.54,15.53-3.17,22-4.12,3.5-.52,7.91-.48,10.71-1.29,3.47-1,5.08-3,7.14-4.28,2.56-1.57,4.93-2.79,7.15-4.29a75,75,0,0,0-9.64-6.5c3.28-1.49,6.79-3,10.66-4.43,9.66,5.26,15.84,9.94,26.67,12.59,5,1.24,14.2,1.47,20.66,2C583.42,768.53,605.29,769.89,626,770.59Z" transform="translate(-166.61 -518.21)"/>
    <path id="Seodaemun-gu" class="cls-1" d="M701.51,689.35c-1.86,2.62-1.84,5.36-4,8-16.1.75-29.52-3.16-44.43-4.48-5.24-4-11.59-8.8-17.57-13.25-3.5-2.61-7.73-4.57-5.15-6.72a13.59,13.59,0,0,0,2.15-3.73,12.3,12.3,0,0,0,2-3.51c-.12-.12.13-.23-.1-.37a13.59,13.59,0,0,0,2.15-3.73,12.17,12.17,0,0,0,2-3.51c.27-5.27,4.23-11.19,8-16.55,1.39-2,1.94-6.25,5.28-7.54a149.15,149.15,0,0,1,16.14-3.13,28.81,28.81,0,0,1,5.78.22,58.82,58.82,0,0,0,6,.36l.37-.1c2.15.23,4.36.37,6.62.4,1.75,0,3.61-.13,4.78.89l7.71,4.45c1.72.79,3.09,2.2,5,2.6,2.92,1.78,5.94,3.38,9,4.89a130.92,130.92,0,0,0,24-1.1c7,2.42,14.58,3.89,21.89,5.79a204.59,204.59,0,0,1,26-2.43c6.68,1.48,15.07,1.29,19.24,5.5l-1.1.3c-2.52.22-5.61,1.43-8.34,2l-8.48,2.27c-1.22,2.06,1.07,4.33,1.55,6.49-6.89,3-13.92,6-21.68,9-11.75,1.45-25.34,3.42-38.49,5.18-4.5.6-9.65.84-12.79,1.65-4.73,1.22-6.6,3.48-10.69,5a6.41,6.41,0,0,0-1.48,2.57A6.57,6.57,0,0,0,701.51,689.35Z" transform="translate(-166.61 -518.21)"/>
    <path id="Seongbuk-gu" class="cls-1" d="M955.42,651.91c-.29,2-5.41,4.05-5.67,6.06-.35,2.63,4.34,5.07,4.84,7.78.31,1.66-.87,3.67-1.29,5.48-1.3,5.53-2.89,11.16-4.49,16.41-10,4.15-19.57,8.33-29.62,12.48.45,2.32-1.69,4.48,4.28,7.14l4.9,2.83c1.18.48,2,1.56,3.41,1.65l4.44,2.57,4.9,2.83c1.18.48,2,1.56,3.4,1.65,5.32,4.27,13.34,3.88,20.22,5.44,16-1,32-1.79,47.87-2.56-2.38,2.68-5.71,5.46-9,8.52-2.13,2-8.56,6.65-8.13,8.7.76,3.61,8.37,7,9.48,11.08l-5.15,1.38c-6.32,1.23-13.22,3.47-19.76,5.1-17.09-4.92-32.34-13-51.31-14.68q-6.54-.54-13.24-.8c-9,.15-18.41,1-27.5,1.25-10.23-2.9-18.58-4-29.65-5.28-3.54-.4-7.18-1.32-10.2-1.22-5.16.17-11.44,2-17.3,2.47-2.28.16-11.77,0-13.14-.43-3.37-1.1-5-3.56-7.54-5.28s-5.15-3.5-8.14-5.33c5.52-7.76,21.61-14.89,31.31-22.4-2.22-2.19-1.21-4.72-3.55-7.34-4.09-4.59-13.06-8.72-11.68-12.66,4.71-1.15,9.24-2,13.83-2.92,3.6,1.13,7.37,2,11,3,6.54-1,13.05-.46,19.08-1.75,11.44-2.45,16.8-6.51,22.69-9.64,3.51-1.87,6.89-4,10.86-5.87,11.09-5.17,24.42-9.53,32.88-14.34.31-2-.7-4.06,1-6,4.39,1.41,5.45,3.74,9.14,4.66C943.34,653,950.49,651.27,955.42,651.91Z" transform="translate(-166.61 -518.21)"/>
    <path id="Seongdong-gu" class="cls-1" d="M795.49,752l3,1.75c4.83.81,11.39-1.38,14.88,1.74-.52.42,1.48,1,2,1.45,4.47,2.52,8,5,11.88,7.48-4.17,2.12-8.78,4.22-13.31,6.33,5.14,8.32,11.54,16.72,14.57,24.92-22.24,4.16-40.4,7.5-60,8-6.67.17-13.94-.94-19.8-.22-4.62.57-8.45,2-12.49,2.75-7.37,1.41-14.67,2.07-22.19,3.38-2-7.82,0-16.69-8.15-25.25-1.67-1.77-5.52-3.87-8.47-5.83-8.64-5.73-17-9.23-28.21-13.17,9.65-4.13,19.29-8.27,28.66-12.41,10.57-.33,21.71-1.66,32.39-2.17q4.42.42,9,.54c3.15.29,6.36.49,9.63.58,6.61.59,14.11-.35,21.17-.54,1.78,0,4.13-1,6.13-1.44l6.26-1.68c1.41.07,3.39-.84,5-1.15l5.53-1.48c.77,1.7-2.84,3.13.55,5C793,751,795,751.54,795.49,752Z" transform="translate(-166.61 -518.21)"/>
    <path id="Songpa-gu" class="cls-1" d="M841.61,845.27c-.34,1.39-2,2.7-3.27,4a42.18,42.18,0,0,0,5.47,3.47c-4.69,3.79-19.12,5.41-29.26,6.46-3.62.38-9.06.49-10.94,1.16-3.86,1.37-.94,5.65-3.58,7.27-4,2.79-10.13,5.44-13.18,8.27,1.32,2,5.45,4.2,8.2,6.3-1.62,2.72-2.22,5.5,2.5,8.6-5.95.49-11.17.42-17.8.63-3.82.12-15,0-18.43,1.19-2.87,1-.35,2.93-3.4,4.26-3.48,1.52-6.58,1.35-11.42,3.06-6.06,5.6,4.45,12.19,7.48,18.33.16.82,2.91,1.79,4.07,2.66-2,1-6.67,1.86-9.71,2.8-8.17-2.5-14.69-3.08-24.92-1.61-7.34,1.05-14.8,3.53-22.13,4.35-5.72.63-10.51-.09-15.35.16-4.7-1-6.88-3.11-11.39-3.46-2.39-.19-11.57.94-16.16,1.57-3.35.45-5.95,2.06-8.61,2.5-3.13.52-6.59-.23-9.16-.31-1.41-.61-2.47-1.83-4.11-2.06-4-1.84-5.28-3.91-9.14-4.65-3.16-.61-9.7.42-13.82.74-5.45.42-10,.84-13.95,1A106.17,106.17,0,0,0,619.16,908c1.76-1.61,2.79-3.54,5.24-4.76,6.49-3.24,16.69-5.36,23.85-9,.89-4-.18-8.07.73-12,2.53-1.26,5.54-2.49,8.08-3.75a17.68,17.68,0,0,0,2.42-4.2c-3.14-4.32-11.2-8.6-13.86-12.67-.9-1.38-.49-3.27-.91-4.89-1-3.7-1.45-6-.53-9.33.41-1.46.57-3.32,1.59-4.38,2.13-2.2,6.79-4,9.93-6.41,1.46-.52,4.47-.94,4.93-1.52l6.26-1.67,7.37-2c1.21-.45,4-.81,4.18-1.32l6.63-1.77,7.37-2c1.22-.45,4-.81,4.19-1.32l1.84-.49a17.18,17.18,0,0,0,4.5,3.53l3.27,1.89,4.67,2.69c.94.35,1.54,1.29,2.7,1.25l6.31,3.65c1,.39,1.7,1.38,2.94,1.38,5.58,1.9,10.5,4.45,17,6.1,5.8,1.46,11.75,1.28,18.52,1.35,11.83.12,23.24.26,34.66.39,7.77.09,15.75.54,22.94.17C825,846.53,833.76,845.61,841.61,845.27Z" transform="translate(-166.61 -518.21)"/>
    <path id="Yangcheon-gu" class="cls-1" d="M404.33,590.32c5-.24,10.23-.82,15-.67,2.59,1.92,7.5,2.7,9,4.29.7.73-.35,2.95-1.19,3.67-1.31,1.14-4.46,2.42-6.88,3.82-6.23,3.6-14.07,8.43-20,11.48-1.81,3.1,0,5.93,3.77,9.65,1.65,1.63,2.85,3.44,5.17,4.54,5.38,2.55,14.83,3.42,20.35,5.21,8-1.28,19.53-.23,26.89-1.29,8.51-1.22,15.75-4.44,23.41-5.48,4.85-.66,8.84-.15,13.55-.27,2.65,1.81,3,3.48,4.15,5.2,1.49,1.78,7.12,3.81,8.61,5.59-5.86,4.17-14.5,7.84-20.29,12-1.54,1.09-1.76,2.61-4,3.63-3.44,1.6-8.58,2.24-12.2,3.86-10.27-.72-20.19-2-30.52-2.68l-11.06,3c-3.61.51-7.81,2-11.65,2.93l-18.42,4.93c-10.2,1.85-19.22,1.66-28.91,2.62-1.27,0-1.78-1.22-3.07-1.15-7.05-3.74-16.07-7.5-14.43-11.14,4.05-2.13,8.64-4.23,12.7-6.37a29.62,29.62,0,0,0-6-4.1c.44-.46-1.65-1.07-2.2-1.58l-3.51-2c-11.54-1.21-23.63-1.49-34.84-3.3L312,633.22c-1.33-.56-2.31-1.74-3.87-1.92l-2.8-1.62a78.76,78.76,0,0,0,8.62-4.68c-3.07-2.92-6.44-5.86-9.86-8.8,6.48-1,19.21-.69,25.73-2,9.57-1.88,20.5-5.5,31.68-8.49s24.42-5.7,32-8.59C399.16,595,400.56,591.84,404.33,590.32Z" transform="translate(-166.61 -518.21)"/>
    <path id="Yeongdeungpo-gu" class="cls-1" d="M440.74,654c4.18.42,9.15.81,14.78,1.37,3.81.38,11.15,1.69,14.91,1.14,5-.74,7.7-2.84,13.9-4.12,3.17-3.67,9-6.56,15.23-10.2s9.86-7,21.62-9.94c-.55,5.11-5.81,10.19-6.12,15.46-.16,2.53,1.61,5.22,2.3,7.87,2,7.76,3.37,15.94,9.33,23.76-12.81,5.07-27.55,9.31-35.42,14.42-5.6,3.64-4.08,7.46-4.67,11.32l-.36.1c-16.11.39-32.32,1-49.09,2.49a222.94,222.94,0,0,1-43.44,7.3c-6.22-2-12.42-5.58-19-6.94-2.46-.51-14.22-1.48-16.72-1.25-6.84.63-12.95,3.25-21,4.06a27.07,27.07,0,0,0-4.28-1.23,42,42,0,0,1,.61-8.06l2.58-.69c1.09-.41,3.72-.74,3.81-1.22l5.9-1.58c1.09-.41,3.72-.74,3.82-1.22l6.26-1.68c1.09-.41,3.72-.74,3.82-1.22,9.25-1.47,6.47-4,10.26-5.9,4-2,10.52-3.62,15.44-5.72s9.51-4.05,14-5.93c-.08-3.71-.85-7.46-1-11.17l18.79-5,16.21-4.34C435.4,655.69,438.25,654.54,440.74,654Zm78.76,62.6c7.68-10.29,14.63-20.63,9.27-31.7-10.4,3.6-20.32,7.23-27.24,11.05-1.11,2.54-4.76,6.4-2.72,9,2.59,3.32,9.4,5.87,15.15,9.36C516,714.47,518,717.27,519.5,716.6Z" transform="translate(-166.61 -518.21)"/>
    <path id="Yongsan-gu" class="cls-1" d="M682.64,728c-.23,3.48-7.15,6.55,2.63,10.55-.36.5,1.81,1.16,2.44,1.72l4.2,2.42c-.37.5,1.81,1.16,2.44,1.72,1.44,2.83,1,5.54.83,8.27-10.19,3.9-19,8.52-28.75,12-16.23-2.61-36.27-3.39-55.81-4.19-14.81-.61-27.69-1.75-42-2.76-8.66-.62-13.86-.58-19.86-3.37-6.93-3.23-18.23-9.49-20-12.8-1.07-2,2-4.81,3.68-6.91,1.91-2.4,3.42-4.63,5.48-6.8,1.62-1.23,1.9-2.54,2.53-3.83-.55-.72.39-1.35.84-2a9.11,9.11,0,0,0,1.76-3,7.67,7.67,0,0,0,1.61-2.8,78.37,78.37,0,0,1,5.29-7.54c30.48,2,60.45,5,95.5-.91,7,3.59,14.22,6.65,21.13,10.33l4,2.29c1.33.57,2.31,1.74,3.87,1.92l4.67,2.7C680.57,726,683.73,727.1,682.64,728Z" transform="translate(-166.61 -518.21)"/>
  </g>
</svg>
