<svg id="Layer_3" data-name="Layer 3" xmlns="http://www.w3.org/2000/svg" viewBox="0 0 451.72 171.06">
  <defs>
    <style>
      .cls-1 {
        fill: rgba(255, 148, 156, 0.5);
        fill: rgba(231, 148, 36, 0.7);
        fill: rgba(112, 144, 165, 0.7);
      }
    </style>
  </defs>
  <title>transit</title>
  <g>
    <path class="cls-1" d="M134.8,354.55l.3-.48a215.22,215.22,0,0,1,42.19,6.78l2.31.65c2.24.64,4.56,1.3,7,1.83,8.54,1.84,18.89,2.14,28.89,2.43,4.16.12,8.45.25,12.59.48l1.18.07c1.77.1,3.6.21,5.41.22,1,0,2.1,0,3.13.05,2.1.05,4.27.1,6.32-.05,10.39-.74,19.49-1.12,28.62-1.2l2.87-.05c3.91-.09,8.35-.2,11.2.39a4.8,4.8,0,0,1,2.16,1,4.61,4.61,0,0,0,1.22.69c4.67,1.72,10,3.68,12.86,6.15l.24.2c.69.53,1.22,1,.86,1.37a4.31,4.31,0,0,1-1.63.65l-.46.13c-1.18.35-2.34.72-3.45,1.07l-3,.93c.57.33,1.08.66,1.58,1a18.26,18.26,0,0,0,4.23,2.18l-.91.37a18.76,18.76,0,0,1-4.43-2.27c-.59-.38-1.2-.77-1.88-1.15l-.34-.19.5-.15,3.45-1.07c1.12-.36,2.28-.72,3.47-1.08l.53-.15a3.44,3.44,0,0,0,1.11-.4c.2-.19-.48-.72-.81-1l-.27-.21c-2.79-2.4-7.78-4.24-12.6-6a5.8,5.8,0,0,1-1.43-.8,3.65,3.65,0,0,0-1.69-.78c-2.55-.53-7-.42-10.54-.34l-2.92.06c-9.06.07-18.08.45-28.4,1.19-2.22.16-4.47.1-6.65.05-1,0-2-.05-3-.05-1.91,0-3.79-.12-5.6-.22l-1.18-.07c-4.08-.23-8.36-.36-12.49-.48-10.14-.29-20.62-.6-29.4-2.48-2.53-.55-4.88-1.22-7.15-1.87l-2.3-.64A213.71,213.71,0,0,0,134.8,354.55Z" transform="translate(-55.73 -292.79)"/>
    <path class="cls-1" d="M274.87,393.74a11.81,11.81,0,0,1,3.62-1.62c3.37-1.17,8.47-2.94,12.11-7.1l.18-.19c.81-.91,1.08-1.22.33-2.11a12.71,12.71,0,0,0-1.76-1.55c-1.61-1.26-3.44-2.69-2.48-3.89.72-.91,2.76-1.56,4.57-2.12,4.78-1.5,9.42-3.11,13.8-4.79a28.51,28.51,0,0,1-10.29-4,27.13,27.13,0,0,0-10.18-4l-1-.14c-1.91-.27-4.07-.58-4.62-1.39-.22-.32.3-.67.75-1a2.19,2.19,0,0,0,.53-.42,36.55,36.55,0,0,1,5.8-6.16c1.23-1.13,2.51-2.3,3.62-3.48,2.22-2.36,6.37-4.87,10-7.08l2.53-1.55c5.14-3.19,9.12-6.07,11.85-9.76.09-.11.17-.23.25-.34a6.42,6.42,0,0,1,2-2,20.85,20.85,0,0,1,4.3-1.68c6.6-2,13.6-3.91,20.83-5.57l.22-.05a25.6,25.6,0,0,0,5.53-1.68c1.27-.66,1.86-1.7.45-2.31l1-.34c1.84.8,1.16,2.11-.42,2.93a27.37,27.37,0,0,1-5.95,1.82l-.21.05c-7.17,1.65-14.13,3.51-20.68,5.53a19,19,0,0,0-4,1.54,6.1,6.1,0,0,0-1.88,1.88l-.25.35c-2.78,3.75-6.81,6.66-12,9.89L301,343c-3.62,2.19-7.72,4.67-9.89,7-1.12,1.19-2.41,2.37-3.65,3.51a35.62,35.62,0,0,0-5.73,6.08,2.58,2.58,0,0,1-.66.55c-.3.21-.71.49-.62.62.4.58,2.17.83,3.89,1.08l1,.14A28.37,28.37,0,0,1,296,366a26,26,0,0,0,10.59,4l.91.13-.72.27c-4.62,1.79-9.53,3.51-14.61,5.1-1.73.54-3.51,1.1-4.11,1.86-.81,1,.9,2.36,2.41,3.54a13.68,13.68,0,0,1,1.83,1.61c.87,1,.49,1.47-.34,2.42l-.18.19c-3.76,4.29-9,6.12-12.5,7.33a11.42,11.42,0,0,0-3.25,1.41Z" transform="translate(-55.73 -292.79)"/>
    <path class="cls-1" d="M218.53,351.19l.67-.43a40.39,40.39,0,0,0,5.81.51c.9,0,1.84.09,2.7.15l1.68.1a31.37,31.37,0,0,1,3.65.34,49.89,49.89,0,0,0,7.59.56l-.09.5a53.16,53.16,0,0,1-8-.6,28.54,28.54,0,0,0-3.36-.31l-1.74-.11c-.82-.06-1.69-.09-2.61-.14A40.71,40.71,0,0,1,218.53,351.19Z" transform="translate(-55.73 -292.79)"/>
    <path class="cls-1" d="M93.41,371.14l22.26-10.73a32.06,32.06,0,0,1,3.43-1.48c1.26-.44,2.69-.8,4.07-1.15,2.47-.62,4.51-1.18,6.48-1.72,1.66-.46,3.37-.93,5.35-1.44-6.35-.73-18.5-2.8-19.44-3.58a17.46,17.46,0,0,1-1.88-2,15.4,15.4,0,0,0-2.55-2.6,28.08,28.08,0,0,0-7.62-3.18,33.81,33.81,0,0,1-8.34-3.45l-.53-.35a15.34,15.34,0,0,0-7.29-3c-.78-.09-1.69-.12-2.57-.15-1.91-.06-3.89-.13-5.07-.74l1.05-.31a11.94,11.94,0,0,0,4.22.56c.93,0,1.9.07,2.8.16a16.72,16.72,0,0,1,8,3.19l.52.34a32.85,32.85,0,0,0,8.07,3.34,29.25,29.25,0,0,1,7.91,3.31,15.63,15.63,0,0,1,2.64,2.68,16.71,16.71,0,0,0,1.83,2h0c.69.39,11.62,2.67,20,3.47l1.36.13-1.23.31c-2.47.62-4.51,1.18-6.48,1.72s-4,1.11-6.53,1.74c-1.34.33-2.72.68-3.9,1.1a29.46,29.46,0,0,0-3.27,1.41L94.4,371.43Z" transform="translate(-55.73 -292.79)"/>
    <path class="cls-1" d="M55.73,388.29l2.42-1c12.38-5.22,24.46-10.67,35.89-16.2l1,.29c-11.44,5.54-23.54,11-35.95,16.23l-2.42,1Z" transform="translate(-55.73 -292.79)"/>
    <path class="cls-1" d="M151.17,417.41c-2.93-1.69-.93-4.07,1.7-5.6a39.12,39.12,0,0,0,7.57-5.24c.35-.35.63-.67.9-1a12.77,12.77,0,0,1,1.81-1.77c2.35-1.85,7.11-3,11.91-4.05,2.51-.53,5.08-1.15,7.57-1.74s5.1-1.22,7.64-1.76a62.12,62.12,0,0,0,7.61-1.92c2.45-.87,3.92-1.89,4.15-2.87.25-1.13-.66-2.1-1.63-3.12a7,7,0,0,1-1.73-2.39c-.28-.86.32-2,1.59-3,.42-.33.37-2.12.2-2.69s-.52-.67-1.21-.81a7.27,7.27,0,0,1-2.16-.71c-2.18-1.19-2.35-2-2.6-3.17-.05-.24-.11-.51-.18-.8l1.28-.08c.08.3.13.56.18.81.25,1.19.39,1.85,2.39,2.93a5.67,5.67,0,0,0,1.75.58c1,.2,1.61.39,1.83,1.16.1.31.37,2.42-.33,3-1.15.89-1.7,1.92-1.46,2.67a6.62,6.62,0,0,0,1.66,2.29c1,1,2,2.09,1.7,3.33s-1.88,2.25-4.59,3.21a64,64,0,0,1-7.89,2c-2.51.53-5.08,1.15-7.57,1.74s-5.1,1.22-7.64,1.76c-4.59,1-9.14,2.1-11.32,3.81a11.8,11.8,0,0,0-1.74,1.71c-.28.31-.56.64-.92,1a39.56,39.56,0,0,1-7.71,5.34c-2.41,1.4-4.27,3.56-1.67,5.06l.09.05-1.08.3Z" transform="translate(-55.73 -292.79)"/>
    <path class="cls-1" d="M216.61,377.87c1.82-1,5.09-1.17,8-1.36l.32,0,.13.49-.32,0c-2.63.17-5.61.36-7.08,1.14Z" transform="translate(-55.73 -292.79)"/>
    <path class="cls-1" d="M203.73,394.84a4,4,0,0,1-2.17-2.5l1.29-.07c.43,2.3,4.17,3.37,8.14,4.5,1.3.37,2.64.75,3.89,1.19,4.36,1.51,9.21,3.44,12.14,6.24.22.22,0,.5-.2.79s-.38.52-.25.64a7.49,7.49,0,0,0,2.06,1l3.63,1.31-.91.37L227.71,407a8.21,8.21,0,0,1-2.32-1.11c-.31-.27-.06-.62.19-1,.11-.15.3-.41.24-.48-2.85-2.72-7.58-4.6-11.84-6.08-1.2-.42-2.53-.79-3.81-1.16A30.24,30.24,0,0,1,203.73,394.84Z" transform="translate(-55.73 -292.79)"/>
    <path class="cls-1" d="M185.25,370.21a30.2,30.2,0,0,0,3.48-3.83,32.32,32.32,0,0,1,3.52-3.88c2.7-2.4,4.77-4.87,1.69-6.65l0,0A2.57,2.57,0,0,1,193,355a3.08,3.08,0,0,0-.26-.33l0,0c-.47-.55-1.06-1.22-.8-1.83a13.59,13.59,0,0,0,.52-7.51,2.94,2.94,0,0,0-.23-.73c-.24-.61-.49-1.24.2-1.87.14-.13.31-.32.49-.52a6.26,6.26,0,0,1,1-.95c1.61-1.11,1.42-1.58,0-2.61a11.75,11.75,0,0,0-1.36-.66,10.57,10.57,0,0,1-1.77-.9c-.43-.36-.7-.63-.65-1.07l.5-4c0-.25.19-.35.42-.48a2.09,2.09,0,0,0,.27-.16,7.48,7.48,0,0,1,2.67-1l.77-.2c2.5-.67,3.28-3.61,2.86-5.38-.58-2.46,0-4.22,1-6.63l1.27,0c-1,2.38-1.55,4.11-1,6.51a5.29,5.29,0,0,1-.37,3.28,4.55,4.55,0,0,1-3.08,2.58l-.81.21a6.24,6.24,0,0,0-2.17.77,2.44,2.44,0,0,1-.39.24c-.13.07-.15.08-.16.2l-.5,4c0,.32.13.51.54.85a12.12,12.12,0,0,0,1.59.79,12.23,12.23,0,0,1,1.5.74c1.64,1.15,1.89,1.79,0,3.09a5.51,5.51,0,0,0-.88.87c-.19.21-.37.4-.53.55-.54.49-.33,1-.1,1.59a3.61,3.61,0,0,1,.24.77,13.85,13.85,0,0,1-.54,7.63c-.21.48.32,1.1.75,1.59l.05,0,.28.36a1.91,1.91,0,0,0,.8.72l0,0c3.4,2,1.24,4.58-1.6,7.11A31.53,31.53,0,0,0,190,366.5a31.68,31.68,0,0,1-3.53,3.88Z" transform="translate(-55.73 -292.79)"/>
    <path class="cls-1" d="M159.51,397.6a2.92,2.92,0,0,1-1.21-1.1,18.77,18.77,0,0,1-1.18-4.24c-.19-.93-.37-1.81-.56-2.4-1.28-4-2.65-5.92-8.21-9.33a12.55,12.55,0,0,0-1.7-.7c-1.47-.55-3-1.12-3-1.68a9.45,9.45,0,0,1,1.34-2.39,11.57,11.57,0,0,0,1-1.62c.26-.78-1.51-1.09-4.45-1.5-.9-.13-1.83-.26-2.65-.42a37.84,37.84,0,0,1-8.59-2.47c-2-.93-4-3,4.13-6.58a99,99,0,0,1,16.25-5.64,4.94,4.94,0,0,0,4-3.83,8.07,8.07,0,0,0-.6-4.74c-.25-.22-3.11-1.18-19.26-5l-1.2-.28-.5-.13.35-.2c2.56-1.52,5.32-3.07,8-4.57s5.41-3,8-4.56l1.07.25c-2.57,1.52-5.33,3.07-8,4.57s-5.15,2.9-7.61,4.35l.65.15c17.14,4,19.65,4.94,19.81,5.3,1.15,2.53,1.79,7.69-4,9.1a96.49,96.49,0,0,0-15.94,5.55c-3.22,1.4-8,4-4,5.94a37.22,37.22,0,0,0,8.22,2.35c.76.15,1.65.27,2.51.39,2.64.37,5.62.79,5.22,2a11.21,11.21,0,0,1-1,1.68,9.7,9.7,0,0,0-1.29,2.28c0,.36,1.49.92,2.59,1.33a14,14,0,0,1,1.87.79c5.69,3.49,7.08,5.44,8.39,9.52a23.28,23.28,0,0,1,.57,2.42,19,19,0,0,0,1.15,4.18c.5,1,2.34,1.59,4.47,2.32s4.55,1.54,5.86,2.86c1.09,1.1,4.11,1.66,7.93,2.37a67.67,67.67,0,0,1,9.81,2.34l.74.27a10.69,10.69,0,0,0,2.75.81,27.87,27.87,0,0,0,5.94-.87,39.35,39.35,0,0,1,4.62-.81,18.5,18.5,0,0,1,7,.89c.55.16,1.13.31,1.72.46,4.86,1.17,9.74,2.55,14.46,3.88,3.84,1.09,7.81,2.21,11.83,3.24l4.47,1.13c11.35,2.89,24.22,6.16,33.41,10a62.45,62.45,0,0,1,7.46,3.76c5,2.85,9.31,5.31,24.87,7.8l-.57.45c-15.88-2.53-20.5-5.17-25.38-7.95a60.1,60.1,0,0,0-7.36-3.71c-9.09-3.77-21.9-7-33.19-9.9L236,414.54c-4-1-8-2.16-11.87-3.24-4.92-1.39-9.57-2.7-14.4-3.87-.62-.15-1.21-.31-1.78-.47a15.78,15.78,0,0,0-6-.81,36.23,36.23,0,0,0-4.24.75,29.43,29.43,0,0,1-6.74.93,11.28,11.28,0,0,1-3.46-.94l-.7-.26a65.81,65.81,0,0,0-9.53-2.26c-3.9-.73-7.27-1.35-8.52-2.61s-3.41-2-5.54-2.7A20.86,20.86,0,0,1,159.51,397.6Z" transform="translate(-55.73 -292.79)"/>
    <path class="cls-1" d="M94.14,358.49l-.31-.19a4,4,0,0,1-1.49-3.07,5.93,5.93,0,0,0-.34-1.49A16.67,16.67,0,0,0,90.34,351a16.21,16.21,0,0,1-1.68-2.74,4.45,4.45,0,0,1-.22-2.93c.13-.5.81-1,1.47-1.44a4.08,4.08,0,0,0,1.26-1.11c.89-1.74-1.4-4.28-2.78-5.79l-.47-.53,1.23-.18.46.52c1.42,1.56,3.78,4.17,2.83,6A4.54,4.54,0,0,1,91,344.13c-.62.44-1.21.85-1.31,1.25a4.39,4.39,0,0,0,.21,2.8,17,17,0,0,0,1.66,2.7,16.21,16.21,0,0,1,1.68,2.74,6.07,6.07,0,0,1,.36,1.55A3.73,3.73,0,0,0,95,358a14.62,14.62,0,0,0,4.82,1.48c1.25.26,2.53.52,3.66.88l1.14.37a34.14,34.14,0,0,0,9.54,2.1,18.43,18.43,0,0,0,2.76-.17,22.12,22.12,0,0,1,2.91-.21h1.84c1.77,0,3.6,0,5.24.12,3.37.3,6.67.68,9.87,1s6.47.75,9.8,1.05a33.06,33.06,0,0,1,5.08.72,12.39,12.39,0,0,1,3,1.28c1.38.78,2.61,1.65,3.8,2.48,3,2.14,5.93,4.16,11.26,5.18,1.15.21,2.42.39,3.66.55a27.37,27.37,0,0,1,7.12,1.56c2.59,1.2,2.62,3.19.09,5.31l-.56.47c-2,1.65-5.34,4.42-4.79,5.94.88,2.45-.29,4.89-1.07,6.5-.34.7-.72,1.49-.54,1.66a46.62,46.62,0,0,1,11,3.63,26.64,26.64,0,0,0,5.37,2c1,.24,1.79.47,2.51.67a16.4,16.4,0,0,0,7.64.74c5.19-.53,13.72-2,18.3-2.8.88-.16,1.78-.36,2.66-.56a25.36,25.36,0,0,1,6.81-.89,43,43,0,0,1,6.32.83c2.43.45,4.54.94,6.59,1.41s4.11.94,6.49,1.39c.55.1,1.26.27,2.09.48,1.7.42,4.56,1.13,5.74,1a45.45,45.45,0,0,0,9.38-2.38,29.58,29.58,0,0,0,3.38-2.71,49.8,49.8,0,0,1,7-5.42l1,.27a49.1,49.1,0,0,0-6.89,5.32,21.1,21.1,0,0,1-3.66,2.87,47.39,47.39,0,0,1-9.9,2.51c-1.79.25-4.48-.41-6.86-1-.8-.2-1.48-.37-2-.46-2.43-.45-4.54-.93-6.59-1.4s-4.11-1-6.49-1.39a40,40,0,0,0-5.91-.79,23.12,23.12,0,0,0-6,.82c-.91.21-1.85.42-2.79.58-4.62.81-13.22,2.3-18.52,2.83a19.17,19.17,0,0,1-8.7-.8c-.71-.2-1.51-.43-2.44-.66a27.89,27.89,0,0,1-5.64-2.07,45.22,45.22,0,0,0-10.77-3.54c-.9-.21-.61-.82,0-2.14.76-1.58,1.91-4,1.06-6.34-.6-1.67,2.72-4.41,4.91-6.22l.55-.47c.87-.72,3.43-3.22.06-4.8a25.54,25.54,0,0,0-6.6-1.42c-1.27-.17-2.58-.35-3.79-.58-5.66-1.08-8.76-3.26-11.77-5.36-1.18-.83-2.39-1.68-3.75-2.45a11,11,0,0,0-2.72-1.16,31.26,31.26,0,0,0-4.68-.65c-3.36-.3-6.67-.69-9.87-1.06s-6.46-.74-9.79-1c-1.49-.14-3.24-.12-4.93-.11H119.7a21.53,21.53,0,0,0-2.52.19,21,21,0,0,1-3.25.19,36,36,0,0,1-10.22-2.21l-1.12-.36c-1-.33-2.27-.58-3.46-.83A17.89,17.89,0,0,1,94.14,358.49Z" transform="translate(-55.73 -292.79)"/>
    <path class="cls-1" d="M155.46,354.72l.34-.49,2.06.19a32.71,32.71,0,0,0,3.74.23,61.21,61.21,0,0,0,11.75-1.39c2.05-.37,4.16-.76,6.32-1a99.87,99.87,0,0,1,13.7-.51l2.8,0c5.15,0,10.51-.08,15.94-.28a41.94,41.94,0,0,0,4.49-.5l1.84-.26a11.63,11.63,0,0,0,6.24-2.29l.86-.56a14,14,0,0,0,4.69-4.32,7.09,7.09,0,0,1,1.14-1.15c.64-.58,1.37-1.24,1.43-1.61a1.55,1.55,0,0,0,0-.6c-.05-.26-.05-.4.45-.74a13.27,13.27,0,0,1,2.75-.83l.89-.22a40,40,0,0,1,8.84-1.45,80.75,80.75,0,0,1,11,.44l2.44.2c1.3.1,3.61.08,5.47.06l1.67,0a47.27,47.27,0,0,0,7.67-.86l.36-.05A171.24,171.24,0,0,0,291.75,333l1-.27a36.77,36.77,0,0,1,5.39-1.19c.86-.11,1.73-.17,2.58-.23a29.71,29.71,0,0,0,3.17-.33c.52-.09,1-.21,1.53-.34s1.24-.3,1.94-.41a30.41,30.41,0,0,1,6.95,0,33.93,33.93,0,0,1,7.58,1.13c2.12.72,3.21,2.06,1.34,3.08a15.15,15.15,0,0,1-4.07,1.13,39.93,39.93,0,0,1-7.59.88,36.89,36.89,0,0,1-5.46-.53,38.63,38.63,0,0,0-4.44-.48,43.36,43.36,0,0,0-5.28.22c-1,.08-2.05.16-3.1.21-2.84.13-6.21.15-7.62-.77-3.24.7-6.79,1.37-10.91,2.06l-.36.06a49.6,49.6,0,0,1-8.19.89l-1.64,0c-1.92,0-4.32.05-5.75-.06l-2.47-.21a78.19,78.19,0,0,0-10.52-.43,37.2,37.2,0,0,0-8.27,1.37l-.91.22a16.81,16.81,0,0,0-2.27.65c-.32.21-.31.24-.27.45a1.65,1.65,0,0,1,0,.65c-.07.47-.81,1.14-1.53,1.78a7.51,7.51,0,0,0-1.07,1.08,14.63,14.63,0,0,1-4.84,4.46l-.85.56a13.46,13.46,0,0,1-7,2.53c-.58.07-1.18.16-1.78.25a46.2,46.2,0,0,1-4.84.53c-5.48.2-10.89.3-16.08.28l-2.81,0a96.14,96.14,0,0,0-13.25.48c-2.08.27-4.16.66-6.17,1a64.26,64.26,0,0,1-12.35,1.44,34.31,34.31,0,0,1-4-.24C156.89,354.85,156.26,354.78,155.46,354.72Zm131.32-19.9c1.07.67,3.82.66,6.41.54,1,0,2-.12,3-.2a48.34,48.34,0,0,1,5.67-.23,43.31,43.31,0,0,1,4.77.51,35,35,0,0,0,5,.5,38.45,38.45,0,0,0,7-.83,14.11,14.11,0,0,0,3.54-.95c1.42-.78.49-1.87-1.2-2.44a31.57,31.57,0,0,0-7-1,27.83,27.83,0,0,0-6.2,0,17.18,17.18,0,0,0-1.73.37c-.54.13-1.1.26-1.7.37a34.1,34.1,0,0,1-3.49.36c-.84.06-1.64.12-2.4.21a34.74,34.74,0,0,0-5,1.13l-1,.27C290.63,333.91,288.76,334.38,286.78,334.82Z" transform="translate(-55.73 -292.79)"/>
    <path class="cls-1" d="M343,440.34A60.66,60.66,0,0,0,335.66,423l-.45-.72c-1.3-2.1-2.64-4.26,1.62-6a3.19,3.19,0,0,0-.15-1.77,5,5,0,0,1-.22-1c-.2-3.31-2-5.56-3.63-7.55-2.12-2.62-3.95-4.88-1.09-8.51a1.22,1.22,0,0,0-.1-1.81c-.65-.53-2.72-.81-6.18-.83-8.21-.07-15.61-1.43-23.44-2.87l-4.57-.83c-2.38-.42-2.79-1.2-3-2-.09-.34.74-.76,2.11-1.42.68-.33,2-.95,1.88-1.11-1.62-1.6-.37-2.77.95-4a13.81,13.81,0,0,0,1.26-1.28c-7.06-6.43-16.7-10.84-28.65-13.09l-2.59-.46c-1.75-.3-3.56-.61-5.23-1A49.07,49.07,0,0,1,254,362.88L245.7,359a10.72,10.72,0,0,1-3.26-2,3.71,3.71,0,0,1-.75-1.73,2.71,2.71,0,0,0-2-2.4l.91-.37a3.1,3.1,0,0,1,2.39,2.69,3.48,3.48,0,0,0,.7,1.62,10.17,10.17,0,0,0,3.05,1.86l8.26,3.9a48.1,48.1,0,0,0,9.93,3.75c1.6.39,3.38.69,5.09,1,.87.15,1.76.3,2.62.47,12.27,2.31,22.13,6.81,29.31,13.39l.09.08-.07.09a13,13,0,0,1-1.37,1.41c-1.33,1.24-2.37,2.21-.93,3.63.4.4-.76,1-2.11,1.61-.69.33-1.84.89-1.81,1,.23.81.66,1.31,2.32,1.6l4.58.83c7.72,1.42,15,2.76,22.95,2.82,4,0,6.37.39,7.23,1.1a1.44,1.44,0,0,1,.16,2.15c-2.75,3.49-1.05,5.58,1.09,8.23,1.63,2,3.48,4.3,3.69,7.67a4.94,4.94,0,0,0,.21,1,3.11,3.11,0,0,1,.12,2l0,.09-.16.06c-3.92,1.51-2.7,3.47-1.41,5.55l.44.73a60.47,60.47,0,0,1,7.32,17.46Z" transform="translate(-55.73 -292.79)"/>
    <path class="cls-1" d="M229.05,389.9c-4.86-2.81-7.19-6.51-6.46-10.46a1.05,1.05,0,0,1,.51-.81c.84-.55,2.67-.77,5.17-.61l2.4.18a42.18,42.18,0,0,0,9.46,0,30.07,30.07,0,0,0,6.63-2c1.14-.45,2.32-.92,3.59-1.31,4.3-1.34,8.24-2.43,13.14-3.65l1-.27a16,16,0,0,1,4.72-.54h.64c.8,0,1.7,0,2.43,0a32.24,32.24,0,0,0,7.47-.93l.43-.09c3.07-.63,6.1-1.33,9-2.09l.68.4c-2.94.77-6,1.49-9.13,2.12l-.42.09a34.09,34.09,0,0,1-8.22,1c-.68,0-1.56,0-2.33,0h-.64a12.91,12.91,0,0,0-3.95.46l-1.05.26c-4.87,1.21-8.77,2.3-13,3.62-1.21.38-2.35.83-3.46,1.27a32.23,32.23,0,0,1-7.12,2.13,44,44,0,0,1-10.2,0l-2.36-.17c-.89-.06-3-.14-3.77.35a.78.78,0,0,0-.34.58c-.84,4.6,2.56,8.84,9.3,11.65a30.43,30.43,0,0,0,11.34,2l1,0c.68,0,1.39-.07,2.12,0a22.4,22.4,0,0,1,2.59.27l.4.06a65.86,65.86,0,0,0,13.54.43l1.83-.14c1.38-.12,2.81-.24,4.25-.26a60.32,60.32,0,0,1,7,.4A108.22,108.22,0,0,1,290,395.47l.9.21a19,19,0,0,0,6.46.74l.61-.08a12.15,12.15,0,0,1,1.56-.15,10.75,10.75,0,0,1,2.27.24l.65.12a18.72,18.72,0,0,0,7-.5,27.89,27.89,0,0,0,5.54-2.23l1,.29a29.1,29.1,0,0,1-5.87,2.34,21.68,21.68,0,0,1-8.27.56l-.72-.13a8.27,8.27,0,0,0-1.68-.2,10,10,0,0,0-1.15.12l-.7.09a21.42,21.42,0,0,1-7.47-.79l-.88-.2a107.76,107.76,0,0,0-12.48-1.7,57.43,57.43,0,0,0-6.62-.39c-1.33,0-2.64.13-4,.25l-1.87.15a68.79,68.79,0,0,1-14.21-.46l-.41-.06a22,22,0,0,0-2.26-.24c-.59,0-1.2,0-1.85,0l-1.09,0a33,33,0,0,1-12.3-2.09A27.19,27.19,0,0,1,229.05,389.9Z" transform="translate(-55.73 -292.79)"/>
    <path class="cls-1" d="M301.49,381.42l.31-.49a17.23,17.23,0,0,0,6.64-.68c2.48-.84,4-2.34,3.83-3.81,0-.11-.15-.2-.3-.3s-.63-.4-.2-.74a14.32,14.32,0,0,1,3.5-1.17l.32-.09,2.21-.59L320,373c.32-.09.71-.23,1.13-.39a11.16,11.16,0,0,1,2.63-.74,17.66,17.66,0,0,1,7.2.76c.39.11.8.22,1.23.32a95.42,95.42,0,0,0,10.6,2l1.83.26a20.07,20.07,0,0,0,6.73.26c.43-.07.95-.19,1.5-.31a17.12,17.12,0,0,1,4.78-.6c.42,0,.79.11,1.15.17a5.66,5.66,0,0,0,1.12.15,7.78,7.78,0,0,0,1.38-.14l.63-.09a28.72,28.72,0,0,1,5.16,0c1.18.07,2.3.13,3.41.09a25.07,25.07,0,0,0,7.94-1.83,130.63,130.63,0,0,0,17.64-7.95l.13-.08a15.73,15.73,0,0,1,4-1.71,12.48,12.48,0,0,1,6.19,0l-.9.38a9.49,9.49,0,0,0-4.64.07,14.21,14.21,0,0,0-3.63,1.56l-.14.08a132.16,132.16,0,0,1-17.82,8,27.71,27.71,0,0,1-8.77,2c-1.26.05-2.51,0-3.71-.09a24.65,24.65,0,0,0-4.55,0l-.56.08a11.34,11.34,0,0,1-1.94.18,10.88,10.88,0,0,1-1.6-.2c-.31-.06-.6-.11-.89-.14a15.08,15.08,0,0,0-3.83.55c-.58.12-1.13.25-1.63.33a22.75,22.75,0,0,1-7.72-.25l-1.78-.25a97.34,97.34,0,0,1-10.86-2l-1.26-.33a14.93,14.93,0,0,0-6.15-.69,9.71,9.71,0,0,0-2,.6c-.46.17-.89.34-1.31.45l-2.21.59-2.2.59-.33.09a20.4,20.4,0,0,0-3,1c-.11.09-.07.12.17.27s.45.29.47.53c.17,1.62-1.52,3.28-4.31,4.22A20.3,20.3,0,0,1,301.49,381.42Z" transform="translate(-55.73 -292.79)"/>
    <path class="cls-1" d="M314.61,394c1.25-1,4-1.68,7.43-1.94l2.18-.18c2.13-.19,4.34-.38,6.49-.39,5.82,0,11.94-.19,19.26-.49,8.18-.33,14.41.06,19,1.19a49.54,49.54,0,0,1,4.93,1.56l1.13.4,2.87,1a111.36,111.36,0,0,0,16.19,4.8c6,1.22,11.3,2.4,15.36,3.43a18.93,18.93,0,0,0,3,.21c.82,0,1.52,0,2,.11l.09,0c9,2.18,14.79,5.17,17.25,8.89l-1.25.15c-2.38-3.6-8-6.49-16.69-8.6-.28,0-.92-.06-1.54-.07a18.74,18.74,0,0,1-3.59-.3c-4-1-9.32-2.19-15.27-3.4A111.84,111.84,0,0,1,377,395.52c-.94-.34-1.89-.68-2.86-1L373,394.1a49.5,49.5,0,0,0-4.76-1.51c-4.39-1.07-10.36-1.44-18.25-1.12-7.36.3-13.52.46-19.38.49-2,0-4.15.2-6.21.38l-2.22.19c-3,.22-5.4.84-6.46,1.64Z" transform="translate(-55.73 -292.79)"/>
    <path class="cls-1" d="M248.23,384.66a25.69,25.69,0,0,1-9.13-8.31c-2.12-3.37-3.19-6.27-3.29-8.85a9.65,9.65,0,0,0-.72-2.66,11,11,0,0,1-.67-2.28c-.09-.65.24-.84.8-1.06s1.41-.57,1.88-2.9c1.14-5.6,3.36-8.36,9.53-11.78l1,.26c-6,3.34-8.17,6-9.29,11.53-.5,2.5-1.51,2.92-2.25,3.22-.33.13-.49.19-.43.67a11.42,11.42,0,0,0,.67,2.23,10.13,10.13,0,0,1,.73,2.73c.1,2.54,1.16,5.41,3.26,8.75,2.66,4.23,7.25,7.76,13.64,10.47a13.68,13.68,0,0,0,5.83,1.27c1.06,0,7.45-1.1,8.52-1.36a26.9,26.9,0,0,1,9.38-.6c4.3.26,10.2.63,24-1.12a74.58,74.58,0,0,0,14.07-3.36l1.33-.44a42.91,42.91,0,0,1,12.4-2.72,19.41,19.41,0,0,1,12.85,3.58,8.62,8.62,0,0,0,3.27,1.44,29.18,29.18,0,0,0,7.74-.25c7.68-1.12,17.55-2.23,25.74-.93,3,.47,6,.9,8.95,1.31,4.46.64,9.07,1.29,13.64,2.11l.1,0a24.69,24.69,0,0,1,2.78,1.05,29.15,29.15,0,0,0,9.37,2.58l.4,0a18.22,18.22,0,0,1,2.1.23,8.86,8.86,0,0,1,2.18.75l2.45,1.11a4.19,4.19,0,0,1,1.8,1.16c.29.48,0,1-.3,1.47s-.62,1.07,0,1.44l-1.08.3c-.95-.55-.58-1.2-.2-1.82.27-.45.52-.88.31-1.25a3.86,3.86,0,0,0-1.55-1l-2.45-1.11a8.07,8.07,0,0,0-1.82-.63,17.13,17.13,0,0,0-1.79-.2l-.42,0a31.32,31.32,0,0,1-10-2.72,26.51,26.51,0,0,0-2.56-1c-4.51-.81-9.08-1.45-13.5-2.08-2.94-.42-6-.85-9-1.32-7.78-1.24-17.34-.15-24.79.93a32.09,32.09,0,0,1-8.75.24,9.88,9.88,0,0,1-3.78-1.62,17.49,17.49,0,0,0-11.66-3.36,40.29,40.29,0,0,0-11.65,2.59l-1.34.45a77.26,77.26,0,0,1-14.54,3.45c-14.1,1.79-20.42,1.4-24.61,1.15A23.72,23.72,0,0,0,269,387c-1.14.28-7.73,1.39-9.14,1.44A15.85,15.85,0,0,1,253,387,42.73,42.73,0,0,1,248.23,384.66Z" transform="translate(-55.73 -292.79)"/>
    <path class="cls-1" d="M414.37,403.62a49.19,49.19,0,0,1,14.87-3.5c3.47-.32,7.08-.37,10.57-.42a89.85,89.85,0,0,0,14.26-.95l1.47-.29a27.81,27.81,0,0,1,5.35-.69,28.63,28.63,0,0,1,3.91.32l10.34,1.41-.5.47-10.34-1.41a24.74,24.74,0,0,0-3.48-.3,25.09,25.09,0,0,0-4.75.64l-1.52.29a92,92,0,0,1-14.78,1c-3.42.05-7,.11-10.31.41a46.51,46.51,0,0,0-14.14,3.33Z" transform="translate(-55.73 -292.79)"/>
    <path class="cls-1" d="M267,371.67a2.41,2.41,0,0,1-.78-.66l1.25-.16c.47.7,2.11,1.27,4.87,1.69l1.74.25a32.46,32.46,0,0,1,5.11,1,15.61,15.61,0,0,1,2.54,1.09l.52.26a82.64,82.64,0,0,0,11.46,4.11c4.54,1.39,9.23,2.83,12.62,4.69.42.24.86.47,1.3.71,2.35,1.26,4.78,2.56,6.12,4s2.37,3.15-.47,4.87l-1.07-.24c2.52-1.53,1.58-3.1.32-4.43s-3.67-2.64-6-3.88c-.44-.24-.88-.47-1.3-.71-3.3-1.81-7.92-3.22-12.4-4.6a82.91,82.91,0,0,1-11.65-4.18l-.52-.26a14.58,14.58,0,0,0-2.36-1,30.56,30.56,0,0,0-4.75-.89l-1.79-.25A14.87,14.87,0,0,1,267,371.67Z" transform="translate(-55.73 -292.79)"/>
    <path class="cls-1" d="M241.49,462.26l-.29-.47c7.21-.82,13.09-3.15,17.81-5a4,4,0,0,0,1.14-.59c.46-.5-.62-1-1.67-1.47-.23-.1-.46-.2-.67-.31-2.14-1-2.89-2.54-2.23-4.47A7,7,0,0,1,256.8,448a4.63,4.63,0,0,0,1.25-2.29,3.43,3.43,0,0,1,.73-1.65l.06-.09a8.87,8.87,0,0,1,2-1.73l.06,0c.56-.4,1.06-.73,1.51-1a5.19,5.19,0,0,0,2.44-2.44,6,6,0,0,0-1.11-2.69,4.76,4.76,0,0,0-1.54-.69,108.35,108.35,0,0,0-17.65-4,8.68,8.68,0,0,1-2.21-.62l-.83-.32c-1-.33-1.49-.47-2.11-.65-.41-.12-.88-.25-1.58-.47a14.92,14.92,0,0,0-2.09-.37,8.53,8.53,0,0,1-3.24-.82c-.48-.35-1.12-1.65-.95-2.07.59-1.42,3.42-2.41,6.15-3.37,1.07-.38,2.18-.77,3.13-1.18,5.31-2.29,6.73-3.32,10-6.37,4.7-4.35,18.76-9.16,30.69-10.49,1.06-.12,2.15-.23,3.2-.33,2.43-.24,4.94-.48,7.23-.9a74.12,74.12,0,0,0,9.56-2.3c2.08-.68,4.1-1.28,6-1.86s4-1.16,6-1.83c.3-.1.63-.2,1-.29,2.17-.64,4.22-1.25,1.14-3l1.07-.3c3.78,2.1.75,3-1.47,3.64-.32.09-.63.18-.91.28-2.07.68-4.1,1.27-6.05,1.85s-3.95,1.16-6,1.83a74.29,74.29,0,0,1-9.87,2.39c-2.42.43-5,.68-7.48.93-1,.1-2.12.2-3.16.32-11.58,1.3-25.22,6-29.79,10.18-3.19,3-4.7,4.12-10.27,6.52-1,.43-2.13.83-3.23,1.22-2.68.94-5.2,1.83-5.71,3.06a2.76,2.76,0,0,0,.82,1.78,7.49,7.49,0,0,0,2.6.6,16.77,16.77,0,0,1,2.43.45c.68.21,1.14.34,1.54.45.65.19,1.16.33,2.19.68.35.12.63.23.9.34a6.48,6.48,0,0,0,1.78.52A109.05,109.05,0,0,1,263,435a5.38,5.38,0,0,1,1.86.86c.42.39,1.38,2.48,1.19,2.95a5.73,5.73,0,0,1-2.62,2.62c-.44.29-.93.61-1.48,1l-.05,0a8.37,8.37,0,0,0-1.84,1.61l-.06.09a3.11,3.11,0,0,0-.69,1.54A4.86,4.86,0,0,1,258,448.1a6.93,6.93,0,0,0-1.18,1.86c-.61,1.8.06,3.19,2,4.12l.64.3c1.22.55,2.59,1.16,1.88,1.93a4.44,4.44,0,0,1-1.45.79C255.07,459,249.05,461.41,241.49,462.26Z" transform="translate(-55.73 -292.79)"/>
    <path class="cls-1" d="M200.33,413.83a1.27,1.27,0,0,1-.52-.43c-.09-.21.32-.56,1.22-1.07.7-.38,1.28-.73,1.83-1.07a19.54,19.54,0,0,1,6.81-2.8,36.72,36.72,0,0,0,6.9-2.51,2.88,2.88,0,0,0,1.51-2.21c.27-1.08.54-2.2,3.23-2.78l.58.42c-2.06.45-2.27,1.34-2.52,2.37a3.24,3.24,0,0,1-1.76,2.47,37.6,37.6,0,0,1-7.32,2.65,18.12,18.12,0,0,0-6.35,2.63c-.56.35-1.15.7-1.86,1.09a3.42,3.42,0,0,0-1,.71s.18.22,1.28.69c2.1.89,4,1.73,5.85,2.55s3.74,1.66,5.83,2.54a56.49,56.49,0,0,0,7.37,2.71A99.49,99.49,0,0,0,233,423.9c1.86.27,3.78.55,5.62.86a85.79,85.79,0,0,1,16.7,4.4,3,3,0,0,1,1.19.67c.31.4,0,.83-.32,1.14a13.55,13.55,0,0,1-4,3.48c-.67.37-1.45.72-2.21,1.07-1.7.77-3.31,1.5-3.73,2.39-.57,1.19,1.29,2.29,3.23,2.93a50.92,50.92,0,0,0,6.49,1.43l1.44.25c6.72,1.22,13,2.89,18.51,4.36a34.69,34.69,0,0,0,9.1,1.5c1.08,0,2.25-.08,3.38-.16a23.72,23.72,0,0,1,6.83.17l-.74.42a21.46,21.46,0,0,0-5.95-.1c-1.18.08-2.41.16-3.6.16a36.55,36.55,0,0,1-9.8-1.58c-5.49-1.46-11.71-3.11-18.35-4.32l-1.42-.25a52.07,52.07,0,0,1-6.77-1.5c-2.83-.93-4.18-2.19-3.62-3.37s2.3-1.84,4-2.64c.74-.33,1.5-.67,2.13-1a12.81,12.81,0,0,0,3.82-3.34c.28-.32.49-.6.3-.84a2.42,2.42,0,0,0-.9-.48A84,84,0,0,0,238,425.21c-1.81-.3-3.72-.58-5.56-.84a101.43,101.43,0,0,1-11.81-2.17,58.58,58.58,0,0,1-7.56-2.77c-2.1-.89-4-1.74-5.85-2.55s-3.74-1.66-5.83-2.55A7.55,7.55,0,0,1,200.33,413.83Z" transform="translate(-55.73 -292.79)"/>
    <path class="cls-1" d="M164.86,451.23c3.07-4,7.74-7.75,12.25-11.37,4.28-3.43,8.69-7,11.74-10.71.17-.21.31-.44.46-.65a4.3,4.3,0,0,1,2.24-1.94,23.25,23.25,0,0,1,3.3-.95l6.51-1.55c.71-.17,1.47-.32,2.21-.47a22.82,22.82,0,0,0,4.88-1.35,19.72,19.72,0,0,0,4.21-3.06l.47-.41c2.86-2.49,7.87-5.16,13.4-7.14l.85.35c-5.4,1.94-10.29,4.54-13.07,7l-.48.41a19.72,19.72,0,0,1-4.38,3.17,23.78,23.78,0,0,1-5.33,1.5c-.75.15-1.46.3-2.14.46l-6.5,1.54a22.32,22.32,0,0,0-3,.87,3.73,3.73,0,0,0-1.91,1.7,5.57,5.57,0,0,1-.48.67c-3.07,3.78-7.51,7.34-11.8,10.79-4.49,3.6-9.14,7.33-12.18,11.29Z" transform="translate(-55.73 -292.79)"/>
    <path class="cls-1" d="M202,391.55a8,8,0,0,1,3.24-.72c.6,0,1.19-.05,1.76-.06s1,0,1.45,0a37,37,0,0,0,4-.5c5-.82,10.18-2,13.66-2.72l.59.42c-3.5.78-8.75,1.92-13.81,2.75a38.11,38.11,0,0,1-4.34.54c-.54,0-1.06,0-1.57.05s-1.09,0-1.61.05a6.28,6.28,0,0,0-2.3.49Z" transform="translate(-55.73 -292.79)"/>
    <path class="cls-1" d="M227.35,357.85a39.23,39.23,0,0,1-8.91-6.78l1.21-.2a40.72,40.72,0,0,0,10.4,7.58,24.62,24.62,0,0,0,6.42,2.51l-.71.43a26.21,26.21,0,0,1-6.78-2.63C228.42,358.46,227.88,358.15,227.35,357.85Z" transform="translate(-55.73 -292.79)"/>
    <path class="cls-1" d="M174.14,311.65l.26-.49c2.82.16,4.84.44,6.46.66l1.32.18a36.59,36.59,0,0,1,3.63.69,29.91,29.91,0,0,0,3.93.71,54.68,54.68,0,0,0,11.38-.54c2.3-.26,4.68-.54,7-.65,2.82-.13,5.51-.14,9,0,2.5.08,5.14.05,7.69,0s5.12-.05,7.63,0c5.17.15,10.29.53,12.62,2.33,1.16.89,3.31,2.54,3.68,3.83a17.68,17.68,0,0,0,1,2.42c.73,1.53,1.49,3.11,1.19,4.71a26.54,26.54,0,0,1-1.25,3.75c-1,2.55-2.17,5.72-2.08,7.88l-1.29,0c-.09-2.2,1.12-5.39,2.1-8a27.41,27.41,0,0,0,1.24-3.71c.28-1.54-.46-3.09-1.17-4.59a16.09,16.09,0,0,1-1-2.45c-.35-1.21-2.44-2.82-3.56-3.68-2.07-1.59-6.82-1.94-11.64-2.08-2.44-.07-5,0-7.5,0s-5.26.06-7.83,0c-3.41-.11-6-.1-8.75,0-2.26.11-4.58.38-6.82.63a58.15,58.15,0,0,1-12.07.55,30.42,30.42,0,0,1-4.25-.76c-1.15-.26-2.23-.5-3.39-.65l-1.36-.18C178.78,312.07,176.83,311.8,174.14,311.65Z" transform="translate(-55.73 -292.79)"/>
    <path class="cls-1" d="M296,435.16l.12-.49a23.17,23.17,0,0,0,7.83-1.27,14.06,14.06,0,0,0,2.8-1.62l10-7c.67-.47,1.44-1,1.5-1.54.11-.91-1.65-1.57-3.52-2.26a20.16,20.16,0,0,1-2.85-1.22h0a5.42,5.42,0,0,1-2.27-2.59l-6-11.86a6,6,0,0,1-.9-2.87c.06-1,1.13-1.82,2.18-2.65a13.94,13.94,0,0,0,1.53-1.37,2.81,2.81,0,0,0,.39-.62,2.15,2.15,0,0,1,1.41-1.24l.92.32a1.63,1.63,0,0,0-1.06,1,2.72,2.72,0,0,1-.44.7A11.79,11.79,0,0,1,306,400c-1,.83-2,1.6-2,2.45a5.74,5.74,0,0,0,.88,2.76l6,11.86a5,5,0,0,0,2.09,2.43h0a20,20,0,0,0,2.7,1.14c2,.74,4,1.49,3.88,2.62-.08.65-.92,1.24-1.67,1.77l-10,7a14.3,14.3,0,0,1-3,1.73A25.59,25.59,0,0,1,296,435.16Z" transform="translate(-55.73 -292.79)"/>
    <path class="cls-1" d="M306.22,437.31l-.1-.49,13.48-.72c3.77-.2,7.66-.41,11.35-.87,2.43-.3,4.82-.72,7.13-1.13l2.34-.41c6-1,12.31-1.83,18.67-2.4l.22.48c-6.28.56-12.48,1.36-18.43,2.37l-2.33.41c-2.34.41-4.77.84-7.28,1.15-3.8.48-7.75.69-11.57.89Z" transform="translate(-55.73 -292.79)"/>
    <path class="cls-1" d="M303.74,404.26l-.3-.47c6.95-.81,16.37-2.44,21.77-5.63l.12-.08a41.33,41.33,0,0,1,4.67-2.49,2.33,2.33,0,0,0,1.05-1,4,4,0,0,1,.51-.68,2.51,2.51,0,0,0,.63-1.34,5.29,5.29,0,0,1,.15-.57c.51-1.47-2.69-3.08-5-4.25-1.93-1-4-2.28-2.52-3.91l1.22.13c-1,1.11-.29,2.15,2.34,3.46,2.47,1.24,5.85,2.93,5.27,4.6-.06.18-.1.36-.15.55a2.62,2.62,0,0,1-.71,1.48,3.48,3.48,0,0,0-.46.61,2.83,2.83,0,0,1-1.36,1.27,40.88,40.88,0,0,0-4.54,2.42l-.13.08C320.64,401.74,310.91,403.43,303.74,404.26Z" transform="translate(-55.73 -292.79)"/>
    <path class="cls-1" d="M250,463.71a2,2,0,0,0,.45-1.59,2.36,2.36,0,0,1,.43-1.65c1-1.27,3.94-2.08,6.78-2.86l1.41-.39a60.57,60.57,0,0,0,16.67-7.91,18.1,18.1,0,0,0,3.12-2.29c.35-.37,1.57-1.59,2.68-2.72.89-.88,1.71-1.71,2-2s.67-.7,1.05-1.11a46.91,46.91,0,0,1,8.18-7.29l1.12.21a47,47,0,0,0-8.09,7.21c-.38.42-.73.79-1.05,1.12l-2,2L280,447.16a18.28,18.28,0,0,1-3.23,2.39,61.78,61.78,0,0,1-17,8.05l-1.44.4c-2.64.73-5.38,1.48-6.25,2.59a2.13,2.13,0,0,0-.37,1.49,2.24,2.24,0,0,1-.53,1.77Z" transform="translate(-55.73 -292.79)"/>
    <path class="cls-1" d="M295.39,458.65c-1.61-.93-2.34-2.16-2.29-3.29a8.22,8.22,0,0,1,.77-2.66,6.23,6.23,0,0,0,.72-3.15,4.1,4.1,0,0,0-.1-.48A1.83,1.83,0,0,1,295,447c.91-.79,3.05-1.41,5.73-1.67,1.94-.18,3.9-.18,5.8-.17h1a154.87,154.87,0,0,0,28.8-2.62c1.6-.3,2.2-.45,3.52-.77l.65-.16a4.34,4.34,0,0,0,2.21-1.31c0-.12.23-.24.52-.31a11,11,0,0,1,3.52.17,29.48,29.48,0,0,0,4.69.35,61.11,61.11,0,0,0,8.73-1.28l11.68-2.31a7.88,7.88,0,0,1,1.78-.2,4.68,4.68,0,0,1,2.23.59,115.38,115.38,0,0,0,14.66,6.11l-.9.38a115.67,115.67,0,0,1-14.81-6.18,3.1,3.1,0,0,0-1.33-.41,5.5,5.5,0,0,0-1.1.14l-11.68,2.31a63.24,63.24,0,0,1-9.17,1.34,31.78,31.78,0,0,1-5.26-.37c-.81-.11-1.89-.24-2.31-.24a5.3,5.3,0,0,1-2.82,1.63l-.64.16c-1.33.32-2,.48-3.66.8a158.59,158.59,0,0,1-29.4,2.68h-1c-1.82,0-3.71,0-5.48.16-2.26.22-4.05.73-4.78,1.37s-.51,1.17-.36,1.83c0,.16.07.33.1.49a6.53,6.53,0,0,1-.74,3.26,8.13,8.13,0,0,0-.75,2.58c-.08,1.81,2,3.9,6.63,4.25l-.33.49A12.53,12.53,0,0,1,295.39,458.65Z" transform="translate(-55.73 -292.79)"/>
    <path class="cls-1" d="M217.48,401.32v-.5A44.05,44.05,0,0,1,232,402.51l1.31.34c2.86.72,5.48,1.53,8,2.3s5.11,1.57,7.93,2.29c4.91,1.24,10,2.52,14.35,4.1l2.12.79a45.31,45.31,0,0,0,6.91,2.2c5.43,1.16,12.1,1,16.74.68,4.08-.29,8.14-.81,12.07-1.31l5.15-.64c8.3-1,16.9-1.56,25.23-2.14,6.37-.44,13-.9,19.37-1.52C368.94,407.87,382,405,390,401a7.34,7.34,0,0,0,2.65-1.86,2.57,2.57,0,0,0,.34-1,4.07,4.07,0,0,1,.23-.84c.87-1.91,4.87-3.39,8.39-4.7a324,324,0,0,0,39.23-17.41l0,0,7.27-3.1c6.27-2.68,12.76-5.45,19.31-8a71,71,0,0,1,7.24-2.49c.71-.2,1.46-.38,2.19-.57,2.54-.63,5.17-1.29,6.4-2.29a3.08,3.08,0,0,0,1.05-2,3.36,3.36,0,0,1,1.23-2.23,14.54,14.54,0,0,1,4-1.78A126.77,126.77,0,0,1,507,348.3l.48.45A122.75,122.75,0,0,0,490.36,353a13.56,13.56,0,0,0-3.62,1.61,3,3,0,0,0-1.09,2.05,3.36,3.36,0,0,1-1.18,2.19c-1.4,1.14-4.2,1.84-6.9,2.52l-2.15.55a71.56,71.56,0,0,0-7.05,2.43c-6.53,2.53-13,5.3-19.27,8-2.43,1-4.84,2.07-7.25,3.08a322.38,322.38,0,0,1-39.36,17.47c-3.38,1.25-7.2,2.67-8,4.42a3.46,3.46,0,0,0-.21.78,2.8,2.8,0,0,1-.39,1.11,7.75,7.75,0,0,1-2.89,2c-8.19,4.09-21.53,7.05-39.63,8.81-6.44.63-13.06,1.08-19.46,1.53-8.28.57-16.85,1.16-25.07,2.13-1.71.2-3.44.42-5.11.63-4,.5-8.09,1-12.26,1.32-4.84.35-11.82.51-17.57-.72a46.62,46.62,0,0,1-7.17-2.28c-.69-.26-1.39-.53-2.1-.78-4.29-1.55-9.32-2.82-14.19-4.06-2.86-.72-5.48-1.53-8-2.3s-5.11-1.57-7.93-2.28l-1.32-.35A41.05,41.05,0,0,0,217.48,401.32Z" transform="translate(-55.73 -292.79)"/>
    <path class="cls-1" d="M286.52,368l1.08-.29c9.13,5.21,19.48,11.12,34,14.85l2.82.7a56.71,56.71,0,0,1,10.45,3.32c.63.29,1.15.57,1.65.83,1.75.94,3.4,1.83,9.95,3.1a32.82,32.82,0,0,0,6.44.3c1.51,0,3.07-.05,4.55,0,1.3.07,2.54.22,3.74.36l2.22.24a114.25,114.25,0,0,0,15.91-.06,100.24,100.24,0,0,0,11.27-1,43.94,43.94,0,0,0,15.26-5.77l1.62-1a52,52,0,0,1,12.22-5.73c.41-.13.87-.26,1.35-.39a19.24,19.24,0,0,0,3.82-1.32,5.75,5.75,0,0,0,1.84-1.74,10.44,10.44,0,0,1,.79-1,18.51,18.51,0,0,1,4.51-2.88,17.39,17.39,0,0,0,2.57-1.48l.09-.05,1.35-.65c8.12-3.94,16.52-8,28.36-10.1l2.41-.41c1.31-.21,2.66-.43,3.94-.69,2.09-.42,4-.94,6.16-1.53l.66-.18a112.68,112.68,0,0,1,11.62-2.77,50.82,50.82,0,0,1,14.11-.54l-.47.47a47.61,47.61,0,0,0-13.18.52A109.59,109.59,0,0,0,478.29,356l-.66.18c-2.18.6-4.16,1.14-6.33,1.57-1.33.27-2.71.5-4,.72l-2.37.39c-11.54,2-19.83,6.06-27.85,9.95l-1.31.63a20.36,20.36,0,0,1-2.67,1.54,17.7,17.7,0,0,0-4.33,2.74,9.8,9.8,0,0,0-.75.92,6.36,6.36,0,0,1-2,1.88,20.44,20.44,0,0,1-4.17,1.46l-1.32.38a50.76,50.76,0,0,0-11.9,5.6l-1.63,1a45.46,45.46,0,0,1-15.87,6,103.58,103.58,0,0,1-11.64,1,119.14,119.14,0,0,1-16.37.05c-.78-.07-1.55-.16-2.29-.25-1.21-.14-2.36-.27-3.56-.34-1.37-.08-2.87-.06-4.31,0a35.25,35.25,0,0,1-7.05-.34c-6.81-1.33-8.62-2.3-10.37-3.24-.49-.26-1-.53-1.6-.8a54.56,54.56,0,0,0-10.2-3.24l-2.82-.71C306.12,379.18,295.7,373.24,286.52,368Z" transform="translate(-55.73 -292.79)"/>
    <path class="cls-1" d="M405.33,363.33l.27-.49h.17A134.43,134.43,0,0,0,424,363c.54,0,1.09-.1,1.62-.16a19.25,19.25,0,0,1,5.72,0,11.71,11.71,0,0,1,3.17,1.12c4.25,2.13,9.25,3.45,15,5l.19.05a43.2,43.2,0,0,1,5.89,2.16l1.85.77a29.77,29.77,0,0,0,4.46,1.06c.66.12,1.29.24,1.84.36a19.14,19.14,0,0,0,8-.17c.33-.08.64-.18,1-.27a18.32,18.32,0,0,1,2-.52,24.57,24.57,0,0,1,6.95.13l-.46.47a21.59,21.59,0,0,0-6-.15,14.79,14.79,0,0,0-1.77.45l-1.06.3a22.5,22.5,0,0,1-9.31.2c-.53-.12-1.14-.23-1.8-.36a30,30,0,0,1-4.78-1.15l-1.88-.78a40.43,40.43,0,0,0-5.68-2.08l-.19-.05c-5.86-1.55-10.93-2.88-15.29-5.07a10.43,10.43,0,0,0-2.8-1,16.5,16.5,0,0,0-4.79.07c-.55.06-1.12.12-1.69.16a138.92,138.92,0,0,1-18.72-.14Z" transform="translate(-55.73 -292.79)"/>
    <path class="cls-1" d="M167.42,306.76c-.27-.16-.5-.33-.72-.49l-.26-.19c-1.1-.75-2.31-1.49-3.59-2.19-.25-.14-.68-.38-.53-.66a3.57,3.57,0,0,0-.38-1.23c-.28-.42.1-.85.44-1.23l.15-.19a9.64,9.64,0,0,0,1.22-1.95,8.38,8.38,0,0,1,2.06-2.8,1.34,1.34,0,0,0,.41-.93c0-.13,0-.26.07-.39a1.1,1.1,0,0,0-.2-.77,1.17,1.17,0,0,1-.21-.95l1.28,0a1,1,0,0,0,.19.79,1.25,1.25,0,0,1,.22.92c0,.12,0,.24-.07.37A1.55,1.55,0,0,1,167,296a8,8,0,0,0-2,2.69,10.25,10.25,0,0,1-1.25,2,1.54,1.54,0,0,1-.17.19c-.3.35-.59.68-.4,1a2.94,2.94,0,0,1,.39,1.43c0,.09.2.22.34.3a40.8,40.8,0,0,1,3.66,2.23l.28.2a3.8,3.8,0,0,0,1.44.75,4.76,4.76,0,0,0,1.2,0c.32,0,.68,0,1.09,0,1.35,0,2.76,0,4.11-.07a19.52,19.52,0,0,1,4.7.38,26,26,0,0,1,9.15,5.34c.24.2.51.46.82.77.89.88,2.24,2.22,3.57,2.46l1.14.23c.6.13,1.27.27,1.65.33,2.75.44,3.94.79,3,2l-1.24-.1c.66-.9.18-1.07-2.34-1.47-.44-.07-1.11-.21-1.76-.35l-1.09-.22c-1.61-.3-2.84-1.4-4.16-2.71a9.36,9.36,0,0,0-.78-.73,25.16,25.16,0,0,0-8.88-5.2,17.71,17.71,0,0,0-3.68-.27c-1.46.08-2.92.08-4.33.07-.29,0-.57,0-.85,0a8.29,8.29,0,0,1-1.91,0A4,4,0,0,1,167.42,306.76Z" transform="translate(-55.73 -292.79)"/>
    <path class="cls-1" d="M183,369.35c-2-1.15-3.66-2.37-2.66-3.48a3.59,3.59,0,0,0,.8-3.11,3.31,3.31,0,0,0-.49-.83,1.54,1.54,0,0,1-.39-1.45,5.38,5.38,0,0,0,.12-.7,2.67,2.67,0,0,1,.44-1.41c.35-.48-.48-1.07-1.28-1.63a7.32,7.32,0,0,1-.95-.73c-.7-.68-1.56-1.61-2.47-2.59a47.63,47.63,0,0,0-6.51-6.24,6.83,6.83,0,0,0-2.85-.67,8.41,8.41,0,0,1-2.67-.54,25.23,25.23,0,0,1-4.76-3.42,25.75,25.75,0,0,0-4.31-3.16c-1.78-.93-3.39-1.72-4.94-2.43-.43-.19-.81-.33-1.15-.45-1.13-.42-1.73-.7-.7-1.49a52.88,52.88,0,0,1,5.67-3.47c1.19-.68,2.32-1.31,3.21-1.87,1.67-1.05,2.6-1.7,3.68-2.45.74-.51,1.5-1,2.6-1.77a5.36,5.36,0,0,0,1-1,5,5,0,0,1,2.32-1.68c2.21-.75,13.49-3.19,15.12-3.54,2.73-.57,2.25-1.57,1.47-2.56-4.48-1.26-5.58-2.14-7.95-4.06-.68-.55-1.44-1.17-2.43-1.91l-.05-.05a7.31,7.31,0,0,0-1.49-1.22,9.31,9.31,0,0,1-1.23-1,4.64,4.64,0,0,0-1-.73,4.25,4.25,0,0,0-1.9-.3,8.91,8.91,0,0,1-2.69-.34,6.82,6.82,0,0,1-1.84-1.12,1.46,1.46,0,0,1-.51-.7c-.11-.55.56-1.15,1.8-1.61a20.71,20.71,0,0,1,3.75-.87,66.1,66.1,0,0,1,12.07-.72,14.51,14.51,0,0,1,3.23.38,7.11,7.11,0,0,1,1.05.43,5.56,5.56,0,0,0,1.06.41,12.29,12.29,0,0,0,2.68.1,20.71,20.71,0,0,0,3.25-.28l.54.43a23.05,23.05,0,0,1-3.76.34,14.65,14.65,0,0,1-3.41-.16,6.72,6.72,0,0,1-1.38-.51,6,6,0,0,0-.86-.36,11.59,11.59,0,0,0-2.6-.29,62.93,62.93,0,0,0-11.45.69,18.76,18.76,0,0,0-3.3.75c-.95.36-1.46.8-1.38,1.2a1,1,0,0,0,.41.55,6.16,6.16,0,0,0,1.54,1,6.64,6.64,0,0,0,2,.23,6.39,6.39,0,0,1,2.8.48,5.47,5.47,0,0,1,1.13.85,8.68,8.68,0,0,0,1.15.89,7.63,7.63,0,0,1,1.59,1.31c1,.74,1.74,1.35,2.41,1.89,2.38,1.93,3.37,2.72,7.73,3.93l.16.05.06.07c.63.78,1.94,2.4-2.08,3.24-2.5.53-12.94,2.81-14.86,3.47a4.28,4.28,0,0,0-1.92,1.45,6.36,6.36,0,0,1-1.16,1.08c-1.08.72-1.84,1.25-2.58,1.76-1.09.75-2,1.4-3.71,2.47-.91.56-2,1.21-3.25,1.88a53.85,53.85,0,0,0-5.57,3.42c-.66.5-.51.56.48.92.34.13.76.28,1.22.49,1.57.71,3.21,1.51,5,2.45a26.2,26.2,0,0,1,4.43,3.24,25.87,25.87,0,0,0,4.62,3.34,7.18,7.18,0,0,0,2,.38,8.32,8.32,0,0,1,3.57.88,46.78,46.78,0,0,1,6.6,6.31c.91,1,1.76,1.9,2.46,2.57a7.36,7.36,0,0,0,.88.68c.88.62,1.87,1.31,1.38,2a2.53,2.53,0,0,0-.4,1.3,3.71,3.71,0,0,1-.12.73,1.32,1.32,0,0,0,.36,1.27,3.53,3.53,0,0,1,.51.89,3.75,3.75,0,0,1-.85,3.34c-1,1.12,1.68,2.6,3.85,3.79l.88.49.07,0c5.54,3.13,9.2,5.2,19,5.2,2.4,0,5.53.11,8.55.22,2,.07,3.91.14,5.48.17a64.76,64.76,0,0,1,7.65.76,46.12,46.12,0,0,0,9.6.68,50.12,50.12,0,0,0,10.28-2.1l3-.89c3.52-1.05,7.16-2.13,11.13-3l1.09-.23c3-.61,7.07-1.44,8.4-2.42,1-.75-.24-1.6-1.45-2.42-.32-.22-.65-.45-.93-.67a23.36,23.36,0,0,0-5.66-2.79l-9.81-3.75c-2.43-.94-5.2-2-6.42-3.38s-.21-2.21.67-3.11c.73-.75,1.5-1.54,1.09-2.58-.32-.85-.92-2-1.5-3.18-.47-.93-.91-1.8-1.2-2.48-.84-2-.07-4.66.94-6.54a141.42,141.42,0,0,1,11.14-17.8c.45-.61,1-1.22,1.42-1.82,1.5-1.86,2.91-3.62,3.28-5.51.63-3.24-1-6.44-4.64-9.25l1.16-.24c3.77,2.89,5.41,6.17,4.76,9.49-.38,1.95-1.81,3.74-3.33,5.63-.47.59-1,1.2-1.41,1.81a141.22,141.22,0,0,0-11.12,17.76c-1,1.83-1.74,4.46-.93,6.36.29.67.73,1.54,1.2,2.46.58,1.15,1.18,2.34,1.51,3.21.45,1.17-.41,2.05-1.17,2.83s-1.62,1.66-.64,2.77c1.13,1.29,3.79,2.31,6.14,3.21l9.8,3.75a24.32,24.32,0,0,1,5.89,2.91c.26.21.57.42.9.64,1.3.89,2.79,1.9,1.45,2.89-1.54,1.13-5.85,2-9,2.66l-1.08.22c-3.87.8-7.47,1.88-10.94,2.92l-3,.88a52.94,52.94,0,0,1-10.85,2.21,49.52,49.52,0,0,1-10.27-.7,61,61,0,0,0-7.29-.73c-1.6,0-3.51-.1-5.53-.18-3-.1-6.09-.21-8.44-.21-10.48,0-14.48-2.27-20-5.4l-.07,0-.87-.49Z" transform="translate(-55.73 -292.79)"/>
    <path class="cls-1" d="M165.9,295.61a15.14,15.14,0,0,1,5.07-1.22,12.47,12.47,0,0,1,1.76-.08,14.27,14.27,0,0,1,1.84.19,38.46,38.46,0,0,1,6,1.39l-.87.39A35.18,35.18,0,0,0,174,295a10.43,10.43,0,0,0-1.47-.16,11.28,11.28,0,0,0-1.34.06,12.77,12.77,0,0,0-4.34,1.05Z" transform="translate(-55.73 -292.79)"/>
  </g>
</svg>
