<svg viewBox="0 0 107.77 107.91" xmlns="http://www.w3.org/2000/svg"><g transform="translate(-210.16 -376.89)"><path d="m317.93 431.93c-.92.07-1.85.08-2.75.23a6.9 6.9 0 0 0 -4.68 2.84 2.78 2.78 0 0 0 -.3.53c-.34.82-.67 1.64-1 2.45a8.45 8.45 0 0 0 -.66 2.89 10.88 10.88 0 0 0 .23 3.77 7.62 7.62 0 0 0 3.51 4.29c.69.41 1.43.72 2.19 1.11l-1 2.37-.88-.34a8.3 8.3 0 0 0 -5.27-.47 5.58 5.58 0 0 0 -2.74 1.55c-.25.28-.51.54-.78.79a12.9 12.9 0 0 0 -3.31 4.93 7 7 0 0 0 .3 5.94 10.06 10.06 0 0 0 2.18 2.88 2.61 2.61 0 0 0 .25.23l-1.95 2a1.77 1.77 0 0 0 -.26-.41 9 9 0 0 0 -4.18-2.61 5.84 5.84 0 0 0 -3.93.23c-.69.31-1.38.62-2.08.88a10.34 10.34 0 0 0 -3.88 2.84 7.21 7.21 0 0 0 -1.58 7.1c.18.73.48 1.45.73 2.21l-2.39 1c-.12-.29-.22-.54-.34-.8a8.8 8.8 0 0 0 -2.65-3.61 5.93 5.93 0 0 0 -3.81-1.36c-1.29 0-2.58.05-3.87.15a5.92 5.92 0 0 0 -1.45.4 10.14 10.14 0 0 0 -2.77 1.24 7.42 7.42 0 0 0 -3 5.06c-.13.84-.15 1.71-.22 2.59h-2.59c0-.67 0-1.32-.11-2a7.25 7.25 0 0 0 -3-5.45h-.06a17.94 17.94 0 0 0 -5.9-2 10.73 10.73 0 0 0 -3.15 0 7.4 7.4 0 0 0 -5 3.71c-.4.68-.71 1.41-1.09 2.16l-2.37-1c.18-.49.37-.94.53-1.4a7.73 7.73 0 0 0 0-5.58 5 5 0 0 0 -1.21-1.84 27.54 27.54 0 0 0 -3-2.79c-3-2-5.77-2.74-9.23-.58a26.91 26.91 0 0 0 -2.36 1.87l-1.87-1.83a3.87 3.87 0 0 0 .47-.39 8.9 8.9 0 0 0 2.53-4.22 5.87 5.87 0 0 0 -.28-3.83c-.24-.52-.47-1-.67-1.58a12.05 12.05 0 0 0 -2.94-4.37 7 7 0 0 0 -4.45-2 9.73 9.73 0 0 0 -4.64.9l-.38.16-1-2.43c.49-.22 1-.41 1.41-.64a7.74 7.74 0 0 0 3.82-3.75 5.19 5.19 0 0 0 .53-2.39 31.09 31.09 0 0 0 -.22-4.33 8.63 8.63 0 0 0 -2.37-4.86 8.07 8.07 0 0 0 -4.94-2.14c-.61 0-1.22-.06-1.85-.09v-2.61h.43a9.74 9.74 0 0 0 4.26-.8 6.87 6.87 0 0 0 2.79-2.36 2.37 2.37 0 0 0 .19-.35c.4-1 .8-2 1.21-3a9 9 0 0 0 .57-2.76 7.92 7.92 0 0 0 -1.2-5.45 9.18 9.18 0 0 0 -3.95-3.07l-.82-.33 1-2.43.4.16a9.72 9.72 0 0 0 4.21.89 6 6 0 0 0 4.26-1.78 26.14 26.14 0 0 0 2.72-3c1.94-2.81 2.54-5.53.81-8.71a10.68 10.68 0 0 0 -2.22-2.73l1.93-1.94a1.48 1.48 0 0 0 .19.3 8.94 8.94 0 0 0 4.29 2.68 5.81 5.81 0 0 0 3.9-.23c.52-.23 1-.46 1.56-.66a12.16 12.16 0 0 0 4.51-3 7 7 0 0 0 2-5.32 10.27 10.27 0 0 0 -.91-3.74l-.17-.38 2.43-1c.22.48.41 1 .64 1.39a7.59 7.59 0 0 0 4.53 4.14 8 8 0 0 0 2.7.22c1.08 0 2.16-.08 3.23-.18a6.84 6.84 0 0 0 1.3-.37 8 8 0 0 0 3.45-1.92 7.68 7.68 0 0 0 2.16-4.59c.1-.76.06-1.54.09-2.32h2.65c0 .57 0 1.15.07 1.72a7.83 7.83 0 0 0 1.44 4.15 5.62 5.62 0 0 0 2.56 2.06c.9.34 1.78.71 2.68 1a4.75 4.75 0 0 0 1.17.28c.9.08 1.8.14 2.69.16a6.71 6.71 0 0 0 4-1.18 9 9 0 0 0 3.15-4c.12-.26.22-.52.34-.82l2.42 1c-.2.55-.4 1-.57 1.53a7.92 7.92 0 0 0 -.27 4.52 5.84 5.84 0 0 0 1.61 2.87c1.6 1.53 3.08 3.19 5.23 4a7.31 7.31 0 0 0 4.18.44 9.2 9.2 0 0 0 4.66-2.62c.13-.14.27-.26.4-.39l-.08.1 1.89 1.82-.27.25a9.86 9.86 0 0 0 -2.42 3.53 6 6 0 0 0 -.16 4.15c.39 1.12.95 2.19 1.41 3.29a9.48 9.48 0 0 0 2.63 3.41 7 7 0 0 0 6.44 1.56c.92-.19 1.8-.53 2.73-.82l1 2.37-.37.16a10.29 10.29 0 0 0 -3.08 1.81 6.33 6.33 0 0 0 -2.31 4.87v2.33a10.41 10.41 0 0 0 1.27 4.89c1.63 3.33 5.33 4.25 8.15 4zm-53.93 35.93a37 37 0 1 0 -37-37 37 37 0 0 0 37 37zm-27.68-69.53a2.08 2.08 0 0 0 .77 1.6c.76.62 1.56 1.18 2.36 1.75.07.05.27 0 .36-.07a38.41 38.41 0 0 1 6.31-4.23c.17-.09.26-.19.21-.39-.22-.86-.39-1.75-.65-2.6a3.92 3.92 0 0 0 -.68-1.21 1.67 1.67 0 0 0 -2-.54 14.51 14.51 0 0 0 -5.74 3.89 8.29 8.29 0 0 0 -.87 1.36 1.39 1.39 0 0 0 -.05.44zm57 56.73a10.3 10.3 0 0 0 2 2.69 3.05 3.05 0 0 0 .85.58 1.67 1.67 0 0 0 2-.28 14.48 14.48 0 0 0 3.56-5.37 8.4 8.4 0 0 0 .39-1.41 1.73 1.73 0 0 0 -1-2.09 2.76 2.76 0 0 0 -.66-.29l-2.29-.55c-.28-.07-.39 0-.53.26-.79 1.32-1.57 2.65-2.42 3.94-.62.87-1.28 1.68-1.91 2.52zm-40.52 12.16a8.49 8.49 0 0 0 -.73 1 14.82 14.82 0 0 0 -1.07 2.33 1.74 1.74 0 0 0 1.05 2.2 14 14 0 0 0 7 1.19c1.63-.17 2.25-.86 2.14-2.5-.05-.86-.25-1.7-.38-2.55 0-.21-.15-.26-.34-.28-.86-.09-1.72-.16-2.56-.33-1.66-.28-3.35-.68-5.11-1.06zm14.2-77.13c.17.92.33 1.85.52 2.78a.41.41 0 0 0 .28.18c.64.1 1.29.13 1.92.26 1.74.37 3.47.77 5.21 1.15.12 0 .31 0 .37-.06a10.23 10.23 0 0 0 1.79-3.08 2 2 0 0 0 -1.19-2.69 13.87 13.87 0 0 0 -4.93-1 7.56 7.56 0 0 0 -2.63.26 1.62 1.62 0 0 0 -1.2 1.37c-.07.31-.09.57-.14.83zm17.13 2.45a3.35 3.35 0 0 0 -.92.41 3.17 3.17 0 0 0 -.74 1 11 11 0 0 0 -.79 3.11.4.4 0 0 0 .17.29c.39.24.8.44 1.19.67a36.07 36.07 0 0 1 4.81 3.32.37.37 0 0 0 .53 0c.29-.21.64-.34.9-.57a15.75 15.75 0 0 0 1.93-1.8 1.76 1.76 0 0 0 -.17-2.46 4.85 4.85 0 0 0 -.56-.55c-1-.78-2-1.61-3.11-2.3a7.62 7.62 0 0 0 -3.22-1.12zm8.87 13.82a39.64 39.64 0 0 1 4.43 6.49.31.31 0 0 0 .27.13 9.57 9.57 0 0 0 2.94-.75 3.44 3.44 0 0 0 1-.64 1.63 1.63 0 0 0 .45-1.89 14.51 14.51 0 0 0 -3.64-5.51 9.51 9.51 0 0 0 -1.4-.94 1.23 1.23 0 0 0 -1.27 0 4.07 4.07 0 0 0 -1 .8c-.63.74-1.17 1.53-1.78 2.31zm-61.52 52.15a2.08 2.08 0 0 0 1.6-.75c.63-.74 1.18-1.53 1.75-2.32a.35.35 0 0 0 0-.33 38.93 38.93 0 0 1 -4.3-6.4.33.33 0 0 0 -.27-.15 9.51 9.51 0 0 0 -3.06.82 3.27 3.27 0 0 0 -.93.66 1.63 1.63 0 0 0 -.38 1.78 14.68 14.68 0 0 0 3.77 5.61 9 9 0 0 0 1.4.93 2.12 2.12 0 0 0 .45.15zm38.07 15.68a14.21 14.21 0 0 0 5.71-1.25 10 10 0 0 0 1.4-.85 1.59 1.59 0 0 0 .6-1.82 3.7 3.7 0 0 0 -.34-.91c-.4-.69-.84-1.36-1.25-2-.14-.23-.28-.24-.53-.18-1.27.33-2.54.68-3.83.95-1.06.22-2.15.33-3.22.5-.15 0-.39.1-.43.21a9.21 9.21 0 0 0 -.42 3.65 1.87 1.87 0 0 0 2 1.74zm-8.38-84.19h-.07c0-.27 0-.55-.09-.82a1.87 1.87 0 0 0 -1.91-1.62 16.51 16.51 0 0 0 -4.37.54 8 8 0 0 0 -3.15 1.48 1.67 1.67 0 0 0 -.59 1.83 2.38 2.38 0 0 0 .23.68c.47.8.95 1.59 1.45 2.38a.36.36 0 0 0 .32.09 41.37 41.37 0 0 1 7.38-1.46.38.38 0 0 0 .27-.2c.19-1 .36-1.96.53-2.9zm-40.34 34.44c.11.69.2 1.37.34 2.05a1.63 1.63 0 0 0 1.59 1.31 10.59 10.59 0 0 0 3-.31c.39-.07.49-.25.52-.61a37 37 0 0 1 1.25-6.51c.23-.8.23-.8-.44-1.3a8 8 0 0 0 -2.67-1.36 1.84 1.84 0 0 0 -2.37 1.11 15.84 15.84 0 0 0 -1.22 5.6zm2.48 9.28v.1h-.58a1.93 1.93 0 0 0 -2 2.05 15.71 15.71 0 0 0 .54 4.22 8.21 8.21 0 0 0 1.49 3.23 1.69 1.69 0 0 0 1.85.61 2.62 2.62 0 0 0 .74-.27c.76-.44 1.5-.89 2.23-1.37a.37.37 0 0 0 .1-.35 41 41 0 0 1 -1.47-7.44.39.39 0 0 0 -.23-.27c-.87-.23-1.77-.37-2.67-.53zm68.39 29.73a2.09 2.09 0 0 0 -.75-1.57c-.77-.63-1.59-1.21-2.41-1.79a.37.37 0 0 0 -.33.05 38.48 38.48 0 0 1 -6.09 4.11.31.31 0 0 0 -.19.4c.22.9.41 1.81.68 2.7a3.43 3.43 0 0 0 .6 1.09 1.73 1.73 0 0 0 2.05.56 13.35 13.35 0 0 0 5.51-3.83 9 9 0 0 0 .84-1.37 1.13 1.13 0 0 0 .09-.37zm15.6-38.12a14 14 0 0 0 -1.24-5.66 7.28 7.28 0 0 0 -.78-1.32 1.65 1.65 0 0 0 -2-.66 3.65 3.65 0 0 0 -.77.31c-.65.38-1.27.79-1.92 1.17a.45.45 0 0 0 -.22.61 35.42 35.42 0 0 1 1.38 6.51c.11 1 .12 1 1.06 1.18a7.61 7.61 0 0 0 2.85.18 1.85 1.85 0 0 0 1.69-1.92zm-63.4 43.67v-.1a1.31 1.31 0 0 0 1.24-.51 3.44 3.44 0 0 0 .6-1.05c.26-.85.45-1.73.64-2.6a.43.43 0 0 0 -.19-.35 40.31 40.31 0 0 1 -6.15-4.09.45.45 0 0 0 -.39 0c-.75.52-1.49 1-2.19 1.62a3.4 3.4 0 0 0 -.8 1 1.71 1.71 0 0 0 .34 2.08 14.29 14.29 0 0 0 4.95 3.44c.61.23 1.29.37 1.95.56zm63.34-32c-.13-.71-.23-1.43-.38-2.14a1.53 1.53 0 0 0 -1.28-1.16 2.15 2.15 0 0 0 -.71-.07c-.95.12-1.89.26-2.83.42-.09 0-.2.18-.21.29a39.13 39.13 0 0 1 -1.24 6.7c-.22.81-.22.81.48 1.32a7.73 7.73 0 0 0 2.71 1.34 1.81 1.81 0 0 0 2.23-1.06 15.35 15.35 0 0 0 1.23-5.64zm-81.24-26.3a1.39 1.39 0 0 0 .71 1.29 2.92 2.92 0 0 0 .91.47c.83.24 1.67.41 2.5.62a.39.39 0 0 0 .53-.25 37.07 37.07 0 0 1 3.29-5.08c.27-.35.72-.7.74-1.06s-.36-.8-.64-1.13a14 14 0 0 0 -1.78-1.9 1.74 1.74 0 0 0 -2.45.15 15.18 15.18 0 0 0 -2.67 3.41 7.4 7.4 0 0 0 -1.14 3.48z"/><path d="m247.38 419.37v-1h8.06v.91c0 .07-.15.16-.24.18-.4.1-.81.15-1.19.27a1.76 1.76 0 0 0 -1.39 1.78v.79 21.64c-.38 0-.73 0-1.08 0-.1 0-.2-.12-.27-.2l-10.92-13.3-4.86-5.91-.22-.26a2.16 2.16 0 0 0 0 .29q0 7.2 0 14.41a6.21 6.21 0 0 0 .15 1.28 1.94 1.94 0 0 0 1.38 1.55c.62.18 1.25.3 1.9.45v1h-8.47c0-.3 0-.61 0-.91 0-.07.17-.17.27-.19.43-.09.87-.13 1.3-.24a1.88 1.88 0 0 0 1.6-1.89c0-.34 0-.67 0-1q0-8.29 0-16.6a.94.94 0 0 0 -.26-.71c-.56-.58-1.09-1.21-1.69-1.75a5.91 5.91 0 0 0 -1.15-.67v-.93h.43 7a.85.85 0 0 1 .75.35q6 7.38 11.95 14.73l.33.38a1 1 0 0 0 .05-.18c0-3.79 0-7.59 0-11.38a3.84 3.84 0 0 0 -.09-.75 2.15 2.15 0 0 0 -1.61-1.75c-.6-.19-1.11-.27-1.73-.39z"/><path d="m297.87 425.86c-1 .11-1 .11-1.21-.79-.14-.57-.31-1.13-.5-1.68a4.74 4.74 0 0 0 -3.34-3.14 14.08 14.08 0 0 0 -5.44-.39 1 1 0 0 0 -1.06 1.1 5.43 5.43 0 0 0 0 .57v8.23a6.1 6.1 0 0 0 2.13-.23 3.54 3.54 0 0 0 2.54-2.28c.33-.93.54-1.9.82-2.9h1v12.52h-1.07c-.1-.56-.2-1.13-.31-1.7 0-.17-.07-.33-.11-.49a4.21 4.21 0 0 0 -4.17-3.4l-.82-.06v.41 7.94.5a1.79 1.79 0 0 0 1.61 1.86c.59.12 1.21.15 1.81.21h.58v1.08h-13.33a8.75 8.75 0 0 1 0-.89c0-.08.15-.19.24-.21.48-.09 1-.12 1.45-.23a1.67 1.67 0 0 0 1.48-1.72q0-.43 0-.87 0-8.56 0-17.13a7.2 7.2 0 0 0 -.09-1.14 1.67 1.67 0 0 0 -1.36-1.41c-.56-.12-1.13-.17-1.73-.26v-1h20.89z"/><path d="m273.92 417.73v8.16a8.94 8.94 0 0 1 -1 0c-.09 0-.19-.18-.23-.29a11.19 11.19 0 0 0 -2.07-4 6.17 6.17 0 0 0 -5.46-2.45 3.38 3.38 0 0 0 -3.19 2.46 3.23 3.23 0 0 0 1.38 3.83c1.21.74 2.48 1.38 3.74 2s2.38 1.19 3.57 1.78a7.64 7.64 0 0 1 4.35 7.33 7.48 7.48 0 0 1 -5.21 6.77 12.76 12.76 0 0 1 -8.08 0c-.58-.18-1.16-.4-1.75-.54s-1.09.05-1.28.78c-.09.34-.24.47-.58.43a6.54 6.54 0 0 0 -.77 0v-9.22h1.2c.19.68.35 1.36.58 2a9.22 9.22 0 0 0 2.63 4.21 6.2 6.2 0 0 0 5.94 1.33 3.61 3.61 0 0 0 2.71-3.08 3.41 3.41 0 0 0 -1.53-3.71 27.64 27.64 0 0 0 -2.51-1.38c-1.57-.83-3.17-1.62-4.73-2.47a9.52 9.52 0 0 1 -1.49-1.12 7.32 7.32 0 0 1 1.13-11.8 8.81 8.81 0 0 1 3.15-.92 12.33 12.33 0 0 1 5.88.82 7.14 7.14 0 0 0 1 .29.91.91 0 0 0 1.2-.73.56.56 0 0 1 .72-.5 5.6 5.6 0 0 0 .7.02z"/></g></svg>