<svg viewBox="0 0 225.51 197.38" xmlns="http://www.w3.org/2000/svg"><path d="m629.72 365.12h-207.64a8.44 8.44 0 0 0 -8.44 8.44v143.79a8.26 8.26 0 0 0 8.44 8.31h207.64a8.25 8.25 0 0 0 8.43-8.31v-143.79a8.43 8.43 0 0 0 -8.43-8.44zm-2.92 125.88h-200.8v-114.2h200.8z" fill="#fff" transform="translate(-413.14 -364.62)"/><path d="m629.72 525.66h-207.64a8.26 8.26 0 0 1 -8.44-8.31v-143.79a8.44 8.44 0 0 1 8.44-8.44h207.64a8.43 8.43 0 0 1 8.43 8.44v143.79a8.25 8.25 0 0 1 -8.43 8.31z" fill="none" stroke="#000" stroke-miterlimit="10" transform="translate(-413.14 -364.62)"/><path d="m12.86 12.18h200.8v114.2h-200.8z" fill="none" stroke="#000" stroke-miterlimit="10" stroke-width=".5"/><path d="m527 373a1 1 0 1 0 -1-1 1 1 0 0 0 1 1z" fill-rule="evenodd" transform="translate(-413.14 -364.62)"/><g stroke="#000" stroke-miterlimit="10"><path d="m224.95 135.39-224.51-.03" fill="none"/><path d="m501.59 539c-.39 2.77-1.47 7.9-2.77 10.26 0 0-.8 1.33-5.29 3.58-1.63.81-4 2-5.3 2.61-.51.23-1.67.49-1.67 1.75v1.59c0 .85-.12 1.79.49 2.32s1.43.36 2.1.38l74.57-.1a2.24 2.24 0 0 0 1.43-.41c.57-.48.2-3 .2-4a1.07 1.07 0 0 0 -.41-.85c-.61-.37-5.46-2.74-5.94-3a29.3 29.3 0 0 1 -6-4c-.79-1.41-1.71-6.93-1.87-8.55-.51-5.12-.53-9.74-.65-14.91h-48s-.4 9.81-.89 13.33z" fill="#fff" fill-rule="evenodd" transform="translate(-413.14 -364.62)"/><path d="m73.56 192.19h78.34" fill="none" stroke-width=".5"/></g></svg>