<svg viewBox="0 0 223.91 129.57" xmlns="http://www.w3.org/2000/svg"><g transform="translate(-517.53 -218.49)"><path d="m711.89 219h-164.8a8.13 8.13 0 0 0 -8.12 8.12v105.56a8.12 8.12 0 0 0 8.12 8.12h164.8a8.12 8.12 0 0 0 8.12-8.12v-105.57a8.13 8.13 0 0 0 -8.12-8.11zm-.58 115h-163.6v-106h163.6z" fill="#fff" fill-rule="evenodd"/><path d="m518 340.78v1.84a5 5 0 0 0 4.94 4.95h213.06a5 5 0 0 0 5-4.95v-1.84z" fill="#fff" fill-rule="evenodd" stroke="#000" stroke-miterlimit="10"/><path d="m611.89 340.78v.88a2.36 2.36 0 0 0 2.36 2.36h30.56a2.36 2.36 0 0 0 2.36-2.36v-.88z" fill="none" stroke="#000" stroke-miterlimit="10" stroke-width=".5"/></g><circle cx="112.01" cy="5.45" r=".99"/><rect fill="none" height="121.81" rx="8.12" stroke="#000" stroke-miterlimit="10" width="181.04" x="21.44" y=".5"/><path d="m30.18 9.51h163.6v106h-163.6z" fill="none" stroke="#000" stroke-miterlimit="10" stroke-width=".5"/></svg>