<svg viewBox="0 0 51.03 106.3" xmlns="http://www.w3.org/2000/svg"><path d="m94.26 165.34h-34.05a7.64 7.64 0 0 0 -7.64 7.66v90a7.63 7.63 0 0 0 7.64 7.63h34.05a7.63 7.63 0 0 0 7.63-7.63v-90a7.64 7.64 0 0 0 -7.63-7.66zm5.27 93.51h-44.59v-79.85h44.59z" fill="#fff" transform="translate(-51.36 -164.84)"/><rect height=".99" rx=".5" width="9.03" x="21.34" y="8.19"/><circle cx="25.86" cy="5.64" r=".5"/><circle cx="17.34" cy="8.16" r=".99"/><g transform="translate(-51.36 -164.84)"><path d="m52.08 179.07h-.17a.55.55 0 0 0 -.55.55v2.88a.55.55 0 0 0 .55.55h.17z"/><path d="m52.08 188.05h-.17a.55.55 0 0 0 -.55.54v6.92a.55.55 0 0 0 .55.54h.17z"/><path d="m52.08 198.06h-.17a.55.55 0 0 0 -.55.55v6.89a.55.55 0 0 0 .55.55h.17z"/></g><circle cx="25.82" cy="99.73" fill="none" r="3.45" stroke="#000" stroke-miterlimit="10"/><rect fill="none" height="105.3" rx="7.63" stroke="#000" stroke-miterlimit="10" width="49.32" x="1.21" y=".5"/><path d="m3.58 14.2h44.59v79.82h-44.59z" fill="none" stroke="#000" stroke-miterlimit="10" stroke-width=".5"/></svg>